<?xml version="1.0" encoding="utf-8"?>
<!-- Generator: Adobe Illustrator 27.5.0, SVG Export Plug-In . SVG Version: 6.00 Build 0)  -->
<svg version="1.1" id="Logotype_Kopie" xmlns="http://www.w3.org/2000/svg" xmlns:xlink="http://www.w3.org/1999/xlink" x="0px"
	 y="0px" viewBox="0 0 500 160" style="enable-background:new 0 0 500 160;" xml:space="preserve">
<style type="text/css">
	.st0{display:none;}
	.st1{display:inline;}
	.st2{fill:#050505;}
</style>
<g>
	<g class="st0">
		<path class="st1" d="M64.4,132.9l-1.3,9.5c-0.3,0-1.2,0.1-2.6,0.1c-1.4,0-2.5,0.1-3.5,0.1c-10.2,0-17.9-2.1-23.1-6.4
			c-5.2-4.2-7.8-10.8-7.8-19.6c0-5.5,0-11.4,0.1-17.7c0.1-6.3,0.1-14.1,0.1-23.5H13.7v-8.7h13.2V49.1h10.8v17.7h26.7v8.7H37.7
			c0,1,0,4.1-0.1,9.3c-0.1,5.2-0.1,9-0.1,11.5c0,2.1,0,4.6,0,7.7s0,6.6,0,10.8c0,6.5,1.7,11.1,5.2,14c3.5,2.9,8.8,4.3,16.1,4.3
			c0.9,0,2,0,3.2,0C63.2,132.9,64,132.9,64.4,132.9z"/>
		<path class="st1" d="M144.6,142.2h-11.4v-8.6l-0.1-0.1c-3.5,2.3-7.8,4.6-13,7c-5.2,2.4-10.3,3.6-15.3,3.6c-6.9,0-12.2-2-16.1-6.1
			c-3.9-4.1-5.8-9.8-5.8-17.1c0-4,0-8.7,0.1-14.2c0.1-5.5,0.1-9.5,0.1-12c0-4.5-0.1-10.1-0.2-16.7c-0.1-6.6-0.2-10.4-0.2-11.2h11.8
			c0,0.6-0.1,4.2-0.1,10.7c-0.1,6.5-0.1,11.7-0.1,15.6c0,3.4,0,7.7,0.1,12.8c0,5.1,0.1,8.7,0.1,10.9c0.1,5.9,1.1,10.2,3.1,12.9
			c1.9,2.7,5.1,4.1,9.4,4.1c4.4,0,9.3-1.2,14.6-3.6s9.2-4.5,11.7-6.3c0-0.6,0-3.3,0.1-8.2c0-4.9,0.1-11,0.1-18.3
			c0-5.2-0.1-11.5-0.2-18.7c-0.1-7.3-0.2-11.2-0.2-11.9h11.8c0,0.8-0.1,3.6-0.1,8.4c-0.1,4.7-0.1,12.8-0.1,24.3c0,6.4,0,12,0.1,16.9
			C144.5,121.1,144.5,129.7,144.6,142.2z M104,52.3H91.4V39.6H104V52.3z M136.1,52.3h-12.6V39.6h12.6V52.3z"/>
		<path class="st1" d="M215.5,75.5c-2.7,0.6-6.9,2-12.6,4.1c-5.6,2.1-12.1,4.9-19.5,8.3c0,0.5,0,3-0.1,7.5c0,4.4-0.1,8.6-0.1,12.4
			c0,5.9,0.1,12.8,0.2,20.9c0.1,8,0.2,12.5,0.2,13.4h-11.8c0-0.8,0-3.6,0.1-8.3c0.1-4.7,0.1-12.8,0.1-24.2c0-4.6,0-11.1-0.1-19.4
			c0-8.3-0.1-16.1-0.2-23.5h11.6v11.3l0.1,0.1c5.6-3.2,11.2-5.9,16.6-8.3c5.5-2.3,9.8-3.9,13.1-4.8L215.5,75.5z"/>
		<path class="st1" d="M288.8,101.7h-53.9c0,5.3,1.2,10.1,3.4,14.5c2.2,4.4,5.5,8,10.1,10.9c2.9,1.8,6.2,3.2,9.8,4.1
			c3.7,0.9,8.1,1.4,13.3,1.4c2.8,0,5.4-0.1,7.8-0.2c2.4-0.1,3.8-0.2,4.4-0.3l-1.3,9.9c-0.4,0.1-1.7,0.1-3.9,0.3
			c-2.2,0.1-4.9,0.2-7.9,0.2c-7.9,0-14.9-1-20.8-3.1c-5.9-2.1-10.7-4.9-14.5-8.5c-3.2-3-6-6.9-8.2-11.6c-2.3-4.7-3.4-10-3.4-15.7
			c0-5.7,0.8-10.8,2.5-15.4c1.7-4.6,4.2-8.8,7.6-12.7c2.9-3.4,6.6-6,10.9-7.8c4.3-1.8,8.9-2.8,13.5-2.8c4.6,0,8.7,0.7,12.3,2.1
			c3.6,1.4,6.7,3.5,9.3,6.3c2.9,3.2,5.2,7.1,6.7,11.7C287.9,89.6,288.7,95.2,288.8,101.7z M277.2,93.4c-0.8-6.2-2.9-11-6.3-14.5
			c-3.4-3.5-7.9-5.3-13.5-5.3c-5.6,0-10.2,1.8-13.9,5.3c-3.7,3.6-6.3,8.4-7.7,14.4H277.2z"/>
		<path class="st1" d="M366.6,137l-9.1,7.1c-0.2-0.4-2.6-3.7-7.2-10c-4.5-6.3-10.3-13.9-17.4-22.9h-0.1
			c-6.7,8.3-12.4,15.7-17.2,22.3s-7.4,10.1-7.8,10.6l-8.4-6.7c0.6-0.6,3.6-4.1,9-10.5c5.3-6.4,11.4-13.8,18.3-22.3v-0.1
			c-4.4-5.6-8.6-11-12.6-16.1s-8.4-10.6-13.1-16.4l9-6.8c3.5,4.8,7.3,9.8,11.2,15c3.9,5.2,8,10.6,12.2,16.1h0.1
			c3.6-4.7,7.4-9.6,11.2-14.6c3.8-5,7.9-10.5,12.3-16.4l8.5,6.3c-5,5.9-9.4,11.2-13.3,15.9c-3.9,4.7-8.1,9.8-12.7,15.4v0.1
			c7.4,9.2,13.6,17.1,18.8,23.5C363.4,133,366.2,136.5,366.6,137z"/>
	</g>
</g>
<g>
	<path class="st2" d="M25.5,76.8V52.2h15.1V27h31.6v25.2H94l-4,24.5H72.1v20.5c0,12.6,5.5,18.9,16.7,18.9H94l-4,25.6H76.8
		c-11.3,0-20.2-3.3-26.6-10c-6.4-6.7-9.6-16-9.6-27.9V76.8H25.5z"/>
	<path class="st2" d="M149.4,143.4c-13.6,0-24.2-3.8-31.9-11.5c-7.7-7.7-11.6-18.4-11.6-32.2V52.2h31.6v48.2c0,5.3,1.1,9.3,3.2,12.1
		c2.1,2.8,5,4.2,8.8,4.2c3.7,0,6.7-1.4,8.8-4.2c2.1-2.8,3.2-6.8,3.2-12.1V52.2h31.6v47.5c0,13.8-3.9,24.5-11.6,32.2
		C173.6,139.6,162.9,143.4,149.4,143.4z"/>
	<path class="st2" d="M212,141.3v-89h28.4v17.4h1.2c4.1-13,12.2-19.5,24.2-19.5c3.5,0,6.4,0.7,8.6,2.1v31.2h-1.2
		c-3.2-1.3-6.6-1.9-10.3-1.9c-6.2,0-11,2-14.3,6.1c-3.3,4.1-5,9.6-5,16.5v37.2H212z"/>
	<path class="st2" d="M328.9,143.4c-14.6,0-26.1-4.1-34.6-12.4c-8.5-8.3-12.7-19.7-12.7-34.2c0-9.8,2-18.2,6-25.2
		c4-7,9.6-12.3,16.7-16c7.1-3.7,15.1-5.5,24.1-5.5c13.8,0,24.3,4.1,31.5,12.2c7.2,8.1,10.8,19.7,10.8,34.6v4.7l-57.1,5.6
		c1.4,4.2,3.9,7.2,7.5,8.9c3.6,1.8,8,2.6,13.2,2.6c6,0,11.7-0.7,17.3-2.2c5.5-1.5,9.7-3,12.5-4.5h1.2l-4.6,24.9
		c-3.5,1.5-8.2,3-14,4.3C340.7,142.7,334.8,143.4,328.9,143.4z M327.8,73.3c-3.9,0-7.2,1.2-9.9,3.5c-2.7,2.3-4.6,6.3-5.5,11.9
		l29.4-2.8c-0.8-4.4-2.5-7.7-4.9-9.6C334.5,74.3,331.4,73.3,327.8,73.3z"/>
	<path class="st2" d="M376.7,141.3V140l27.7-44.5l-25.1-42.1v-1.2h33.8l11.7,24.9h1.2l13.1-24.9h32.6v1.2l-25.8,42.1l28.4,44.5v1.2
		h-33.8l-15.1-27.5h-1.2l-15.1,27.5H376.7z"/>
	<g>
		<circle class="st2" cx="124.1" cy="30.5" r="13.9"/>
		<circle class="st2" cx="174.7" cy="30.5" r="13.9"/>
	</g>
</g>
</svg>
