<?xml version="1.0" encoding="utf-8"?>
<!-- Generator: Adobe Illustrator 27.2.0, SVG Export Plug-In . SVG Version: 6.00 Build 0)  -->
<svg version="1.1" id="Logotype_Kopie" xmlns="http://www.w3.org/2000/svg" xmlns:xlink="http://www.w3.org/1999/xlink" x="0px"
	 y="0px" viewBox="0 0 500 160" style="enable-background:new 0 0 500 160;" xml:space="preserve">
<g>
	<g>
		<path d="M15,143.2L61.2,16.7h11.6l46.1,126.5h-9.4l-14.2-38.8H38.6l-14.2,38.8H15z M41.5,95.4h50.7L66.9,25.7L41.5,95.4z"/>
		<path d="M146.8,143.2V25.5h-42.9v-8.8h91.4v8.8h-39.6v117.8H146.8z"/>
		<path d="M250.4,145c-10.8,0-20.1-2.5-27.9-7.4c-7.8-5-13.9-12.2-18.1-21.9c-4.3-9.6-6.4-21.4-6.4-35.4c0-14.1,2.1-26,6.4-35.7
			c4.3-9.7,10.3-17,18.2-22c7.8-5,17.1-7.5,27.9-7.5c10.7,0,20,2.5,27.7,7.5c7.8,5,13.7,12.3,17.8,22c4.1,9.7,6.2,21.6,6.2,35.8
			c0,14-2.1,25.8-6.2,35.4c-4.1,9.6-10.1,16.9-17.8,21.9C270.4,142.5,261.1,145,250.4,145z M250.4,136.3c9.1,0,16.8-2,23-6.1
			c6.2-4.1,10.9-10.3,14.1-18.5c3.2-8.3,4.8-18.8,4.8-31.4c0-12.8-1.6-23.3-4.9-31.7c-3.2-8.3-8-14.6-14.2-18.7
			c-6.2-4.1-13.9-6.2-22.8-6.2c-9,0-16.6,2.1-23,6.3c-6.3,4.2-11.2,10.4-14.5,18.8c-3.3,8.4-5,18.9-5,31.5c0,12.7,1.7,23.1,5,31.4
			c3.3,8.3,8.2,14.5,14.5,18.5C233.7,134.3,241.4,136.3,250.4,136.3z"/>
		<path d="M324.6,143.2l0.1-126.5h9.4v117.4h63.5v9.1H324.6z"/>
		<path d="M412.1,143.2l0.1-126.5h9.4v117.4h63.5v9.1H412.1z"/>
	</g>
</g>
</svg>
