<svg width="96" height="29" viewBox="0 0 96 29" fill="none" xmlns="http://www.w3.org/2000/svg">
<path d="M70.7714 0.0214844H47.9255V21.4367H70.7714V0.0214844Z" fill="#334155"/>
<path d="M46.8078 0.0214844H23.9641V21.4367H46.8078V0.0214844Z" fill="#334155"/>
<path d="M42.5661 17.8352L37.0899 9.16424L42.391 3.27344H37.722L33.2281 8.42744V3.27344H29.4536V17.8352H33.2281V13.2744L34.5367 11.8634L38.1164 17.8352H42.5661Z" fill="white"/>
<path d="M22.8433 0.0214844H0V21.4367H22.8433V0.0214844Z" fill="#334155"/>
<path d="M21.303 3.27051H17.3102L15.2812 10.9609L12.7722 3.27051H10.0667L7.55792 10.9609L5.52891 3.27051H1.53638L5.81222 17.8351H8.91067L11.4195 10.6539L13.9285 17.8351H17.0483L21.303 3.27051Z" fill="white"/>
<path d="M59.3372 2.81836C64.0361 2.81836 67.5757 6.13696 67.5757 10.5208C67.5757 14.9068 64.0359 18.2254 59.3372 18.2254C54.6386 18.2254 51.1213 14.9068 51.1213 10.5208C51.1213 6.13696 54.6384 2.81836 59.3372 2.81836Z" fill="white"/>
<path d="M62.0428 7.59548C61.3679 6.85468 60.4141 6.39948 59.3374 6.40088C58.272 6.39948 57.3211 6.85468 56.6491 7.59288C55.9771 8.33228 55.5754 9.35348 55.5754 10.5003C55.5754 11.6669 55.9712 12.6989 56.6402 13.4437C57.3098 14.1873 58.2607 14.6427 59.3371 14.6413C60.4138 14.6427 61.3677 14.1887 62.0426 13.4465C62.7206 12.7057 63.1217 11.6789 63.1217 10.5205C63.1219 9.36428 62.7208 8.33788 62.0428 7.59548Z" fill="#334155"/>
<path d="M73.7842 0.671875V20.8285H95.285V0.671875H73.7842ZM80.3683 13.3203H79.4881L78.4944 10.2499L77.5036 13.3203H76.6234L75.1826 8.25967H76.2819L77.1162 11.4513L78.1016 8.25967H78.8901L79.8755 11.4513L80.7188 8.25967H81.8181L80.3683 13.3203ZM83.4725 13.3213H82.4184V8.25948H83.4725V13.3213ZM88.2113 9.14048H85.7076V10.3287H87.8382V11.2083H85.7076V12.4389H88.2113V13.3201H84.6541V8.25948H88.2113V9.14048ZM92.3604 13.3203L90.2215 10.2139V13.3203H89.1681V8.25948H90.1076L92.2465 11.3591V8.25948H93.2999V13.3201H92.3604V13.3203Z" fill="white"/>
<path d="M95.6437 0H73.4255H73.0667V0.335199V21.1644V21.5008H73.4255H95.6437H96V21.1644V0.335199V0H95.6437ZM73.7843 20.828V0.6716H95.2851V20.8282H73.7843V20.828Z" fill="#334155"/>
<path d="M79.875 11.4509L78.8899 8.25928H78.1014L77.116 11.4509L76.2816 8.25928H75.1821L76.623 13.3201H77.5032L78.4941 10.2497L79.4878 13.3201H80.368L81.8176 8.25928H80.7183L79.875 11.4509Z" fill="#334155"/>
<path d="M83.4725 8.25928H82.4185V13.3211H83.4725V8.25928Z" fill="#334155"/>
<path d="M84.6538 13.3201H88.2109V12.4387H85.7073V11.2081H87.8378V10.3285H85.7073V9.14028H88.2109V8.25928H84.6538V13.3201Z" fill="#334155"/>
<path d="M92.2466 8.25928V11.3589L90.1075 8.25928H89.168V13.3201H90.2216V10.2135L92.3605 13.3201H93.3V8.25928H92.2466Z" fill="#334155"/>
<path d="M4.86699 24.8193H3.88437L3.38453 26.7121L2.76672 24.8193H2.10155L1.48224 26.7121L0.983893 24.8193H0L1.05365 28.4049H1.81547L2.43349 26.6377L3.05152 28.4049H3.81888L4.86699 24.8193Z" fill="#334155"/>
<path d="M7.26075 24.8193H6.3208V28.4049H7.26075V24.8193Z" fill="#334155"/>
<path fill-rule="evenodd" clip-rule="evenodd" d="M10.9798 25.9729C10.9798 26.1597 10.8287 26.3355 10.571 26.3355H10.0386V25.6097H10.571C10.8287 25.6097 10.9798 25.7859 10.9798 25.9729ZM12.1245 28.4047L11.2959 26.9097C11.5965 26.7681 11.9195 26.4615 11.9195 25.9729C11.9195 25.3827 11.4638 24.8193 10.6139 24.8193H9.1001V28.4047H10.0386V27.0725H10.356L11.0338 28.4047H12.1245Z" fill="#334155"/>
<path d="M16.2621 25.6043V24.8193H13.4417V25.6043H14.3814V28.4049H15.3224V25.6043H16.2621Z" fill="#334155"/>
<path d="M20.4442 27.3074C20.4442 26.9738 20.3632 26.707 20.1594 26.5224C19.9986 26.3702 19.7509 26.269 19.4076 26.2236L18.9449 26.1648C18.811 26.1486 18.7299 26.1032 18.6815 26.058L18.6059 25.8924C18.6059 25.735 18.7412 25.5616 19.0704 25.5616C19.2355 25.5616 19.5529 25.5426 19.7938 25.7726L20.3847 25.217C20.057 24.9098 19.643 24.79 19.0962 24.79C18.226 24.79 17.6993 25.2678 17.6993 25.922C17.6993 26.2292 17.7846 26.472 17.9625 26.6426C18.1349 26.8082 18.3913 26.915 18.7301 26.9604L19.193 27.022L19.4465 27.1154L19.5207 27.3264C19.5207 27.5346 19.3426 27.6492 18.9722 27.6492C18.6663 27.6492 18.3175 27.5854 18.1193 27.3984L17.5171 27.9614C17.9045 28.3352 18.3813 28.4342 18.9665 28.4342C19.7722 28.4344 20.4442 28.0392 20.4442 27.3074Z" fill="#334155"/>
<path d="M24.9052 27.2678H23.9484C23.89 27.468 23.7705 27.6494 23.4599 27.6494C23.2877 27.6494 23.1582 27.5856 23.0883 27.5C23.0029 27.3932 22.943 27.2678 22.943 26.6136C22.943 25.9568 23.0029 25.8336 23.0883 25.7272C23.158 25.6416 23.2875 25.575 23.4599 25.575C23.7705 25.575 23.89 25.7564 23.9484 25.9566H24.9052C24.7659 25.1664 24.1793 24.79 23.4543 24.79C23.0089 24.79 22.6699 24.9316 22.3907 25.193C21.9879 25.5696 22.0033 26.0742 22.0033 26.6136C22.0033 27.153 21.9877 27.6548 22.3907 28.031C22.6697 28.2956 23.0087 28.4344 23.4543 28.4344C24.1793 28.4346 24.7659 28.058 24.9052 27.2678Z" fill="#334155"/>
<path d="M29.3452 28.4049V24.8193H28.404V26.1997H27.4058V24.8193H26.4661V28.4049H27.4058V26.9847H28.404V28.4049H29.3452Z" fill="#334155"/>
<path fill-rule="evenodd" clip-rule="evenodd" d="M32.8977 27.1367H32.2312L32.5757 26.1809L32.8977 27.1367ZM34.3044 28.4047L32.9134 24.8193H32.1885L30.7959 28.4047H31.7798L31.9677 27.8709H33.1441L33.322 28.4047H34.3044Z" fill="#334155"/>
<path d="M38.3584 25.6043V24.8193H35.7583V28.4049H36.6968V27.0221H38.1163V26.2343H36.6968V25.6043H38.3584Z" fill="#334155"/>
<path d="M42.6203 25.6043V24.8193H39.7996V25.6043H40.7393V28.4049H41.6805V25.6043H42.6203Z" fill="#334155"/>
<path d="M46.8021 27.3074C46.8021 26.9738 46.7211 26.707 46.5173 26.5224C46.3565 26.3702 46.1101 26.269 45.7656 26.2236L45.3043 26.1648C45.1689 26.1486 45.0876 26.1032 45.0394 26.058L44.9639 25.8924C44.9639 25.735 45.0991 25.5616 45.4283 25.5616C45.5934 25.5616 45.9108 25.5426 46.1517 25.7726L46.7426 25.217C46.4149 24.9098 46.0024 24.79 45.4541 24.79C44.5839 24.79 44.0572 25.2678 44.0572 25.922C44.0572 26.2292 44.1425 26.472 44.3204 26.6426C44.4928 26.8082 44.7492 26.915 45.088 26.9604L45.5509 27.022L45.8044 27.1154L45.8784 27.3264C45.8784 27.5346 45.7005 27.6492 45.3301 27.6492C45.0242 27.6492 44.6754 27.5854 44.4772 27.3984L43.875 27.9614C44.2624 28.3352 44.7392 28.4342 45.3244 28.4342C46.1301 28.4344 46.8021 28.0392 46.8021 27.3074Z" fill="#334155"/>
<path d="M51.7139 28.4049L50.3637 26.2691L51.6708 24.8193H50.5203L49.4154 26.0877V24.8193H48.4849V28.4049H49.4154V27.2835L49.7371 26.9365L50.6173 28.4049H51.7139Z" fill="#334155"/>
<path fill-rule="evenodd" clip-rule="evenodd" d="M54.8805 27.1367H54.2139L54.5584 26.1809L54.8805 27.1367ZM56.2873 28.4047L54.8974 24.8193H54.171L52.7786 28.4047H53.761L53.9519 27.8709H55.1282L55.3044 28.4047H56.2873Z" fill="#334155"/>
<path d="M61.3079 28.4049V24.8193H60.3823L59.5221 26.4027L58.6652 24.8193H57.7395V28.4049H58.6794V26.6881L59.2232 27.5745H59.8242L60.368 26.6881V28.4049H61.3079Z" fill="#334155"/>
<path d="M66.7129 28.4049V24.8193H65.7879L64.9303 26.4027L64.0701 24.8193H63.1475V28.4049H64.0874V26.6881L64.6282 27.5745H65.2322L65.7736 26.6881V28.4049H66.7129Z" fill="#334155"/>
<path d="M71.1531 28.4049V27.6203H69.4927V26.9903H70.9108V26.2053H69.4927V25.6043H71.1531V24.8193H68.5532V28.4049H71.1531Z" fill="#334155"/>
<path fill-rule="evenodd" clip-rule="evenodd" d="M74.7665 25.9729C74.7665 26.1597 74.6154 26.3355 74.3564 26.3355H73.8239V25.6097H74.3564C74.6154 25.6097 74.7665 25.7859 74.7665 25.9729ZM75.9086 28.4047L75.0826 26.9097C75.3817 26.7681 75.7062 26.4615 75.7062 25.9729C75.7062 25.3827 75.2477 24.8193 74.3991 24.8193H72.8838V28.4047H73.8237V27.0725H74.1395L74.8204 28.4047H75.9086Z" fill="#334155"/>
<path d="M84.1929 24.8193H83.2075L82.7092 26.7121L82.0916 24.8193H81.4249L80.8071 26.7121L80.3088 24.8193H79.3259L80.3768 28.4049H81.1401L81.7579 26.6377L82.3762 28.4049H83.145L84.1929 24.8193Z" fill="#334155"/>
<path d="M86.5847 24.8193H85.6448V28.4049H86.5847V24.8193Z" fill="#334155"/>
<path d="M91.0249 28.4049V27.6203H89.3645V26.9903H90.7825V26.2053H89.3645V25.6043H91.0249V24.8193H88.4246V28.4049H91.0249Z" fill="#334155"/>
<path d="M95.7434 28.4049V24.8193H94.8011V26.6215L93.5794 24.8193H92.7563V28.4049H93.6963V26.6031L94.9204 28.4049H95.7434Z" fill="#334155"/>
</svg>
