<svg width="57" height="56" viewBox="0 0 57 56" fill="none" xmlns="http://www.w3.org/2000/svg">
<g clip-path="url(#clip0_4039_28572)">
<path d="M40.1445 0.296875C40.1565 3.34894 40.1685 6.40694 40.1865 9.459C40.1865 9.81527 40.2105 10.1775 40.2285 10.5338" stroke="#1D1D1B" stroke-linecap="round" stroke-linejoin="round"/>
<path d="M16.7537 0.546875C16.6277 3.79489 16.6097 7.0429 16.7537 10.2909C16.7537 10.4037 16.5737 10.4928 16.7117 10.6234" stroke="#1D1D1B" stroke-linecap="round" stroke-linejoin="round"/>
<path d="M36.6847 5.66406H20.1719" stroke="#1D1D1B" stroke-linecap="round" stroke-linejoin="round"/>
<path d="M25.2577 39.3496C24.5139 39.4446 24.334 39.9315 24.334 40.5906C24.346 42.4611 24.334 44.3315 24.34 46.2019C24.34 47.152 24.6279 47.431 25.5876 47.437C27.477 47.4489 29.3664 47.4489 31.2558 47.437C32.2155 47.437 32.4974 47.152 32.5034 46.2019C32.5154 44.3315 32.5154 42.4611 32.5034 40.5906C32.5034 39.6406 32.2155 39.3615 31.2558 39.3555C29.2824 39.3437 27.309 39.3555 25.3357 39.3555" stroke="#1D1D1B" stroke-linecap="round" stroke-linejoin="round"/>
<path d="M25.2577 22.5039C24.5139 22.5989 24.334 23.0858 24.334 23.7449C24.346 25.6153 24.334 27.4858 24.34 29.3562C24.34 30.3063 24.6279 30.5853 25.5876 30.5913C27.477 30.6032 29.3664 30.6032 31.2558 30.5913C32.2155 30.5913 32.4974 30.3063 32.5034 29.3562C32.5154 27.4858 32.5154 25.6153 32.5034 23.7449C32.5034 22.7949 32.2155 22.5158 31.2558 22.5098C29.2824 22.498 27.309 22.5098 25.3357 22.5098" stroke="#1D1D1B" stroke-linecap="round" stroke-linejoin="round"/>
<path d="M42.2753 22.5039C41.5315 22.5989 41.3516 23.0858 41.3516 23.7449C41.3636 25.6153 41.3516 27.4858 41.3576 29.3562C41.3576 30.3063 41.6455 30.5853 42.6052 30.5913C44.4946 30.6032 46.384 30.6032 48.2734 30.5913C49.2331 30.5913 49.515 30.3063 49.521 29.3562C49.533 27.4858 49.533 25.6153 49.521 23.7449C49.521 22.7949 49.2331 22.5158 48.2734 22.5098C46.3 22.498 44.3266 22.5098 42.3532 22.5098" stroke="#1D1D1B" stroke-linecap="round" stroke-linejoin="round"/>
<path d="M42.2753 39.3496C41.5315 39.4446 41.3516 39.9315 41.3516 40.5906C41.3636 42.4611 41.3516 44.3315 41.3576 46.2019C41.3576 47.152 41.6455 47.431 42.6052 47.437C44.4946 47.4489 46.384 47.4489 48.2734 47.437C49.2331 47.437 49.515 47.152 49.521 46.2019C49.533 44.3315 49.533 42.4611 49.521 40.5906C49.521 39.6406 49.2331 39.3615 48.2734 39.3555C46.3 39.3437 44.3266 39.3555 42.3532 39.3555" stroke="#1D1D1B" stroke-linecap="round" stroke-linejoin="round"/>
<path d="M8.24793 22.5039C7.50416 22.5989 7.32422 23.0858 7.32422 23.7449C7.33621 25.6153 7.32422 27.4858 7.33022 29.3562C7.33022 30.3063 7.61813 30.5853 8.57782 30.5913C10.4672 30.6032 12.3566 30.6032 14.246 30.5913C15.2057 30.5913 15.4876 30.3063 15.4936 29.3562C15.5056 27.4858 15.5056 25.6153 15.4936 23.7449C15.4936 22.7949 15.2057 22.5158 14.246 22.5098C12.2727 22.498 10.2993 22.5098 8.3259 22.5098" stroke="#1D1D1B" stroke-linecap="round" stroke-linejoin="round"/>
<path d="M8.24793 39.3496C7.50416 39.4446 7.32422 39.9315 7.32422 40.5906C7.33621 42.4611 7.32422 44.3315 7.33022 46.2019C7.33022 47.152 7.61813 47.431 8.57782 47.437C10.4672 47.4489 12.3566 47.4489 14.246 47.437C15.2057 47.437 15.4876 47.152 15.4936 46.2019C15.5056 44.3315 15.5056 42.4611 15.4936 40.5906C15.4936 39.6406 15.2057 39.3615 14.246 39.3555C12.2727 39.3437 10.2993 39.3555 8.3259 39.3555" stroke="#1D1D1B" stroke-linecap="round" stroke-linejoin="round"/>
<path d="M13.1649 5.66454C9.63202 5.66454 6.10513 5.69423 2.57225 5.65267C1.00075 5.63485 0.310963 6.35333 0.310963 7.89718C0.322959 23.0625 0.334955 38.2219 0.292969 53.3872C0.292969 55.0973 1.41461 55.7207 2.65022 55.7029C19.6069 55.507 36.5635 55.6673 53.5202 55.6139C53.91 55.6139 54.2999 55.6554 54.6898 55.6495C55.7874 55.6317 56.5012 55.0379 56.6032 54.0403C56.6452 53.6306 56.6872 53.215 56.6872 52.7993C56.6872 37.9368 56.6872 23.0803 56.6872 8.21782C56.6872 7.65373 56.7112 7.054 56.4172 6.57897C55.9854 5.88424 55.2716 5.64673 54.4319 5.65267C50.845 5.67642 47.2581 5.66454 43.6713 5.66454" stroke="#1D1D1B" stroke-linecap="round" stroke-linejoin="round"/>
</g>
<defs>
<clipPath id="clip0_4039_28572">
<rect width="57" height="56" fill="white"/>
</clipPath>
</defs>
</svg>
