<svg width="48" height="48" viewBox="0 0 48 48" fill="none" xmlns="http://www.w3.org/2000/svg">
<path d="M47.2392 40.1475C44.5532 46.5921 38.246 47.7233 36.1908 47.7233C35.5872 47.7233 26.1645 48.2236 12.6257 35.3779C1.72951 25.0394 0.397384 13.9231 0.283202 11.8076C0.16902 9.75182 0.76168 4.5907 7.85728 0.756579C8.73812 0.283431 10.478 0.0713306 10.9293 0.522724C11.1305 0.723948 17.0897 10.5295 17.242 10.8558C17.3996 11.1821 17.4758 11.4976 17.4758 11.813C17.4758 12.259 17.155 12.8191 16.5188 13.4935C15.8827 14.1679 15.1867 14.7824 14.4363 15.3426C13.686 15.9027 12.99 16.4955 12.3539 17.121C11.7177 17.7464 11.3969 18.263 11.3969 18.6655C11.4404 19.7097 12.2995 23.4568 18.8242 29.1944C25.3543 34.932 28.4971 36.5472 28.8016 36.6614C29.106 36.7756 29.3562 36.83 29.5573 36.83C29.9597 36.83 30.4762 36.5091 31.1015 35.8728C31.7268 35.2365 33.8364 32.3433 34.5052 31.7069C35.1794 31.0706 35.7395 30.7498 36.1853 30.7498C36.5007 30.7498 36.816 30.8259 37.1423 30.9836C37.4685 31.1413 47.2827 36.8844 47.473 37.0802C47.9841 37.6023 47.6199 39.2338 47.2392 40.1529" stroke="#1D1D1B" stroke-miterlimit="10"/>
</svg>
