<?xml version="1.0" encoding="utf-8"?>
<!-- Generator: Adobe Illustrator 27.5.0, SVG Export Plug-In . SVG Version: 6.00 Build 0)  -->
<svg version="1.1" id="Ebene_1" xmlns="http://www.w3.org/2000/svg" xmlns:xlink="http://www.w3.org/1999/xlink" x="0px" y="0px"
	 viewBox="0 0 70 70.4" style="enable-background:new 0 0 70 70.4;" xml:space="preserve">
<style type="text/css">
	.st0{fill:#F9F9F9;}
	.st1{fill:#1F212B;}
	.st2{fill:#DDDDDD;}
</style>
<path class="st0" d="M67.8,32.2c-1.2,0.6-2.6,1-4,1c-3.2,0-5.9-1.6-7.1-3.9c-1.5,0.6-3.1,0.9-4.8,0.9c-7.1,0-12.9-5.8-12.9-12.9
	c0-1.7,0.3-3.3,0.9-4.8c0-0.1,0-0.2,0-0.3c-2.3-0.8-4-3.3-4-6.2c0-1.4,0.4-2.6,1-3.7c-0.7,0-1.3-0.1-2-0.1C16.8,2.2,2,17,2,35.2
	s14.8,33,33,33s33-14.8,33-33C68,34.2,67.9,33.2,67.8,32.2z"/>
<path class="st1" d="M35,69.2c-18.7,0-34-15.3-34-34s15.3-34,34-34c0.7,0,1.4,0,2.1,0.1c0.3,0,0.7,0.2,0.8,0.5c0.2,0.3,0.2,0.7,0,1
	C37.3,3.7,37,4.8,37,6c0,2.4,1.4,4.6,3.3,5.3c0.4,0.2,0.7,0.6,0.7,1.1l0,0.3c0,0.1,0,0.2-0.1,0.3c-0.6,1.4-0.9,2.9-0.9,4.4
	c0,6.5,5.3,11.9,11.9,11.9c1.5,0,3-0.3,4.4-0.9c0.5-0.2,1,0,1.3,0.5c1.5,3,6,4.4,9.8,2.5c0.3-0.1,0.6-0.1,0.9,0
	c0.3,0.2,0.5,0.5,0.5,0.8c0.1,1.1,0.2,2.2,0.2,3.1C69,54,53.7,69.2,35,69.2z M35,3.2c-17.6,0-32,14.4-32,32s14.4,32,32,32
	s32-14.4,32-32c0-0.5,0-1,0-1.5c-4.1,1.4-8.6-0.1-10.7-3.2c-1.4,0.5-2.9,0.7-4.4,0.7C44.2,31.2,38,25,38,17.3c0-1.6,0.3-3.1,0.8-4.6
	C36.5,11.5,35,8.9,35,6c0-0.9,0.2-1.9,0.5-2.7C35.3,3.2,35.2,3.2,35,3.2z"/>
<path class="st2" d="M56,1.7c-1.9,0-3.5,1.6-3.5,3.5s1.6,3.5,3.5,3.5s3.5-1.6,3.5-3.5S57.9,1.7,56,1.7z M66.5,18.7c-1.1,0-2,0.9-2,2
	s0.9,2,2,2s2-0.9,2-2S67.6,18.7,66.5,18.7z M53,13.7c-1.4,0-2.5,1.1-2.5,2.5c0,1.4,1.1,2.5,2.5,2.5s2.5-1.1,2.5-2.5
	C55.5,14.8,54.4,13.7,53,13.7z M28,18.7c-1.4,0-2.5,1.1-2.5,2.5s1.1,2.5,2.5,2.5s2.5-1.1,2.5-2.5S29.4,18.7,28,18.7z M33,33.7
	c-1.4,0-2.5,1.1-2.5,2.5s1.1,2.5,2.5,2.5s2.5-1.1,2.5-2.5S34.4,33.7,33,33.7z M21,44.7c-1.9,0-3.5,1.6-3.5,3.5
	c0,1.9,1.6,3.5,3.5,3.5s3.5-1.6,3.5-3.5C24.5,46.3,22.9,44.7,21,44.7z M43,44.7c-2.5,0-4.5,2-4.5,4.5s2,4.5,4.5,4.5s4.5-2,4.5-4.5
	S45.5,44.7,43,44.7z M17.5,26.7c-2.8,0-5,2.2-5,5s2.2,5,5,5s5-2.2,5-5S20.3,26.7,17.5,26.7z"/>
<g>
	<path class="st1" d="M56,9.2c-2.2,0-4-1.8-4-4s1.8-4,4-4s4,1.8,4,4S58.2,9.2,56,9.2z M56,2.2c-1.7,0-3,1.3-3,3s1.3,3,3,3s3-1.3,3-3
		S57.7,2.2,56,2.2z M66.5,23.2c-1.4,0-2.5-1.1-2.5-2.5s1.1-2.5,2.5-2.5s2.5,1.1,2.5,2.5S67.9,23.2,66.5,23.2z M66.5,19.2
		c-0.8,0-1.5,0.7-1.5,1.5s0.7,1.5,1.5,1.5s1.5-0.7,1.5-1.5S67.3,19.2,66.5,19.2z M53,19.2c-1.7,0-3-1.3-3-3s1.3-3,3-3s3,1.3,3,3
		S54.7,19.2,53,19.2z M53,14.2c-1.1,0-2,0.9-2,2s0.9,2,2,2s2-0.9,2-2S54.1,14.2,53,14.2z M28,24.2c-1.7,0-3-1.3-3-3s1.3-3,3-3
		s3,1.3,3,3S29.7,24.2,28,24.2z M28,19.2c-1.1,0-2,0.9-2,2s0.9,2,2,2s2-0.9,2-2S29.1,19.2,28,19.2z M33,39.2c-1.7,0-3-1.3-3-3
		s1.3-3,3-3s3,1.3,3,3S34.7,39.2,33,39.2z M33,34.2c-1.1,0-2,0.9-2,2s0.9,2,2,2s2-0.9,2-2S34.1,34.2,33,34.2z M21,52.2
		c-2.2,0-4-1.8-4-4s1.8-4,4-4s4,1.8,4,4S23.2,52.2,21,52.2z M21,45.2c-1.7,0-3,1.3-3,3s1.3,3,3,3s3-1.3,3-3S22.7,45.2,21,45.2z
		 M43,54.2c-2.8,0-5-2.2-5-5s2.2-5,5-5s5,2.2,5,5C48,52,45.8,54.2,43,54.2z M43,45.2c-2.2,0-4,1.8-4,4s1.8,4,4,4s4-1.8,4-4
		S45.2,45.2,43,45.2z M17.5,37.2c-3,0-5.5-2.5-5.5-5.5s2.5-5.5,5.5-5.5s5.5,2.5,5.5,5.5S20.5,37.2,17.5,37.2z M17.5,27.2
		c-2.5,0-4.5,2-4.5,4.5s2,4.5,4.5,4.5s4.5-2,4.5-4.5S20,27.2,17.5,27.2z"/>
</g>
<g>
	<path class="st1" d="M58.9,51.2c-0.1,0-0.2,0-0.3-0.1c-0.2-0.2-0.3-0.5-0.1-0.7c1-1.6,1.9-3.2,2.6-4.9c0.1-0.3,0.4-0.4,0.6-0.3
		s0.4,0.4,0.3,0.6c-0.7,1.7-1.6,3.4-2.6,5.1C59.2,51.1,59,51.2,58.9,51.2z M35,64.2c-0.3,0-0.5-0.2-0.5-0.5s0.2-0.5,0.5-0.5
		c8.2,0,15.9-3.6,21.2-9.8c0.2-0.2,0.5-0.2,0.7-0.1c0.2,0.2,0.2,0.5,0.1,0.7C51.5,60.5,43.5,64.2,35,64.2z M62.5,43.2
		c0,0-0.1,0-0.1,0c-0.3-0.1-0.4-0.3-0.4-0.6c0.3-1,0.5-2,0.6-2.9c0-0.3,0.3-0.5,0.6-0.4c0.3,0,0.5,0.3,0.4,0.6c-0.2,1-0.4,2-0.7,3.1
		C62.9,43.1,62.7,43.2,62.5,43.2z"/>
</g>
</svg>
