<svg width="64" height="65" viewBox="0 0 64 65" fill="none" xmlns="http://www.w3.org/2000/svg">
<path d="M54.6673 5.83398H9.33398C8.27312 5.83398 7.2557 6.25541 6.50556 7.00556C5.75541 7.7557 5.33398 8.77312 5.33398 9.83398V55.1673C5.33398 56.2282 5.75541 57.2456 6.50556 57.9957C7.2557 58.7459 8.27312 59.1673 9.33398 59.1673H54.6673C55.7282 59.1673 56.7456 58.7459 57.4957 57.9957C58.2459 57.2456 58.6673 56.2282 58.6673 55.1673V9.83398C58.6673 8.77312 58.2459 7.7557 57.4957 7.00556C56.7456 6.25541 55.7282 5.83398 54.6673 5.83398V5.83398Z" stroke="#141414" stroke-linecap="round" stroke-linejoin="round"/>
<path d="M45.3333 5.83398V29.834H20V5.83398H45.3333Z" stroke="#141414" stroke-linecap="round" stroke-linejoin="round"/>
<path d="M38.666 15.166V20.4993" stroke="#141414" stroke-linecap="round" stroke-linejoin="round"/>
<path d="M15.9941 5.83398H49.3328" stroke="#141414" stroke-linecap="round" stroke-linejoin="round"/>
</svg>
