<?xml version="1.0" encoding="utf-8"?>
<!-- Generator: Adobe Illustrator 27.5.0, SVG Export Plug-In . SVG Version: 6.00 Build 0)  -->
<svg version="1.1" id="Ebene_1" xmlns="http://www.w3.org/2000/svg" xmlns:xlink="http://www.w3.org/1999/xlink" x="0px" y="0px"
	 viewBox="0 0 56 56" style="enable-background:new 0 0 56 56;" xml:space="preserve">
<style type="text/css">
	.st0{fill:#141414;}
</style>
<path class="st0" d="M51.8,10.4C51.8,10.4,51.8,10.4,51.8,10.4c0-0.1,0-0.2-0.1-0.2c0,0,0,0,0-0.1c0,0,0,0,0,0c0,0,0,0-0.1-0.1
	c0,0,0,0-0.1-0.1c0,0-0.1,0-0.1,0c0,0-0.1,0-0.1,0c0,0,0,0,0,0H28h0H4.7c0,0,0,0,0,0c0,0-0.1,0-0.1,0c0,0-0.1,0-0.1,0c0,0,0,0-0.1,0
	c0,0-0.1,0-0.1,0.1c0,0,0,0,0,0c0,0,0,0,0,0.1c0,0,0,0.1,0,0.1c0,0,0,0.1,0,0.1c0,0,0,0,0,0.1V28v17.5c0,0.3,0.2,0.5,0.5,0.5h46.7
	c0.3,0,0.5-0.2,0.5-0.5V28L51.8,10.4C51.8,10.5,51.8,10.5,51.8,10.4z M28,11L28,11h21.8L28,27.4L6.2,11H28z M50.8,45H5.2V28V11.5
	l22.5,16.9c0.1,0.1,0.2,0.1,0.3,0.1s0.2,0,0.3-0.1l22.5-16.9V28V45z"/>
</svg>
