<?xml version="1.0" encoding="utf-8"?>
<!-- Generator: Adobe Illustrator 27.5.0, SVG Export Plug-In . SVG Version: 6.00 Build 0)  -->
<svg version="1.1" id="Ebene_1" xmlns="http://www.w3.org/2000/svg" xmlns:xlink="http://www.w3.org/1999/xlink" x="0px" y="0px"
	 viewBox="0 0 266.9 38" style="enable-background:new 0 0 266.9 38;" xml:space="preserve">
<style type="text/css">
	.st0{fill-rule:evenodd;clip-rule:evenodd;fill:#141414;}
	.st1{fill-rule:evenodd;clip-rule:evenodd;fill:#333332;}
	.st2{fill-rule:evenodd;clip-rule:evenodd;fill:#6E6E6A;}
	.st3{fill-rule:evenodd;clip-rule:evenodd;fill:#474745;}
	.st4{fill:#141414;}
	.st5{fill-rule:evenodd;clip-rule:evenodd;fill:#FFFFFF;}
	.st6{fill-rule:evenodd;clip-rule:evenodd;fill:#5A5A58;}
	.st7{fill-rule:evenodd;clip-rule:evenodd;fill:#82827D;}
	.st8{fill-rule:evenodd;clip-rule:evenodd;fill:#17120F;}
	.st9{fill:#333332;}
</style>
<g>
	<path class="st0" d="M8.9,22.9H7l-1.5-5.6c-0.1-0.3-0.2-0.5-0.4-0.6c-0.5-0.3-1.1-0.5-1.8-0.6V16h3.1c0.4,0,0.7,0.3,0.8,0.7l0.7,4
		L9.8,16h1.9L8.9,22.9z M12.8,22.9H11l1.5-7h1.8L12.8,22.9z M16.6,17.9c0.1-0.4,0.4-0.6,0.7-0.6c0.6-0.1,1.2,0.1,1.8,0.3l0.3-1.5
		c-0.5-0.2-1.1-0.3-1.7-0.3c-1.8,0-3,1-3,2.3c0,1,0.9,1.6,1.5,1.9c0.7,0.3,1,0.5,0.9,0.9c0,0.5-0.5,0.7-1.1,0.7
		c-0.6,0-1.3-0.2-1.9-0.4l-0.3,1.5c0.6,0.3,1.3,0.4,2,0.4c2,0.1,3.2-0.9,3.2-2.4C19.1,18.8,16.6,18.7,16.6,17.9z M25.5,22.9l-1.4-7
		h-1.6c-0.3,0-0.6,0.2-0.7,0.5l-2.7,6.4H21l0.4-1h2.3l0.2,1h1.6V22.9z M22.8,17.8l0.5,2.6h-1.5L22.8,17.8z"/>
	<path class="st1" d="M54.9,23.9c-1.1,0.9-2.5,1.5-4,1.5c-3.4,0-6.2-2.8-6.2-6.3s2.8-6.3,6.2-6.3c1.5,0,2.9,0.6,4,1.5
		c1.1-0.9,2.5-1.5,4-1.5c3.4,0,6.2,2.8,6.2,6.3s-2.8,6.3-6.2,6.3C57.4,25.4,56,24.9,54.9,23.9z"/>
	<path class="st2" d="M54.9,23.9c1.3-1.2,2.2-2.9,2.2-4.8s-0.8-3.7-2.2-4.8c1.1-0.9,2.5-1.5,4-1.5c3.4,0,6.2,2.8,6.2,6.3
		s-2.8,6.3-6.2,6.3C57.4,25.4,56,24.9,54.9,23.9z"/>
	<path class="st3" d="M54.9,23.9c1.3-1.2,2.2-2.9,2.2-4.8s-0.8-3.7-2.2-4.8c-1.3,1.2-2.2,2.9-2.2,4.8S53.6,22.8,54.9,23.9z"/>
	<rect x="78.6" y="8" class="st4" width="31.7" height="22"/>
	<path class="st5" d="M84.3,15.8l-3,6.6h3.5l0.4-1.1h1l0.4,1.1h3.9v-0.8l0.3,0.8h2l0.3-0.8v0.8h8.1l1-1l0.9,1h4.2l-3-3.3l3-3.3h-3.8
		l-1,1l-0.9-1h-8.8L92,17.5l-0.8-1.7h-3.5v0.8l-0.4-0.8H84.3z M85,16.7h1.7l2,4.5v-4.5h1.9l1.5,3.2l1.4-3.2h1.9v4.8h-1.1v-3.7
		l-1.8,3.7h-1l-1.7-3.7v3.7h-2.3l-0.4-1.1h-2.4l-0.4,1.1H83L85,16.7z M101.1,16.7h-4.7v4.8h4.6l1.5-1.6l1.4,1.6h1.5l-2.2-2.4
		l2.2-2.4H104l-1.5,1.6L101.1,16.7z M85.8,17.5L85,19.4h1.6L85.8,17.5z M97.6,18.6v-0.9l0,0h2.9l1.3,1.4l-1.3,1.4h-2.9v-0.9h2.5v-1
		H97.6z"/>
	<path class="st6" d="M131.5,24.9l0.2-1.3h-0.4h-2.1l1.5-9.8v-0.1h0.1h3.6c1.2,0,2,0.3,2.4,0.8c0.2,0.2,0.3,0.5,0.4,0.8
		c0.1,0.3,0.1,0.6,0,1.1l0,0v0.3l0.2,0.1c0.2,0.1,0.3,0.2,0.4,0.3c0.2,0.2,0.3,0.5,0.3,0.8s0,0.7,0,1.1c-0.1,0.5-0.2,0.9-0.4,1.3
		c-0.2,0.3-0.4,0.6-0.7,0.8c-0.3,0.2-0.6,0.3-0.9,0.4c-0.3,0.1-0.7,0.1-1.2,0.1h-0.4c-0.2,0-0.4,0.1-0.5,0.2
		c-0.2,0.1-0.3,0.3-0.3,0.5v0.1l-0.4,2.3v0.1l0,0l0,0h-1.8V24.9z"/>
	<path class="st7" d="M137.6,16.3c0,0.1,0,0.1,0,0.2c-0.5,2.5-2.1,3.4-4.2,3.4h-1.1c-0.3,0-0.5,0.2-0.5,0.5l-0.7,4.6
		c0,0.2,0.1,0.3,0.3,0.3h1.9c0.2,0,0.4-0.2,0.4-0.4v-0.1l0.4-2.3v-0.1c0-0.2,0.2-0.4,0.4-0.4h0.3c1.8,0,3.2-0.8,3.6-3
		c0.2-0.9,0.1-1.7-0.4-2.2C137.9,16.6,137.8,16.4,137.6,16.3z"/>
	<path class="st3" d="M137.1,16.1c-0.1,0-0.1,0-0.2-0.1c-0.1,0-0.2,0-0.2,0c-0.3,0-0.6-0.1-0.9-0.1H133c-0.1,0-0.1,0-0.2,0
		c-0.1,0.1-0.2,0.2-0.2,0.4l-0.6,4v0.1c0-0.3,0.3-0.5,0.5-0.5h1.1c2.1,0,3.7-0.9,4.2-3.4c0-0.1,0-0.1,0-0.2
		c-0.1-0.1-0.2-0.1-0.4-0.2C137.1,16.1,137.1,16.1,137.1,16.1z"/>
	<path class="st6" d="M132.4,16.3c0-0.2,0.1-0.3,0.2-0.4c0.1,0,0.1,0,0.2,0h2.8c0.3,0,0.6,0,0.9,0.1c0.1,0,0.2,0,0.2,0
		c0.1,0,0.2,0,0.2,0.1h0.1c0.1,0,0.3,0.1,0.4,0.2c0.1-0.9,0-1.6-0.5-2.2c-0.5-0.6-1.5-0.9-2.7-0.9h-3.6c-0.3,0-0.5,0.2-0.5,0.5
		l-1.5,9.9c0,0.2,0.1,0.4,0.3,0.4h2.2L132.4,16.3z"/>
	<path class="st8" d="M162,22.1h-1.3v-5.8h1.3V22.1z M165.2,16.2h-1.3c0,1.1-0.5,2.1-1.3,2.7l-0.5,0.4L164,22h1.6l-1.8-2.5
		C164.7,18.7,165.2,17.5,165.2,16.2z M167.3,22.1h-1.2v-5.8h1.2V22.1z M170.9,18.1v0.3c-0.3-0.2-0.7-0.4-1.2-0.4
		c-1.1,0-2.1,1-2.1,2.1c0,1.2,0.9,2.1,2.1,2.1c0.4,0,0.8-0.1,1.2-0.4v0.3h1.2v-4H170.9z M170.9,20.1c0,0.6-0.5,1-1.1,1
		s-1.1-0.5-1.1-1c0-0.6,0.5-1,1.1-1S170.9,19.5,170.9,20.1z M183.2,18.3V18h1.2v4h-1.2v-0.3c-0.3,0.2-0.7,0.4-1.2,0.4
		c-1.1,0-2-1-2-2.1c0-1.2,0.9-2.1,2-2.1C182.5,17.9,182.9,18.1,183.2,18.3z M182.2,21.1c0.6,0,1.1-0.5,1.1-1c0-0.6-0.5-1-1.1-1
		s-1.1,0.5-1.1,1C181.1,20.6,181.6,21.1,182.2,21.1z M184.9,21.4c0-0.4,0.3-0.8,0.7-0.8s0.7,0.3,0.7,0.8c0,0.4-0.3,0.8-0.7,0.8
		S184.9,21.8,184.9,21.4z M177.9,17.9c-0.5,0-0.9,0.2-1.2,0.6V18h-1.2v4h1.2v-2c0-0.6,0.4-0.9,0.9-0.9s0.8,0.3,0.8,0.9v2.1h1.2v-2.6
		C179.6,18.6,178.9,17.9,177.9,17.9z M173.9,18.1v0.5c0.2-0.3,0.7-0.5,1.1-0.5v1.2l0,0l0,0c-0.5,0-1.1,0.3-1.1,1v1.9h-1.2v-4h1.2
		V18.1z"/>
	<rect x="196.8" y="8" class="st9" width="31.7" height="22"/>
	<path class="st5" d="M215.2,16.6l0.9-4.4c0.1-0.5-0.2-1-0.7-1.1s-1.1,0.2-1.2,0.7l-0.8,2.8l-0.6-2.7c0-0.3-0.2-0.5-0.4-0.6
		s-0.5-0.2-0.7-0.1c-0.5,0.1-0.8,0.7-0.7,1.2l0.4,3.1c-0.3-0.3-0.7-0.4-1.1-0.2h-0.1c-0.4,0.3-0.5,0.8-0.2,1.3
		c-0.2,0-0.4,0.1-0.6,0.3l0,0c-0.4,0.4-0.3,1,0.2,1.5l0.4,0.4c0,1.7,1.4,2.9,3.1,2.9c0,0,0,0,0.1,0c2.2,0,3.2-1.4,3.4-3.4
		c0.1-0.6-0.1-1.1-0.3-1.3c-0.1-0.1-0.3-0.2-0.4-0.2L215.2,16.6z M214.8,16.6l0.9-4.4c0.1-0.3-0.1-0.6-0.4-0.7
		c-0.3-0.1-0.6,0.1-0.7,0.4l-1,3.5c0,0.1-0.1,0.2-0.3,0.1c-0.1,0-0.1-0.1-0.1-0.2l-0.8-3.5c0-0.1-0.1-0.3-0.2-0.4
		c-0.1-0.1-0.3-0.1-0.4-0.1c-0.3,0.1-0.5,0.4-0.4,0.7l0,0l0.5,3.8l0.3,0.4c0.1-0.2,0.3-0.3,0.5-0.3s0.4,0,0.5,0h0.1l0,0L214.8,16.6z
		 M211.9,17l-0.4-0.7c0,0,0,0,0-0.1l-0.2-0.3c-0.3-0.4-0.5-0.5-0.8-0.3l0,0c-0.2,0.2-0.3,0.6,0,0.9l0.9,1.3c0.2,0.2,0.5,0.3,0.7,0.1
		l0,0c0.1,0,0.1-0.1,0.2-0.2C211.9,17.6,211.8,17.3,211.9,17z M212.5,17.6l-0.1-0.1c-0.2-0.2-0.2-0.4-0.1-0.6
		c0.1-0.2,0.2-0.3,0.4-0.3c0.1,0,0.3,0,0.4,0l0,0l0,0l2.4,0.6l0,0c0,0,0.1,0,0.1,0.1c0.2,0.2,0.2,0.5,0.2,1c-0.2,1.9-1,3-3.1,3l0,0
		c-1.2,0-2.3-0.9-2.5-2.1l0.3,0.3c0.4,0.4,0.9,0.3,1.3,0l0,0c0.3-0.3,0.3-0.7,0.1-1.1h0.1l0,0c0.1-0.1,0.2-0.2,0.3-0.3
		c0.1,0.1,0.3,0.1,0.5,0.2l0.6,0.1c-0.4,0.2-0.7,0.7-0.7,1.4c0,0.1,0.1,0.2,0.2,0.2c0.1,0,0.2-0.1,0.2-0.2c0-0.6,0.3-0.9,0.6-1.1
		c0.2-0.1,0.4-0.1,0.6-0.1l0,0c0.3,0,0.3-0.3,0.1-0.4l-1.6-0.4C212.8,17.8,212.6,17.7,212.5,17.6z M209.6,17.2
		c0.2-0.2,0.4-0.2,0.6-0.1l0.7,1c0.2,0.3,0.5,0.4,0.8,0.4c0.2,0.2,0.2,0.5,0,0.7l0,0c-0.2,0.2-0.5,0.2-0.7,0l-1.1-1.1
		C209.4,17.8,209.4,17.4,209.6,17.2L209.6,17.2z M208.1,25.6c0,0.6-0.5,1.1-1.1,1.1c-0.4,0-0.8-0.2-1.1-0.5l0.4-0.4
		c0.1,0.2,0.3,0.4,0.6,0.4s0.5-0.2,0.5-0.4c0-0.3-0.2-0.3-0.6-0.4c-0.6-0.2-0.9-0.5-0.9-0.9c0-0.5,0.4-1,1-1c0.4,0,0.8,0.2,0.9,0.6
		l-0.5,0.3c-0.1-0.2-0.2-0.3-0.4-0.3s-0.4,0.2-0.4,0.3c0,0.2,0.2,0.3,0.5,0.4C207.7,24.7,208.1,25,208.1,25.6z M208.3,25.4
		c0,0.7,0.5,1.2,1.2,1.2s1.2-0.5,1.2-1.2s-0.5-1.2-1.2-1.2C208.9,24.2,208.3,24.8,208.3,25.4z M209.5,26c0.3,0,0.6-0.3,0.6-0.6
		c0-0.3-0.3-0.6-0.6-0.6s-0.6,0.3-0.6,0.6C209,25.8,209.2,26,209.5,26z M212.4,23.2v0.6c-0.4,0-0.6,0.2-0.6,0.6v0.2
		c0.1-0.2,0.3-0.2,0.6-0.2V25c-0.4,0-0.6,0.2-0.6,0.6v1h-0.6v-2.2C211.1,23.8,211.5,23.2,212.4,23.2L212.4,23.2z M213.8,26.6
		c-0.7,0-1.2-0.5-1.2-1.2s0.5-1.2,1.2-1.2s1.2,0.5,1.2,1.2S214.4,26.6,213.8,26.6z M214.3,25.4c0,0.3-0.3,0.6-0.6,0.6
		s-0.6-0.3-0.6-0.6c0-0.3,0.3-0.6,0.6-0.6C214.1,24.8,214.3,25.1,214.3,25.4z M215.9,24.5v-0.3h-0.6v2.3h0.6v-1.1
		c0-0.4,0.2-0.6,0.6-0.6v-0.7C216.3,24.2,216.1,24.3,215.9,24.5z M217.6,24.8v0.6c0,0.4,0.3,0.6,0.6,0.6v0.6h-0.1
		c-0.8,0-1.2-0.5-1.2-1.1v-1.9h0.6V24c0,0.3,0.3,0.5,0.6,0.6v0.6C217.9,25.1,217.7,25,217.6,24.8z M219,26.6c0.2,0,0.4-0.2,0.4-0.4
		c0-0.2-0.2-0.4-0.4-0.4s-0.4,0.2-0.4,0.4C218.5,26.4,218.7,26.6,219,26.6z"/>
	<path class="st1" d="M254.5,18.5h1c0.3,0,0.5,0,0.6-0.1s0.2-0.2,0.2-0.3c0-0.1,0-0.3,0-0.5c0-0.3,0-0.5-0.1-0.6
		c-0.1-0.2-0.2-0.3-0.4-0.3c0,0-0.2,0-0.3,0h-1V18.5z M252.8,21.6v-6.3h3.1c0.4,0,0.8,0,1,0.1c0.5,0.2,0.9,0.5,1,1
		c0.1,0.3,0.1,0.7,0.1,1.2c0,0.6-0.1,1.1-0.1,1.4c-0.2,0.6-0.6,0.9-1.2,0.9c-0.1,0-0.4,0-0.9,0h-0.3h-1v1.6L252.8,21.6L252.8,21.6z
		 M244.4,17.3h1.5c0-0.1,0-0.2,0-0.3c0-0.8-0.3-1.4-1-1.5c-0.3-0.1-0.7-0.1-1.4-0.1c-0.4,0-0.8,0-1.1,0c-0.4,0-0.7,0.1-1,0.3
		c-0.2,0.1-0.3,0.3-0.4,0.5c-0.1,0.2-0.1,0.6-0.1,0.9c0,0.5,0.1,0.9,0.2,1.2c0.2,0.3,0.5,0.5,1,0.6c0.2,0,0.5,0.1,1,0.1
		c0.6,0,1,0.1,1,0.1c0.2,0.1,0.3,0.2,0.3,0.5c0,0.1,0,0.2,0,0.3c0,0.1-0.1,0.2-0.3,0.3c-0.1,0-0.3,0-0.6,0h-0.6
		c-0.2,0-0.3,0-0.4-0.1c-0.2-0.1-0.2-0.3-0.2-0.5v-0.1h-1.5c0,0.5,0,0.9,0.1,1.1c0.1,0.4,0.4,0.7,0.8,0.8c0.3,0.1,0.9,0.2,1.8,0.2
		c0.5,0,0.9,0,1.2-0.1c0.6-0.1,1-0.4,1.2-0.8c0.1-0.2,0.1-0.6,0.1-1.1c0-0.2,0-0.4,0-0.6c0-0.3-0.1-0.5-0.3-0.7s-0.6-0.4-1.2-0.4
		c-0.2,0-0.6,0-1.3-0.1h-0.3c-0.1,0-0.2,0-0.3-0.1s-0.2-0.2-0.2-0.5s0.1-0.4,0.2-0.5c0.1-0.1,0.4-0.1,0.8-0.1c0.4,0,0.7,0.1,0.8,0.2
		C244.4,16.9,244.4,17.1,244.4,17.3z M241,22.8h0.2c0,0.1,0,0.1,0.1,0.2c0,0,0.1,0.1,0.2,0.1c0.1,0,0.1,0,0.2,0l0.1-0.1v-0.1
		c0,0,0,0-0.1-0.1c0,0-0.1,0-0.2-0.1c-0.1,0-0.2-0.1-0.3-0.1c-0.1-0.1-0.1-0.1-0.1-0.2s0-0.1,0.1-0.2c0-0.1,0.1-0.1,0.1-0.1
		c0.1,0,0.1,0,0.2,0c0.1,0,0.3,0,0.3,0.1c0.1,0.1,0.1,0.2,0.1,0.3h-0.2c0-0.1,0-0.1-0.1-0.1c0,0-0.1,0-0.2,0c-0.1,0-0.1,0-0.2,0
		c0,0,0,0,0,0.1v0.1c0,0,0.1,0.1,0.2,0.1c0.1,0,0.2,0.1,0.3,0.1s0.1,0.1,0.1,0.1c0,0.1,0,0.1,0,0.2s0,0.1-0.1,0.2
		c0,0.1-0.1,0.1-0.2,0.1s-0.2,0-0.3,0s-0.3,0-0.3-0.1C241,23.1,241,23,241,22.8z M242.2,22.4h0.2v0.9h-0.2V22.4z M242.2,22h0.2v0.2
		h-0.2V22z M243.2,23.2h0.2v-0.5c0-0.1,0-0.1,0-0.2v-0.1l-0.1-0.1h-0.1c-0.1,0-0.2,0-0.3,0.1v-0.1h-0.2v0.9h0.2v-0.4
		c0-0.1,0-0.2,0-0.2s0-0.1,0.1-0.1h0.1h0.1c0,0,0,0,0,0.1c0,0,0,0.1,0,0.2V23.2z M243.9,22.8c0,0.1,0,0.2,0.1,0.2l0.1,0.1
		c0.1,0,0.1,0,0.1-0.1c0,0,0.1-0.1,0.1-0.2s0-0.2-0.1-0.2l-0.1-0.1c-0.1,0-0.1,0-0.1,0.1C243.9,22.6,243.9,22.7,243.9,22.8z
		 M243.7,23.3h0.3v0.1h0.1c0.1,0,0.1,0,0.1,0s0,0,0-0.1v-0.1v-0.1c-0.1,0.1-0.2,0.1-0.3,0.1s-0.2,0-0.3-0.1s-0.1-0.2-0.1-0.3
		c0-0.1,0-0.3,0.1-0.3c0.1-0.1,0.2-0.1,0.3-0.1s0.2,0,0.3,0.1v-0.1h0.2v0.8c0,0.1,0,0.2,0,0.2c0,0.1,0,0.1-0.1,0.1s-0.1,0.1-0.1,0.1
		c-0.1,0-0.1,0-0.2,0c-0.1,0-0.2,0-0.3-0.1C243.8,23.5,243.7,23.4,243.7,23.3L243.7,23.3z M245,22h-0.2v1.2h0.2V22z M245.8,22.7
		c0-0.1,0-0.1-0.1-0.2l-0.1-0.1c0,0-0.1,0-0.1,0.1c0,0,0,0.1,0,0.2H245.8z M245.8,23h0.2c0,0.1-0.1,0.1-0.1,0.2
		c-0.1,0-0.1,0.1-0.2,0.1c-0.1,0-0.3,0-0.3-0.1c-0.1-0.1-0.1-0.2-0.1-0.3c0-0.1,0-0.3,0.1-0.3c0.1-0.1,0.2-0.1,0.3-0.1
		s0.2,0,0.3,0.1s0.1,0.2,0.1,0.4h-0.6c0,0.1,0,0.1,0.1,0.2l0.1,0.1C245.7,23.1,245.7,23.1,245.8,23L245.8,23z M246.8,22v1.2h0.9V23
		H247v-0.3h0.6v-0.2H247v-0.3h0.6V22H246.8z M248.5,23.2v-0.1l-0.1,0.1c-0.1,0-0.1,0-0.2,0c-0.1,0-0.1,0-0.2,0l-0.1-0.1
		c0,0,0-0.1,0-0.2v-0.6h0.2v0.4c0,0.1,0,0.2,0,0.2s0,0,0,0.1c0,0,0,0,0.1,0h0.1c0,0,0.1,0,0.1-0.1c0,0,0-0.1,0-0.2v-0.4h0.2v0.9
		C248.6,23.2,248.5,23.2,248.5,23.2z M249,23.2h0.2V23c0-0.1,0-0.2,0-0.3c0,0,0-0.1,0.1-0.1c0,0,0,0,0.1,0h0.1l0.1-0.2
		c0,0-0.1,0-0.2,0h-0.1l-0.1,0.1v-0.1H249L249,23.2L249,23.2z M249.9,22.8c0,0.1,0,0.2,0.1,0.2l0.1,0.1c0.1,0,0.1,0,0.2-0.1
		c0,0,0.1-0.1,0.1-0.2s0-0.2-0.1-0.2c0,0-0.1-0.1-0.2-0.1c-0.1,0-0.1,0-0.1,0.1C249.9,22.7,249.9,22.7,249.9,22.8z M249.6,22.8
		c0-0.1,0-0.2,0.1-0.2c0-0.1,0.1-0.1,0.2-0.2c0.1,0,0.1-0.1,0.2-0.1c0.1,0,0.2,0,0.3,0.1c0.1,0.1,0.1,0.2,0.1,0.3
		c0,0.1,0,0.2-0.1,0.3c-0.1,0.1-0.2,0.1-0.3,0.1s-0.2,0-0.2-0.1C249.8,23,249.8,22.9,249.6,22.8C249.7,23,249.6,22.9,249.6,22.8z
		 M251.5,22.6v-0.3h0.1c0.1,0,0.1,0,0.2,0c0,0,0.1,0,0.1,0.1v0.1v0.1c0,0,0,0-0.1,0.1c0,0-0.1,0-0.2,0h-0.1V22.6z M251.3,22v1.2h0.2
		v-0.5h0.2c0.1,0,0.2,0,0.2,0s0.1,0,0.1-0.1l0.1-0.1c0-0.1,0-0.1,0-0.2s0-0.2-0.1-0.2c0-0.1-0.1-0.1-0.2-0.1c0,0-0.1,0-0.3,0
		C251.5,22,251.3,22,251.3,22z M252.9,22.8h-0.1c-0.1,0-0.1,0-0.1,0s0,0,0,0.1V23h0.1h0.1c0,0,0,0,0.1-0.1
		C252.9,23,252.9,22.9,252.9,22.8L252.9,22.8z M252.6,22.6h-0.2c0-0.1,0.1-0.1,0.1-0.2c0.1,0,0.1-0.1,0.3-0.1c0.1,0,0.2,0,0.2,0
		l0.1,0.1c0,0,0,0.1,0,0.2v0.3c0,0.1,0,0.1,0,0.2v0.1h-0.2c0,0,0,0,0-0.1l0,0l-0.1,0.1h-0.1c-0.1,0-0.2,0-0.2-0.1
		c-0.1,0-0.1-0.1-0.1-0.2v-0.1l0.1-0.1C252.5,22.8,252.6,22.7,252.6,22.6c0.2,0.1,0.3,0.1,0.3,0l0,0v-0.1h-0.1
		C252.7,22.5,252.6,22.5,252.6,22.6L252.6,22.6z M253.5,22.4h-0.2l0.3,0.9c0,0,0,0.1-0.1,0.1h-0.1h-0.1v0.2h0.1h0.1h0.1
		c0,0,0,0,0.1-0.1c0,0,0-0.1,0.1-0.1l0.4-1H254l-0.2,0.6L253.5,22.4z M254.3,22.4h0.2v0.1c0.1-0.1,0.2-0.1,0.3-0.1
		c0.1,0,0.1,0,0.1,0l0.1,0.1l0.1-0.1h0.1c0.1,0,0.1,0,0.2,0l0.1,0.1c0,0,0,0.1,0,0.2v0.6h-0.2v-0.5c0-0.1,0-0.1,0-0.2h-0.1h-0.1
		c0,0,0,0-0.1,0.1c0,0,0,0.1,0,0.2v0.4h-0.2v-0.5c0-0.1,0-0.1,0-0.2c0,0,0,0,0-0.1c0,0,0,0-0.1,0h-0.1c0,0,0,0-0.1,0.1
		c0,0,0,0.1,0,0.2v0.4h-0.2L254.3,22.4L254.3,22.4z M256.3,22.6c0,0,0,0.1,0.1,0.2h-0.3c0-0.1,0-0.1,0-0.2l0.1-0.1
		C256.2,22.5,256.3,22.5,256.3,22.6z M256.6,23h-0.2c0,0,0,0.1-0.1,0.1h-0.1c-0.1,0-0.1,0-0.1-0.1c0,0-0.1-0.1-0.1-0.2h0.6
		c0-0.2,0-0.3-0.1-0.4s-0.2-0.1-0.3-0.1c-0.1,0-0.2,0-0.3,0.1c-0.1,0.1-0.1,0.2-0.1,0.3c0,0.1,0,0.2,0.1,0.3
		c0.1,0.1,0.2,0.1,0.3,0.1c0.1,0,0.2,0,0.2-0.1C256.5,23.2,256.5,23.1,256.6,23z M257.6,23.2h-0.2v-0.4c0-0.1,0-0.2,0-0.2s0,0,0-0.1
		c0,0,0,0-0.1,0h-0.1l-0.1,0.1c0,0,0,0.1,0,0.2v0.4h-0.2v-0.9h0.2v0.1c0.1-0.1,0.2-0.1,0.3-0.1h0.1c0,0,0.1,0,0.1,0.1v0.1
		c0,0,0,0.1,0,0.2L257.6,23.2L257.6,23.2z M258.3,22.6v-0.2h-0.2v-0.3l-0.2,0.1v0.2h-0.1v0.2h0.1V23c0,0.1,0,0.1,0,0.2v0.1
		c0,0,0,0,0.1,0.1h0.1c0.1,0,0.1,0,0.2,0v-0.2h-0.1l0,0l0,0v-0.1v-0.4h0.1V22.6z M258.4,23h0.2c0,0,0,0.1,0.1,0.1h0.1
		c0.1,0,0.1,0,0.1,0s0,0,0-0.1l0,0c0,0,0,0-0.1,0c-0.2,0-0.3-0.1-0.3-0.1c-0.1,0-0.1-0.1-0.1-0.2s0-0.1,0.1-0.2s0.2-0.1,0.3-0.1
		c0.1,0,0.2,0,0.3,0.1s0.1,0.1,0.1,0.2H259c0,0,0-0.1-0.1-0.1h-0.1c-0.1,0-0.1,0-0.1,0l0,0l0,0c0,0,0.1,0,0.2,0.1
		c0.1,0,0.2,0.1,0.3,0.1c0,0,0.1,0.1,0.1,0.2s0,0.1-0.1,0.2s-0.2,0.1-0.3,0.1c-0.1,0-0.2,0-0.3-0.1C258.5,23.1,258.4,23.1,258.4,23z
		 M260.4,22.3l0.2,0.4h-0.3L260.4,22.3z M260.8,23.2h0.3l-0.6-1.2h-0.3l-0.5,1.2h0.3l0.1-0.3h0.5L260.8,23.2z M261.4,23.2h-0.2v-0.9
		h0.2v0.1c0-0.1,0.1-0.1,0.1-0.1h0.1c0.1,0,0.1,0,0.1,0l-0.1,0.2h-0.1h-0.1c0,0,0,0-0.1,0.1c0,0,0,0.1,0,0.3v0.3H261.4z M262.3,22.6
		c0,0,0.1,0.1,0.1,0.2h-0.3c0-0.1,0-0.1,0-0.2l0.1-0.1C262.3,22.5,262.3,22.5,262.3,22.6z M262.6,23h-0.2c0,0,0,0.1-0.1,0.1h-0.1
		c-0.1,0-0.1,0-0.1-0.1c0,0-0.1-0.1-0.1-0.2h0.6c0-0.2,0-0.3-0.1-0.4s-0.2-0.1-0.3-0.1c-0.1,0-0.2,0-0.3,0.1
		c-0.1,0.1-0.1,0.2-0.1,0.3c0,0.1,0,0.2,0.1,0.3c0.1,0.1,0.2,0.1,0.3,0.1c0.1,0,0.2,0,0.2-0.1C262.5,23.2,262.6,23.1,262.6,23z
		 M263.3,22.8h-0.1c-0.1,0-0.1,0-0.1,0s0,0,0,0.1V23h0.1h0.1c0,0,0,0,0.1-0.1C263.3,23,263.3,22.9,263.3,22.8L263.3,22.8z M263,22.6
		h-0.2c0-0.1,0.1-0.1,0.1-0.2c0.1,0,0.1-0.1,0.3-0.1c0.1,0,0.2,0,0.2,0l0.1,0.1c0,0,0,0.1,0,0.2v0.3c0,0.1,0,0.1,0,0.2v0.1h-0.2
		c0,0,0,0,0-0.1l0,0l0,0l0,0l-0.1,0.1h-0.1c-0.1,0-0.2,0-0.2-0.1c-0.1,0-0.1-0.1-0.1-0.2v-0.1l0.1-0.1C263,22.8,263,22.7,263,22.6
		c0.2,0.1,0.3,0.1,0.3,0l0,0v-0.1h-0.1C263.1,22.5,263.1,22.5,263,22.6C263.1,22.6,263,22.6,263,22.6z M260.5,16.6l0.8,2.7h-1.5
		L260.5,16.6z M259.4,20.5h2.2l0.3,1.1h1.7l-1.9-6.3h-2.5l-1.9,6.3h1.7L259.4,20.5z"/>
	<path class="st7" d="M250.5,16.2c0.7,0,1.3,0.3,1.7,0.8l0.4-0.8c-0.6-0.5-1.3-0.9-2.2-0.9c-1.3,0-2.4,0.8-2.9,1.9h-0.7l-0.4,0.9
		h0.9c0,0.1,0,0.2,0,0.3c0,0.1,0,0.2,0,0.3h-0.5l-0.4,0.9h1.1c0.5,1.1,1.6,1.9,2.9,1.9c0.6,0,1.3-0.2,1.8-0.5v-1.1
		c-0.4,0.5-1,0.8-1.6,0.8c-0.8,0-1.4-0.4-1.8-1h2.3l0.4-0.9h-3c0-0.1,0-0.2,0-0.3c0-0.1,0-0.2,0-0.2h3.3l0.4-0.9h-3.4
		C249,16.7,249.7,16.2,250.5,16.2z"/>
</g>
</svg>
