<svg width="398" height="43" viewBox="0 0 398 43" fill="none" xmlns="http://www.w3.org/2000/svg">
<path d="M27.8889 11.0752V7.64659C27.8889 6.73728 27.5143 5.8652 26.8475 5.22222C26.1807 4.57924 25.2763 4.21802 24.3333 4.21802H6.55556C5.61256 4.21802 4.70819 4.57924 4.0414 5.22222C3.3746 5.8652 3 6.73728 3 7.64659V17.9323C3 18.8416 3.3746 19.7137 4.0414 20.3567C4.70819 20.9997 5.61256 21.3609 6.55556 21.3609H10.1111M13.6667 28.218H31.4444C32.3874 28.218 33.2918 27.8568 33.9586 27.2138C34.6254 26.5708 35 25.6988 35 24.7894V14.5037C35 13.5944 34.6254 12.7223 33.9586 12.0794C33.2918 11.4364 32.3874 11.0752 31.4444 11.0752H13.6667C12.7237 11.0752 11.8193 11.4364 11.1525 12.0794C10.4857 12.7223 10.1111 13.5944 10.1111 14.5037V24.7894C10.1111 25.6988 10.4857 26.5708 11.1525 27.2138C11.8193 27.8568 12.7237 28.218 13.6667 28.218ZM26.1111 19.6466C26.1111 20.5559 25.7365 21.428 25.0697 22.071C24.4029 22.7139 23.4985 23.0752 22.5556 23.0752C21.6126 23.0752 20.7082 22.7139 20.0414 22.071C19.3746 21.428 19 20.5559 19 19.6466C19 18.7373 19.3746 17.8652 20.0414 17.2222C20.7082 16.5792 21.6126 16.218 22.5556 16.218C23.4985 16.218 24.4029 16.5792 25.0697 17.2222C25.7365 17.8652 26.1111 18.7373 26.1111 19.6466Z" fill="white"/>
<path d="M27.8889 11.0752V7.64659C27.8889 6.73728 27.5143 5.8652 26.8475 5.22222C26.1807 4.57924 25.2763 4.21802 24.3333 4.21802H6.55556C5.61256 4.21802 4.70819 4.57924 4.0414 5.22222C3.3746 5.8652 3 6.73728 3 7.64659V17.9323C3 18.8416 3.3746 19.7137 4.0414 20.3567C4.70819 20.9997 5.61256 21.3609 6.55556 21.3609H10.1111M13.6667 28.218H31.4444C32.3874 28.218 33.2918 27.8568 33.9586 27.2138C34.6254 26.5708 35 25.6988 35 24.7894V14.5037C35 13.5944 34.6254 12.7223 33.9586 12.0794C33.2918 11.4364 32.3874 11.0752 31.4444 11.0752H13.6667C12.7237 11.0752 11.8193 11.4364 11.1525 12.0794C10.4857 12.7223 10.1111 13.5944 10.1111 14.5037V24.7894C10.1111 25.6988 10.4857 26.5708 11.1525 27.2138C11.8193 27.8568 12.7237 28.218 13.6667 28.218ZM26.1111 19.6466C26.1111 20.5559 25.7365 21.428 25.0697 22.071C24.4029 22.7139 23.4985 23.0752 22.5556 23.0752C21.6126 23.0752 20.7082 22.7139 20.0414 22.071C19.3746 21.428 19 20.5559 19 19.6466C19 18.7373 19.3746 17.8652 20.0414 17.2222C20.7082 16.5792 21.6126 16.218 22.5556 16.218C23.4985 16.218 24.4029 16.5792 25.0697 17.2222C25.7365 17.8652 26.1111 18.7373 26.1111 19.6466Z" stroke="#0F172A" stroke-linecap="round" stroke-linejoin="round"/>
<path d="M0.849547 37.218V32.003H3.04755C3.37421 32.003 3.65655 32.0614 3.89455 32.178C4.13255 32.29 4.31455 32.4534 4.44055 32.668C4.56655 32.878 4.62955 33.1277 4.62955 33.417C4.62955 33.669 4.56421 33.9 4.43355 34.11C4.30755 34.3154 4.10921 34.4787 3.83855 34.6V34.25C4.07655 34.3434 4.27021 34.4624 4.41955 34.607C4.56888 34.747 4.67621 34.9057 4.74155 35.083C4.81155 35.2604 4.84655 35.447 4.84655 35.643C4.84655 36.133 4.68555 36.518 4.36355 36.798C4.04621 37.078 3.60988 37.218 3.05455 37.218H0.849547ZM1.67555 36.483H3.11755C3.39288 36.483 3.61221 36.4084 3.77555 36.259C3.93888 36.105 4.02055 35.902 4.02055 35.65C4.02055 35.3934 3.93888 35.1904 3.77555 35.041C3.61221 34.887 3.39288 34.81 3.11755 34.81H1.67555V36.483ZM1.67555 34.082H3.06855C3.29255 34.082 3.47221 34.019 3.60755 33.893C3.74288 33.7624 3.81055 33.592 3.81055 33.382C3.81055 33.172 3.74288 33.0087 3.60755 32.892C3.47221 32.7754 3.29255 32.717 3.06855 32.717H1.67555V34.082ZM6.75323 37.302C6.49656 37.302 6.27023 37.2577 6.07423 37.169C5.88289 37.0757 5.73356 36.9497 5.62623 36.791C5.51889 36.6277 5.46523 36.4364 5.46523 36.217C5.46523 36.0117 5.50956 35.8274 5.59823 35.664C5.69156 35.5007 5.83389 35.363 6.02523 35.251C6.21656 35.139 6.45689 35.0597 6.74623 35.013L8.06223 34.796V35.419L6.90023 35.622C6.69023 35.6594 6.53623 35.727 6.43823 35.825C6.34023 35.9184 6.29123 36.0397 6.29123 36.189C6.29123 36.3337 6.34489 36.4527 6.45223 36.546C6.56423 36.6347 6.70656 36.679 6.87923 36.679C7.09389 36.679 7.28056 36.6324 7.43923 36.539C7.60256 36.4457 7.72856 36.322 7.81723 36.168C7.90589 36.0094 7.95023 35.8344 7.95023 35.643V34.67C7.95023 34.4834 7.88023 34.3317 7.74023 34.215C7.60489 34.0937 7.42289 34.033 7.19423 34.033C6.98423 34.033 6.79989 34.089 6.64123 34.201C6.48723 34.3084 6.37289 34.4484 6.29823 34.621L5.64023 34.292C5.71023 34.1054 5.82456 33.942 5.98323 33.802C6.14189 33.6574 6.32623 33.5454 6.53623 33.466C6.75089 33.3867 6.97723 33.347 7.21523 33.347C7.51389 33.347 7.77756 33.403 8.00623 33.515C8.23956 33.627 8.41923 33.7834 8.54523 33.984C8.67589 34.18 8.74123 34.4087 8.74123 34.67V37.218H7.98523V36.532L8.14623 36.553C8.05756 36.707 7.94323 36.84 7.80323 36.952C7.66789 37.064 7.51156 37.1504 7.33423 37.211C7.16156 37.2717 6.96789 37.302 6.75323 37.302ZM9.6661 37.218V33.431H10.4221V34.194L10.3521 34.082C10.4361 33.8347 10.5714 33.6574 10.7581 33.55C10.9448 33.438 11.1688 33.382 11.4301 33.382H11.6611V34.103H11.3321C11.0708 34.103 10.8584 34.1847 10.6951 34.348C10.5364 34.5067 10.4571 34.7354 10.4571 35.034V37.218H9.6661ZM11.8592 37.218V36.567L14.0852 33.872L14.2112 34.145H11.9642V33.431H14.9112V34.075L12.7132 36.777L12.5872 36.497H14.9182V37.218H11.8592ZM16.6312 37.302C16.3745 37.302 16.1482 37.2577 15.9522 37.169C15.7608 37.0757 15.6115 36.9497 15.5042 36.791C15.3968 36.6277 15.3432 36.4364 15.3432 36.217C15.3432 36.0117 15.3875 35.8274 15.4762 35.664C15.5695 35.5007 15.7118 35.363 15.9032 35.251C16.0945 35.139 16.3348 35.0597 16.6242 35.013L17.9402 34.796V35.419L16.7782 35.622C16.5682 35.6594 16.4142 35.727 16.3162 35.825C16.2182 35.9184 16.1692 36.0397 16.1692 36.189C16.1692 36.3337 16.2228 36.4527 16.3302 36.546C16.4422 36.6347 16.5845 36.679 16.7572 36.679C16.9718 36.679 17.1585 36.6324 17.3172 36.539C17.4805 36.4457 17.6065 36.322 17.6952 36.168C17.7838 36.0094 17.8282 35.8344 17.8282 35.643V34.67C17.8282 34.4834 17.7582 34.3317 17.6182 34.215C17.4828 34.0937 17.3008 34.033 17.0722 34.033C16.8622 34.033 16.6778 34.089 16.5192 34.201C16.3652 34.3084 16.2508 34.4484 16.1762 34.621L15.5182 34.292C15.5882 34.1054 15.7025 33.942 15.8612 33.802C16.0198 33.6574 16.2042 33.5454 16.4142 33.466C16.6288 33.3867 16.8552 33.347 17.0932 33.347C17.3918 33.347 17.6555 33.403 17.8842 33.515C18.1175 33.627 18.2972 33.7834 18.4232 33.984C18.5538 34.18 18.6192 34.4087 18.6192 34.67V37.218H17.8632V36.532L18.0242 36.553C17.9355 36.707 17.8212 36.84 17.6812 36.952C17.5458 37.064 17.3895 37.1504 17.2122 37.211C17.0395 37.2717 16.8458 37.302 16.6312 37.302ZM19.544 37.218V31.919H20.335V34.173L20.209 34.075C20.3024 33.837 20.4517 33.6574 20.657 33.536C20.8624 33.41 21.1004 33.347 21.371 33.347C21.651 33.347 21.8984 33.4077 22.113 33.529C22.3277 33.6504 22.4957 33.8184 22.617 34.033C22.7384 34.2477 22.799 34.4927 22.799 34.768V37.218H22.015V34.985C22.015 34.7937 21.9777 34.6327 21.903 34.502C21.833 34.3667 21.735 34.264 21.609 34.194C21.483 34.1194 21.3384 34.082 21.175 34.082C21.0164 34.082 20.8717 34.1194 20.741 34.194C20.615 34.264 20.5147 34.3667 20.44 34.502C20.37 34.6374 20.335 34.7984 20.335 34.985V37.218H19.544ZM23.6456 37.218V31.919H24.4366V37.218H23.6456ZM26.7124 37.302C26.4277 37.302 26.1781 37.239 25.9634 37.113C25.7487 36.9824 25.5807 36.8027 25.4594 36.574C25.3427 36.3407 25.2844 36.0724 25.2844 35.769V33.431H26.0754V35.699C26.0754 35.8717 26.1104 36.0234 26.1804 36.154C26.2504 36.2847 26.3484 36.3874 26.4744 36.462C26.6004 36.532 26.7451 36.567 26.9084 36.567C27.0764 36.567 27.2234 36.5297 27.3494 36.455C27.4754 36.3804 27.5734 36.2754 27.6434 36.14C27.7181 36.0047 27.7554 35.846 27.7554 35.664V33.431H28.5394V37.218H27.7904V36.476L27.8744 36.574C27.7857 36.8074 27.6387 36.987 27.4334 37.113C27.2281 37.239 26.9877 37.302 26.7124 37.302ZM29.463 37.218V33.431H30.219V34.173L30.128 34.075C30.2213 33.837 30.3706 33.6574 30.576 33.536C30.7813 33.41 31.0193 33.347 31.29 33.347C31.57 33.347 31.8173 33.4077 32.032 33.529C32.2466 33.6504 32.4146 33.8184 32.536 34.033C32.6573 34.2477 32.718 34.495 32.718 34.775V37.218H31.934V34.985C31.934 34.7937 31.899 34.6327 31.829 34.502C31.759 34.3667 31.6586 34.264 31.528 34.194C31.402 34.1194 31.2573 34.082 31.094 34.082C30.9306 34.082 30.7836 34.1194 30.653 34.194C30.527 34.264 30.429 34.3667 30.359 34.502C30.289 34.6374 30.254 34.7984 30.254 34.985V37.218H29.463ZM35.3915 38.758C35.1162 38.758 34.8619 38.7137 34.6285 38.625C34.3952 38.5364 34.1945 38.4127 34.0265 38.254C33.8585 38.1 33.7325 37.918 33.6485 37.708L34.3765 37.407C34.4419 37.5844 34.5609 37.7314 34.7335 37.848C34.9109 37.9647 35.1279 38.023 35.3845 38.023C35.5852 38.023 35.7649 37.9834 35.9235 37.904C36.0822 37.8294 36.2082 37.7174 36.3015 37.568C36.3949 37.4234 36.4415 37.2484 36.4415 37.043V36.189L36.5815 36.35C36.4509 36.5927 36.2689 36.777 36.0355 36.903C35.8069 37.029 35.5479 37.092 35.2585 37.092C34.9085 37.092 34.5935 37.0104 34.3135 36.847C34.0335 36.6837 33.8119 36.4597 33.6485 36.175C33.4899 35.8904 33.4105 35.5707 33.4105 35.216C33.4105 34.8567 33.4899 34.537 33.6485 34.257C33.8119 33.977 34.0312 33.7554 34.3065 33.592C34.5819 33.4287 34.8969 33.347 35.2515 33.347C35.5409 33.347 35.7975 33.41 36.0215 33.536C36.2502 33.6574 36.4369 33.8347 36.5815 34.068L36.4765 34.264V33.431H37.2255V37.043C37.2255 37.3697 37.1462 37.6614 36.9875 37.918C36.8335 38.1794 36.6189 38.3847 36.3435 38.534C36.0682 38.6834 35.7509 38.758 35.3915 38.758ZM35.3495 36.357C35.5595 36.357 35.7462 36.308 35.9095 36.21C36.0729 36.1074 36.2012 35.972 36.2945 35.804C36.3925 35.6314 36.4415 35.4377 36.4415 35.223C36.4415 35.0084 36.3925 34.8147 36.2945 34.642C36.1965 34.4694 36.0659 34.334 35.9025 34.236C35.7392 34.1334 35.5549 34.082 35.3495 34.082C35.1349 34.082 34.9435 34.1334 34.7755 34.236C34.6075 34.334 34.4745 34.4694 34.3765 34.642C34.2832 34.81 34.2365 35.0037 34.2365 35.223C34.2365 35.433 34.2832 35.6244 34.3765 35.797C34.4745 35.9697 34.6075 36.1074 34.7755 36.21C34.9435 36.308 35.1349 36.357 35.3495 36.357Z" fill="white"/>
<path d="M117.219 38.7887V36.5964C117.232 36.4121 117.205 36.227 117.141 36.0538C117.077 35.8805 116.976 35.7229 116.846 35.5915C116.716 35.4601 116.56 35.358 116.387 35.2918C116.215 35.2257 116.03 35.1972 115.846 35.2081C115.604 35.1923 115.363 35.2417 115.147 35.3509C114.931 35.4602 114.749 35.6253 114.619 35.8292C114.5 35.6314 114.33 35.4693 114.127 35.36C113.924 35.2507 113.695 35.1982 113.464 35.2081C113.263 35.198 113.063 35.2405 112.884 35.3315C112.705 35.4225 112.552 35.5588 112.442 35.7269V35.2958H111.682V38.7887H112.449V36.8522C112.432 36.7327 112.442 36.611 112.478 36.4959C112.514 36.3808 112.575 36.275 112.657 36.1863C112.739 36.0976 112.839 36.0281 112.951 35.9827C113.063 35.9374 113.183 35.9174 113.304 35.9242C113.808 35.9242 114.063 36.253 114.063 36.8449V38.7887H114.83V36.8522C114.815 36.7329 114.826 36.6117 114.862 36.4972C114.899 36.3826 114.96 36.2774 115.042 36.1889C115.123 36.1005 115.223 36.031 115.334 35.9852C115.445 35.9395 115.565 35.9187 115.685 35.9242C116.204 35.9242 116.452 36.253 116.452 36.8449V38.7887H117.219ZM128.571 35.2958H127.329V34.2362H126.562V35.2958H125.854V35.99H126.562V37.5829C126.562 38.394 126.876 38.8763 127.775 38.8763C128.111 38.8774 128.44 38.7836 128.725 38.6059L128.505 37.9556C128.302 38.0772 128.07 38.1451 127.833 38.1529C127.453 38.1529 127.329 37.919 127.329 37.5684V35.99H128.571V35.2958ZM135.051 35.2081C134.865 35.2026 134.682 35.2473 134.52 35.3373C134.358 35.4273 134.224 35.5594 134.13 35.7196V35.2958H133.378V38.7887H134.138V36.8303C134.138 36.253 134.386 35.9315 134.883 35.9315C135.045 35.9293 135.207 35.9591 135.358 36.0192L135.591 35.3031C135.418 35.241 135.235 35.2088 135.051 35.2081ZM125.255 35.5734C124.825 35.3177 124.33 35.1908 123.83 35.2081C122.946 35.2081 122.377 35.6319 122.377 36.3261C122.377 36.8961 122.8 37.2468 123.582 37.3564L123.94 37.4075C124.356 37.4659 124.553 37.5756 124.553 37.7729C124.553 38.0433 124.276 38.1968 123.757 38.1968C123.34 38.2088 122.931 38.0801 122.596 37.8313L122.238 38.4232C122.68 38.7324 123.21 38.8912 123.75 38.8763C124.758 38.8763 125.342 38.4013 125.342 37.7364C125.342 37.1226 124.882 36.801 124.122 36.6914L123.764 36.6403C123.436 36.5964 123.173 36.5307 123.173 36.2969C123.173 36.0411 123.421 35.8876 123.837 35.8876C124.22 35.8934 124.594 35.9965 124.926 36.1872L125.255 35.5734ZM145.606 35.2081C145.421 35.2026 145.238 35.2473 145.076 35.3373C144.914 35.4273 144.779 35.5594 144.686 35.7196V35.2958H143.934V38.7887H144.693V36.8303C144.693 36.253 144.942 35.9315 145.438 35.9315C145.601 35.9293 145.762 35.9591 145.913 36.0192L146.147 35.3031C145.974 35.241 145.791 35.2088 145.606 35.2081ZM135.818 37.0421C135.808 37.2882 135.849 37.5337 135.94 37.7627C136.03 37.9918 136.167 38.1994 136.343 38.3721C136.518 38.5449 136.728 38.679 136.958 38.7658C137.189 38.8527 137.435 38.8903 137.681 38.8763C138.137 38.8993 138.585 38.7507 138.937 38.4598L138.572 37.846C138.309 38.0462 137.989 38.1564 137.659 38.1602C137.374 38.1429 137.107 38.0176 136.911 37.8098C136.716 37.6021 136.607 37.3275 136.607 37.0422C136.607 36.7569 136.716 36.4823 136.911 36.2745C137.107 36.0668 137.374 35.9415 137.659 35.9242C137.989 35.9279 138.309 36.0381 138.572 36.2384L138.937 35.6246C138.585 35.3337 138.137 35.1852 137.681 35.2081C137.435 35.1941 137.189 35.2317 136.958 35.3186C136.728 35.4054 136.518 35.5395 136.343 35.7122C136.167 35.885 136.03 36.0925 135.94 36.3216C135.849 36.5506 135.808 36.7961 135.818 37.0421ZM142.933 37.0421V35.2958H142.173V35.7196C142.043 35.5524 141.876 35.4188 141.684 35.3298C141.492 35.2408 141.281 35.1991 141.07 35.2081C140.599 35.2312 140.155 35.4345 139.83 35.7759C139.505 36.1174 139.324 36.5708 139.324 37.0422C139.324 37.5137 139.505 37.9671 139.83 38.3085C140.155 38.65 140.599 38.8533 141.07 38.8763C141.281 38.8854 141.492 38.8436 141.684 38.7546C141.876 38.6656 142.043 38.5319 142.173 38.3648V38.7887H142.933V37.0421ZM140.106 37.0421C140.118 36.836 140.189 36.6379 140.312 36.4721C140.435 36.3063 140.604 36.1802 140.798 36.1093C140.992 36.0384 141.202 36.0257 141.403 36.0729C141.604 36.1202 141.787 36.2252 141.929 36.375C142.071 36.5249 142.166 36.713 142.202 36.9162C142.239 37.1194 142.215 37.3289 142.133 37.5187C142.052 37.7085 141.917 37.8703 141.745 37.9843C141.573 38.0983 141.371 38.1595 141.165 38.1602C141.02 38.1621 140.877 38.1341 140.744 38.0778C140.61 38.0216 140.49 37.9383 140.391 37.8332C140.291 37.7282 140.214 37.6037 140.165 37.4675C140.116 37.3314 140.096 37.1865 140.106 37.0421ZM130.938 35.2081C130.464 35.233 130.019 35.4406 129.694 35.7871C129.37 36.1337 129.193 36.5923 129.2 37.0668C129.206 37.5414 129.396 37.9949 129.73 38.3323C130.064 38.6696 130.515 38.8646 130.989 38.8763C131.51 38.8946 132.02 38.7203 132.421 38.3867L132.048 37.8241C131.76 38.0553 131.403 38.1839 131.033 38.1894C130.782 38.2105 130.533 38.1331 130.338 37.9735C130.143 37.814 130.017 37.5847 129.988 37.3344H132.582C132.589 37.2395 132.596 37.1445 132.596 37.0421C132.589 35.9534 131.917 35.2081 130.938 35.2081ZM130.923 35.8876C131.153 35.8832 131.375 35.9699 131.54 36.1288C131.706 36.2877 131.802 36.5058 131.807 36.7353H129.996C130.009 36.5008 130.114 36.2808 130.287 36.1224C130.46 35.964 130.689 35.8798 130.923 35.8876ZM149.982 37.0421V33.8928H149.222V35.7196C149.093 35.5524 148.925 35.4188 148.733 35.3298C148.541 35.2408 148.331 35.1991 148.119 35.2081C147.649 35.2312 147.205 35.4345 146.88 35.7759C146.555 36.1173 146.373 36.5707 146.373 37.0422C146.373 37.5137 146.555 37.9671 146.88 38.3085C147.205 38.65 147.649 38.8533 148.119 38.8763C148.331 38.8854 148.541 38.8436 148.733 38.7546C148.925 38.6656 149.093 38.5319 149.222 38.3648V38.7887H149.982V37.0421ZM151.249 38.2824C151.296 38.2821 151.343 38.2914 151.386 38.3097C151.428 38.3272 151.466 38.3524 151.498 38.3841C151.53 38.4158 151.556 38.4534 151.574 38.4948C151.592 38.5373 151.602 38.5831 151.602 38.6294C151.602 38.6757 151.592 38.7216 151.574 38.7641C151.556 38.8053 151.53 38.8427 151.498 38.8743C151.466 38.906 151.428 38.9314 151.386 38.9491C151.343 38.9677 151.296 38.9771 151.249 38.9768C151.179 38.9775 151.111 38.9577 151.053 38.9199C150.994 38.882 150.948 38.8279 150.921 38.7641C150.903 38.7215 150.893 38.6757 150.893 38.6294C150.893 38.5831 150.903 38.5373 150.921 38.4948C150.939 38.4534 150.964 38.4159 150.996 38.3841C151.028 38.3522 151.067 38.3269 151.109 38.3097C151.153 38.2914 151.201 38.2821 151.249 38.2824ZM151.249 38.9002C151.285 38.9005 151.32 38.8933 151.353 38.8789C151.385 38.8652 151.414 38.8455 151.438 38.8211C151.489 38.7701 151.517 38.7013 151.517 38.6296C151.517 38.5579 151.489 38.4891 151.438 38.4381C151.414 38.4137 151.385 38.3943 151.353 38.3807C151.32 38.3667 151.285 38.3596 151.249 38.3599C151.212 38.3596 151.176 38.3667 151.142 38.3807C151.11 38.394 151.08 38.4135 151.056 38.4381C151.005 38.4891 150.977 38.5579 150.977 38.6296C150.977 38.7013 151.005 38.7701 151.056 38.8211C151.08 38.8457 151.11 38.8654 151.142 38.8789C151.176 38.8932 151.212 38.9005 151.249 38.9002ZM151.269 38.4671C151.303 38.4648 151.337 38.4746 151.365 38.4948C151.376 38.5039 151.385 38.5154 151.39 38.5285C151.396 38.5415 151.399 38.5558 151.398 38.5701C151.399 38.5823 151.397 38.5945 151.392 38.6058C151.387 38.6172 151.38 38.6274 151.372 38.6359C151.35 38.6547 151.324 38.666 151.295 38.6679L151.401 38.7896H151.318L151.221 38.6687H151.189V38.7896H151.12V38.4671H151.269ZM151.189 38.5275V38.6135H151.268C151.283 38.6142 151.299 38.6105 151.312 38.6028C151.317 38.5992 151.321 38.5943 151.324 38.5886C151.327 38.5828 151.328 38.5764 151.328 38.5701C151.328 38.5638 151.327 38.5575 151.324 38.5519C151.321 38.5463 151.317 38.5415 151.312 38.5381C151.299 38.5304 151.283 38.5268 151.268 38.5275H151.189ZM147.155 37.0421C147.167 36.836 147.239 36.6379 147.362 36.4721C147.485 36.3064 147.654 36.1803 147.848 36.1094C148.041 36.0385 148.252 36.0258 148.453 36.0731C148.653 36.1203 148.836 36.2253 148.978 36.3751C149.12 36.525 149.215 36.7131 149.251 36.9163C149.288 37.1195 149.264 37.3289 149.183 37.5187C149.101 37.7085 148.967 37.8704 148.794 37.9844C148.622 38.0983 148.421 38.1595 148.214 38.1602C148.07 38.1621 147.926 38.1341 147.793 38.0778C147.66 38.0215 147.539 37.9383 147.44 37.8332C147.34 37.7282 147.264 37.6037 147.215 37.4675C147.166 37.3313 147.145 37.1865 147.155 37.0421ZM121.5 37.0421V35.2958H120.74V35.7196C120.61 35.5524 120.443 35.4188 120.251 35.3298C120.059 35.2408 119.848 35.1991 119.637 35.2081C119.166 35.2312 118.722 35.4345 118.397 35.7759C118.072 36.1174 117.891 36.5708 117.891 37.0422C117.891 37.5137 118.072 37.9671 118.397 38.3085C118.722 38.65 119.166 38.8533 119.637 38.8763C119.848 38.8854 120.059 38.8436 120.251 38.7546C120.443 38.6656 120.61 38.5319 120.74 38.3648V38.7887H121.5V37.0421ZM118.673 37.0421C118.685 36.836 118.756 36.6379 118.88 36.4721C119.003 36.3064 119.171 36.1803 119.365 36.1094C119.559 36.0385 119.769 36.0258 119.97 36.0731C120.171 36.1203 120.354 36.2253 120.496 36.3751C120.638 36.525 120.733 36.7131 120.769 36.9163C120.805 37.1195 120.782 37.3289 120.7 37.5187C120.619 37.7085 120.484 37.8704 120.312 37.9844C120.14 38.0984 119.938 38.1595 119.732 38.1602C119.587 38.1621 119.444 38.1341 119.311 38.0778C119.177 38.0215 119.057 37.9383 118.958 37.8332C118.858 37.7282 118.781 37.6037 118.732 37.4675C118.683 37.3313 118.663 37.1865 118.673 37.0421Z" fill="white"/>
<circle cx="122.199" cy="17.959" r="13.5" fill="white"/>
<path d="M151.254 17.6138C151.254 20.0821 150.56 22.5007 149.251 24.593C147.942 26.6853 146.07 28.367 143.851 29.4458C141.632 30.5246 139.154 30.957 136.7 30.6936C134.247 30.4301 131.917 29.4815 129.977 27.9562C131.542 26.725 132.807 25.1545 133.677 23.3629C134.548 21.5714 135 19.6056 135 17.6138C135 15.6221 134.548 13.6563 133.677 11.8647C132.807 10.0732 131.542 8.50264 129.977 7.27149C131.917 5.74613 134.247 4.79752 136.7 4.53411C139.154 4.2707 141.632 4.70311 143.851 5.78191C146.07 6.86071 147.942 8.54237 149.251 10.6347C150.56 12.727 151.254 15.1455 151.254 17.6138Z" fill="white" fill-opacity="0.7"/>
<path d="M150 25.7647V25.3413H150.17V25.255H149.736V25.3413H149.906V25.7647H150ZM150.844 25.7647V25.2542H150.71L150.557 25.6054L150.404 25.2542H150.27V25.7647H150.365V25.3796L150.508 25.7117H150.606L150.75 25.3788V25.7647H150.844Z" fill="white"/>
<path d="M252.999 12.0713L248.857 31.4143H243.847L247.989 12.0713H252.999ZM274.077 24.5613L276.713 17.2976L278.231 24.5613H274.077ZM279.668 31.4143H284.301L280.254 12.0713H275.98C275.017 12.0713 274.205 12.629 273.846 13.4891L266.329 31.4143H271.59L272.635 28.5256H279.061L279.668 31.4143ZM266.59 25.0995C266.612 19.9945 259.525 19.7118 259.572 17.4307C259.587 16.7377 260.249 15.9994 261.696 15.8106C262.414 15.7184 264.393 15.6435 266.637 16.6764L267.515 12.5729C266.31 12.1374 264.759 11.718 262.829 11.718C257.876 11.718 254.392 14.3458 254.364 18.1116C254.332 20.8964 256.853 22.4491 258.748 23.3767C260.702 24.3247 261.357 24.9324 261.347 25.7795C261.334 27.0773 259.789 27.652 258.351 27.6737C255.831 27.7129 254.37 26.9933 253.206 26.4512L252.296 30.6917C253.469 31.2277 255.629 31.6941 257.866 31.718C263.131 31.718 266.574 29.1212 266.59 25.0995ZM245.84 12.0713L237.723 31.4143H232.428L228.433 15.9772C228.191 15.0279 227.98 14.679 227.243 14.2779C226.038 13.6244 224.05 13.0132 222.301 12.6329L222.419 12.0713H230.944C232.03 12.0713 233.007 12.793 233.255 14.0425L235.366 25.2365L240.577 12.0713H245.84Z" fill="white"/>
<path d="M368 38.253V36.0414C368.013 35.8554 367.986 35.6688 367.921 35.494C367.856 35.3192 367.755 35.1602 367.624 35.0276C367.492 34.8951 367.335 34.792 367.16 34.7253C366.986 34.6586 366.8 34.6298 366.614 34.6408C366.37 34.6249 366.127 34.6747 365.909 34.7849C365.691 34.8952 365.507 35.0618 365.375 35.2674C365.256 35.0679 365.084 34.9044 364.879 34.7941C364.674 34.6838 364.443 34.6309 364.211 34.6408C364.008 34.6306 363.806 34.6736 363.625 34.7654C363.444 34.8572 363.29 34.9946 363.179 35.1642V34.7293H362.412V38.253H363.186V36.2995C363.169 36.1789 363.179 36.0562 363.216 35.94C363.252 35.8239 363.314 35.7172 363.396 35.6277C363.479 35.5382 363.58 35.4681 363.693 35.4224C363.805 35.3767 363.927 35.3565 364.048 35.3633C364.557 35.3633 364.815 35.695 364.815 36.2921V38.253H365.589V36.2995C365.574 36.1792 365.585 36.0569 365.622 35.9413C365.658 35.8257 365.72 35.7196 365.802 35.6304C365.884 35.5411 365.985 35.471 366.097 35.4249C366.21 35.3787 366.33 35.3577 366.452 35.3633C366.975 35.3633 367.226 35.695 367.226 36.2921V38.253H368ZM372.32 36.4911V34.7293H371.553V35.1568C371.422 34.9882 371.253 34.8533 371.059 34.7636C370.865 34.6738 370.653 34.6317 370.44 34.6408C369.965 34.6641 369.517 34.8692 369.189 35.2137C368.861 35.5581 368.678 36.0155 368.678 36.4912C368.678 36.9668 368.861 37.4242 369.189 37.7686C369.517 38.1131 369.965 38.3182 370.44 38.3415C370.653 38.3506 370.865 38.3085 371.059 38.2187C371.253 38.129 371.422 37.9941 371.553 37.8254V38.253H372.32V36.4911ZM369.467 36.4911C369.479 36.2832 369.551 36.0833 369.675 35.9161C369.799 35.7488 369.97 35.6216 370.165 35.5501C370.361 35.4785 370.573 35.4658 370.776 35.5134C370.979 35.561 371.163 35.667 371.306 35.8182C371.45 35.9693 371.546 36.1591 371.582 36.3641C371.619 36.5691 371.595 36.7804 371.513 36.9719C371.431 37.1633 371.295 37.3266 371.121 37.4416C370.947 37.5566 370.744 37.6183 370.536 37.619C370.39 37.621 370.245 37.5927 370.11 37.5359C369.976 37.4791 369.855 37.3951 369.754 37.2892C369.654 37.1832 369.576 37.0576 369.527 36.9202C369.477 36.7829 369.457 36.6368 369.467 36.4911ZM388.724 34.6367C388.983 34.6342 389.24 34.6823 389.481 34.7784C389.705 34.8678 389.909 35.0003 390.082 35.1684C390.253 35.3355 390.388 35.535 390.48 35.7553C390.671 36.2271 390.671 36.7551 390.48 37.227C390.388 37.4473 390.253 37.6469 390.082 37.814C389.909 37.9821 389.705 38.1145 389.481 38.2039C388.994 38.3929 388.455 38.3929 387.968 38.2039C387.745 38.1148 387.541 37.9823 387.369 37.814C387.199 37.6464 387.065 37.4469 386.973 37.227C386.782 36.755 386.782 36.2272 386.973 35.7553C387.065 35.5354 387.199 35.3359 387.369 35.1684C387.541 35.0001 387.745 34.8675 387.968 34.7784C388.209 34.6823 388.466 34.6342 388.724 34.6367ZM388.724 35.3616C388.575 35.3602 388.426 35.3884 388.287 35.4444C388.156 35.497 388.037 35.5758 387.937 35.6761C387.837 35.7786 387.758 35.8999 387.705 36.0331C387.592 36.3281 387.592 36.6543 387.705 36.9493C387.758 37.0825 387.837 37.2038 387.937 37.3062C388.037 37.4065 388.156 37.4854 388.287 37.538C388.568 37.6484 388.881 37.6484 389.162 37.538C389.294 37.4851 389.413 37.4063 389.514 37.3062C389.615 37.2041 389.694 37.0828 389.747 36.9493C389.86 36.6543 389.86 36.3281 389.747 36.0331C389.694 35.8996 389.615 35.7782 389.514 35.6761C389.413 35.5761 389.294 35.4973 389.162 35.4444C389.023 35.3884 388.874 35.3602 388.724 35.3616ZM376.491 36.4911C376.484 35.3927 375.806 34.6408 374.818 34.6408C374.34 34.6659 373.89 34.8752 373.563 35.2248C373.236 35.5744 373.057 36.0372 373.063 36.516C373.07 36.9947 373.262 37.4523 373.599 37.7927C373.935 38.133 374.391 38.3297 374.87 38.3415C375.396 38.3599 375.91 38.1841 376.314 37.8476L375.939 37.2799C375.647 37.5132 375.287 37.6429 374.914 37.6485C374.66 37.6698 374.409 37.5917 374.212 37.4307C374.015 37.2697 373.889 37.0385 373.86 36.786H376.477C376.484 36.6902 376.491 36.5944 376.491 36.4911ZM373.867 36.1815C373.88 35.945 373.986 35.723 374.161 35.5632C374.336 35.4034 374.566 35.3184 374.803 35.3264C375.035 35.3219 375.259 35.4094 375.426 35.5697C375.593 35.7299 375.69 35.95 375.695 36.1815H373.867ZM379.72 35.6287C379.386 35.4362 379.008 35.3322 378.622 35.3264C378.201 35.3264 377.951 35.4812 377.951 35.7393C377.951 35.9752 378.216 36.0414 378.548 36.0857L378.909 36.1373C379.676 36.2479 380.14 36.5722 380.14 37.1914C380.14 37.8623 379.551 38.3415 378.533 38.3415C377.989 38.3565 377.454 38.1963 377.007 37.8844L377.368 37.2873C377.707 37.5382 378.12 37.668 378.541 37.6559C379.064 37.6559 379.344 37.5011 379.344 37.2283C379.344 37.0293 379.145 36.9187 378.725 36.8597L378.364 36.8082C377.575 36.6976 377.147 36.3437 377.147 35.7687C377.147 35.0684 377.722 34.6408 378.614 34.6408C379.119 34.6234 379.618 34.7514 380.052 35.0094L379.72 35.6287ZM383.404 35.4296H382.151V37.022C382.151 37.3757 382.276 37.6117 382.659 37.6117C382.899 37.6037 383.132 37.5353 383.338 37.4127L383.559 38.0688C383.271 38.248 382.939 38.3425 382.6 38.3415C381.694 38.3415 381.377 37.855 381.377 37.0366V35.4296H380.662V34.7293H381.377L381.377 33.6604H382.151L382.151 34.7293H383.404V35.4296ZM386.057 34.6408C386.243 34.6415 386.428 34.674 386.603 34.7367L386.367 35.4591C386.215 35.3984 386.052 35.3684 385.888 35.3706C385.386 35.3706 385.136 35.695 385.136 36.2773V38.253H384.369V34.7293H385.128V35.1568C385.222 34.9952 385.358 34.862 385.522 34.7711C385.685 34.6803 385.87 34.6353 386.057 34.6408ZM391.365 37.7401C391.413 37.7398 391.46 37.7491 391.504 37.7676C391.546 37.7852 391.585 37.8108 391.617 37.8428C391.65 37.8748 391.676 37.9127 391.694 37.9546C391.712 37.9975 391.722 38.0438 391.722 38.0906C391.722 38.1374 391.712 38.1836 391.694 38.2266C391.676 38.2682 391.65 38.306 391.617 38.3379C391.584 38.37 391.546 38.3956 391.504 38.4135C391.46 38.4323 391.413 38.4418 391.365 38.4415C391.295 38.4422 391.226 38.4222 391.167 38.384C391.108 38.3458 391.062 38.291 391.034 38.2266C391.015 38.1836 391.006 38.1373 391.006 38.0906C391.006 38.0438 391.015 37.9975 391.034 37.9546C391.052 37.9128 391.077 37.8748 391.11 37.8428C391.142 37.8105 391.181 37.785 391.224 37.7676C391.268 37.7491 391.316 37.7397 391.365 37.7401ZM391.365 38.3641C391.401 38.3644 391.437 38.3571 391.471 38.3426C391.503 38.3287 391.532 38.3089 391.557 38.2842C391.588 38.2526 391.612 38.2137 391.625 38.171C391.638 38.1282 391.64 38.0829 391.632 38.039C391.623 37.995 391.604 37.9539 391.576 37.9191C391.548 37.8843 391.512 37.8569 391.471 37.8394C391.437 37.8252 391.401 37.818 391.365 37.8183C391.328 37.818 391.291 37.8252 391.257 37.8394C391.224 37.8528 391.195 37.8725 391.17 37.8973C391.119 37.9488 391.09 38.0183 391.09 38.0908C391.09 38.1632 391.119 38.2327 391.17 38.2842C391.195 38.3097 391.226 38.3299 391.259 38.3436C391.293 38.3573 391.329 38.3643 391.365 38.3641ZM391.386 37.9265C391.42 37.9243 391.454 37.9342 391.482 37.9546C391.493 37.9637 391.502 37.9754 391.508 37.9886C391.514 38.0018 391.517 38.0162 391.516 38.0306C391.517 38.043 391.514 38.0553 391.51 38.0667C391.505 38.0782 391.498 38.0886 391.489 38.0972C391.468 38.1162 391.441 38.1275 391.412 38.1294L391.519 38.2523H391.435L391.337 38.1303H391.305V38.2523H391.235V37.9265H391.386ZM391.305 37.9876V38.0745H391.385C391.4 38.0752 391.415 38.0714 391.429 38.0636C391.434 38.0601 391.438 38.0551 391.441 38.0493C391.444 38.0435 391.445 38.0371 391.445 38.0306C391.445 38.0243 391.444 38.0179 391.441 38.0123C391.438 38.0066 391.434 38.0018 391.429 37.9983C391.415 37.9906 391.4 37.9869 391.385 37.9876H391.305Z" fill="white"/>
<path d="M382.314 7.83545H370.687V28.7302H382.314V7.83545Z" fill="white"/>
<path d="M371.425 18.2828C371.423 16.2705 371.879 14.2842 372.758 12.4741C373.638 10.6641 374.917 9.07785 376.5 7.83546C374.54 6.2946 372.186 5.33637 369.707 5.07028C367.227 4.80419 364.723 5.24098 362.481 6.33072C360.238 7.42047 358.347 9.1192 357.024 11.2328C355.702 13.3463 355 15.7894 355 18.2828C355 20.7762 355.702 23.2194 357.024 25.3329C358.347 27.4465 360.238 29.1452 362.481 30.235C364.723 31.3247 367.227 31.7615 369.707 31.4954C372.186 31.2293 374.54 30.2711 376.5 28.7302C374.917 27.4878 373.638 25.9016 372.758 24.0915C371.879 22.2815 371.423 20.2951 371.425 18.2828Z" fill="white"/>
<path d="M396.732 26.517V26.0892H396.905V26.0021H396.466V26.0892H396.638V26.517H396.732ZM397.585 26.517V26.0012H397.451L397.296 26.356L397.141 26.0012H397.006V26.517H397.101V26.1279L397.246 26.4634H397.345L397.49 26.1271V26.517H397.585Z" fill="#00A2E5"/>
<path d="M398 18.2828C398 20.7762 397.299 23.2193 395.976 25.3329C394.653 27.4464 392.762 29.1452 390.52 30.2349C388.277 31.3247 385.773 31.7615 383.294 31.4954C380.815 31.2293 378.461 30.2711 376.5 28.7302C378.082 27.4866 379.36 25.9 380.24 24.0903C381.119 22.2806 381.576 20.2948 381.576 18.2828C381.576 16.2708 381.119 14.2851 380.24 12.4754C379.36 10.6656 378.082 9.0791 376.5 7.83546C378.461 6.2946 380.815 5.33636 383.294 5.07028C385.773 4.80419 388.277 5.24099 390.52 6.33074C392.762 7.4205 394.653 9.11925 395.976 11.2328C397.299 13.3464 398 15.7895 398 18.2828Z" fill="#B9BAB9"/>
</svg>
