<?xml version="1.0" encoding="utf-8"?>
<!-- Generator: Adobe Illustrator 27.5.0, SVG Export Plug-In . SVG Version: 6.00 Build 0)  -->
<svg version="1.1" id="Ebene_1" xmlns="http://www.w3.org/2000/svg" xmlns:xlink="http://www.w3.org/1999/xlink" x="0px" y="0px"
	 viewBox="0 0 296 35.7" style="enable-background:new 0 0 296 35.7;" xml:space="preserve">
<style type="text/css">
	.st0{fill:#FFFFFF;}
	.st1{fill-rule:evenodd;clip-rule:evenodd;fill:#333332;}
	.st2{fill-rule:evenodd;clip-rule:evenodd;fill:#6E6E6A;}
	.st3{fill-rule:evenodd;clip-rule:evenodd;fill:#474745;}
	.st4{fill:#333332;}
	.st5{clip-path:url(#SVGID_00000004512378493067840330000004004081496525710477_);}
	.st6{fill:#FFFFFF;stroke:#FFFFFF;}
	.st7{fill-rule:evenodd;clip-rule:evenodd;fill:#5A5A58;}
	.st8{fill-rule:evenodd;clip-rule:evenodd;fill:#82827D;}
</style>
<rect y="6.8" class="st0" width="31.7" height="22"/>
<path class="st1" d="M9.6,21.7H7.7l-1.4-5.6c-0.1-0.3-0.2-0.5-0.4-0.6c-0.5-0.3-1.1-0.5-1.8-0.6v-0.2h3.1c0.4,0,0.7,0.3,0.8,0.7
	l0.7,4l1.9-4.7h1.9L9.6,21.7z M13.6,21.7h-1.8l1.5-7h1.8L13.6,21.7z M17.4,16.7c0.1-0.4,0.4-0.6,0.7-0.6c0.6-0.1,1.2,0.1,1.8,0.3
	l0.3-1.5c-0.5-0.2-1.1-0.3-1.7-0.3c-1.8,0-3,1-3,2.3c0,1,0.9,1.6,1.5,1.9c0.7,0.3,1,0.5,0.9,0.9c0,0.5-0.5,0.7-1.1,0.7
	c-0.6,0-1.3-0.2-1.9-0.4l-0.3,1.5c0.6,0.3,1.3,0.4,2,0.4c2,0.1,3.2-0.9,3.2-2.4C19.9,17.6,17.4,17.5,17.4,16.7z M26.2,21.7l-1.4-7
	h-1.5c-0.3,0-0.6,0.2-0.7,0.5l-2.7,6.4h1.9l0.4-1h2.3l0.2,1H26.2z M23.5,16.7l0.5,2.6h-1.5L23.5,16.7z"/>
<rect x="44.2" y="6.8" class="st0" width="31.7" height="22"/>
<path class="st1" d="M60.2,22.8c-1.1,0.9-2.5,1.5-4,1.5c-3.4,0-6.2-2.8-6.2-6.3s2.8-6.3,6.2-6.3c1.5,0,2.9,0.6,4,1.5
	c1.1-0.9,2.5-1.5,4-1.5c3.4,0,6.2,2.8,6.2,6.3s-2.8,6.3-6.2,6.3C62.7,24.3,61.3,23.7,60.2,22.8z"/>
<path class="st2" d="M60.2,22.8c1.3-1.2,2.2-2.9,2.2-4.8s-0.8-3.7-2.2-4.8c1.1-0.9,2.5-1.5,4-1.5c3.4,0,6.2,2.8,6.2,6.3
	s-2.8,6.3-6.2,6.3C62.7,24.3,61.3,23.7,60.2,22.8z"/>
<path class="st3" d="M60.2,22.8c1.3-1.2,2.2-2.9,2.2-4.8s-0.8-3.7-2.2-4.8C58.9,14.3,58,16,58,18S58.9,21.6,60.2,22.8z"/>
<rect x="88.4" y="6.8" class="st4" width="31.7" height="22"/>
<g>
	<defs>
		<rect id="SVGID_1_" x="88.4" y="6.8" width="31.7" height="22"/>
	</defs>
	<clipPath id="SVGID_00000026144804304472984610000001865754719966308258_">
		<use xlink:href="#SVGID_1_"  style="overflow:visible;"/>
	</clipPath>
	<g style="clip-path:url(#SVGID_00000026144804304472984610000001865754719966308258_);">
		<rect x="88.9" y="7.3" class="st6" width="30.7" height="21"/>
	</g>
</g>
<path class="st1" d="M94.1,14.6l-3,6.6h3.5l0.4-1.1h1l0.4,1.1h3.9v-0.8l0.3,0.8h2l0.3-0.8v0.8h8.1l1-1l0.9,1l4.2,0l-3-3.3l3-3.3
	h-4.1l-1,1l-0.9-1h-8.8l-0.8,1.7l-0.8-1.7h-3.5v0.8l-0.4-0.8H94.1z M94.8,15.6h1.7l2,4.5v-4.5h1.9l1.5,3.2l1.4-3.2h1.9v4.8H104
	l0-3.7l-1.7,3.7h-1l-1.7-3.7v3.7h-2.4l-0.4-1.1h-2.4L94,20.3h-1.3L94.8,15.6z M110.9,15.6h-4.7v4.8h4.6l1.5-1.6l1.4,1.6h1.5L113,18
	l2.2-2.4h-1.4l-1.5,1.6L110.9,15.6z M95.6,16.4l-0.8,1.9h1.6L95.6,16.4z M107.4,17.4v-0.9v0h2.9l1.3,1.4l-1.3,1.4h-2.9v-0.9h2.5v-1
	H107.4z"/>
<rect x="132.6" y="6.8" class="st0" width="30.8" height="22"/>
<path class="st7" d="M145.8,23.8l0.2-1.3l-0.4,0h-2.1l1.5-9.8c0,0,0-0.1,0-0.1c0,0,0,0,0.1,0h3.6c1.2,0,2,0.3,2.4,0.8
	c0.2,0.2,0.3,0.5,0.4,0.8c0.1,0.3,0.1,0.6,0,1.1l0,0v0.3l0.2,0.1c0.2,0.1,0.3,0.2,0.4,0.3c0.2,0.2,0.3,0.5,0.3,0.8
	c0,0.3,0,0.7,0,1.1c-0.1,0.5-0.2,0.9-0.4,1.3c-0.2,0.3-0.4,0.6-0.7,0.8c-0.3,0.2-0.6,0.3-0.9,0.4c-0.3,0.1-0.7,0.1-1.2,0.1h-0.3
	c-0.2,0-0.4,0.1-0.5,0.2c-0.2,0.1-0.3,0.3-0.3,0.5l0,0.1l-0.4,2.3l0,0.1c0,0,0,0,0,0c0,0,0,0,0,0H145.8z"/>
<path class="st8" d="M151.9,15.2c0,0.1,0,0.1,0,0.2c-0.5,2.5-2.1,3.4-4.2,3.4h-1.1c-0.3,0-0.5,0.2-0.5,0.5l-0.7,4.6
	c0,0.2,0.1,0.3,0.3,0.3h1.9c0.2,0,0.4-0.2,0.4-0.4l0-0.1l0.4-2.3l0-0.1c0-0.2,0.2-0.4,0.4-0.4h0.3c1.8,0,3.2-0.8,3.6-3
	c0.2-0.9,0.1-1.7-0.4-2.2C152.2,15.4,152.1,15.3,151.9,15.2z"/>
<path class="st3" d="M151.4,15c-0.1,0-0.1,0-0.2-0.1c-0.1,0-0.2,0-0.2,0c-0.3,0-0.6-0.1-0.9-0.1h-2.8c-0.1,0-0.1,0-0.2,0
	c-0.1,0.1-0.2,0.2-0.2,0.4l-0.6,4l0,0.1c0-0.3,0.3-0.5,0.5-0.5h1.1c2.1,0,3.7-0.9,4.2-3.4c0-0.1,0-0.1,0-0.2
	c-0.1-0.1-0.2-0.1-0.4-0.2C151.4,15,151.4,15,151.4,15z"/>
<path class="st7" d="M146.7,15.2c0-0.2,0.1-0.3,0.2-0.4c0.1,0,0.1,0,0.2,0h2.8c0.3,0,0.6,0,0.9,0.1c0.1,0,0.2,0,0.2,0
	c0.1,0,0.2,0,0.2,0.1c0,0,0.1,0,0.1,0c0.1,0,0.3,0.1,0.4,0.2c0.1-0.9,0-1.6-0.5-2.2c-0.5-0.6-1.5-0.9-2.7-0.9h-3.6
	c-0.3,0-0.5,0.2-0.5,0.5l-1.5,9.9c0,0.2,0.1,0.4,0.3,0.4h2.2L146.7,15.2z"/>
<rect x="175.9" y="6.8" class="st0" width="31.7" height="22"/>
<path class="st1" d="M180.8,20.9h-1.3v-5.8h1.3V20.9z M184,15.1h-1.3c0,1.1-0.5,2.1-1.3,2.7l-0.5,0.4l1.9,2.7h1.6l-1.8-2.5
	C183.6,17.5,184,16.4,184,15.1z M186.1,20.9h-1.2v-5.8h1.2V20.9z M189.8,16.9v0.3c-0.3-0.2-0.7-0.4-1.2-0.4c-1.1,0-2,1-2,2.1
	c0,1.2,0.9,2.1,2,2.1c0.4,0,0.8-0.1,1.2-0.4v0.3h1.2v-4H189.8z M189.8,18.9c0,0.6-0.5,1-1.1,1s-1.1-0.5-1.1-1c0-0.6,0.5-1,1.1-1
	S189.8,18.3,189.8,18.9z M202,17.2v-0.3h1.2v4H202v-0.3c-0.3,0.2-0.7,0.4-1.2,0.4c-1.1,0-2-1-2-2.1c0-1.2,0.9-2.1,2-2.1
	C201.3,16.8,201.7,16.9,202,17.2z M201,20c0.6,0,1.1-0.5,1.1-1c0-0.6-0.5-1-1.1-1s-1.1,0.5-1.1,1C199.9,19.5,200.4,20,201,20z
	 M203.7,20.3c0-0.4,0.3-0.8,0.7-0.8s0.7,0.3,0.7,0.8c0,0.4-0.3,0.8-0.7,0.8S203.7,20.7,203.7,20.3z M196.8,16.8
	c-0.5,0-0.9,0.2-1.2,0.6v-0.5h-1.2v4h1.2v-2.1c0-0.6,0.4-0.9,0.9-0.9c0.5,0,0.8,0.3,0.8,0.9v2.1h1.2v-2.6
	C198.4,17.4,197.7,16.8,196.8,16.8z M192.7,16.9v0.5c0.2-0.3,0.7-0.5,1.1-0.5v1.2l0,0l0,0c-0.5,0-1.1,0.3-1.1,1v1.9h-1.2v-4H192.7z"
	/>
<rect x="220.1" y="6.8" class="st4" width="31.7" height="22"/>
<rect x="220.6" y="7.3" class="st6" width="30.7" height="21"/>
<path class="st1" d="M238.6,15.5l0.9-4.4c0.1-0.5-0.2-1-0.7-1.1c-0.5-0.1-1.1,0.2-1.2,0.7l-0.8,2.8l-0.6-2.7c0-0.3-0.2-0.5-0.4-0.6
	c-0.2-0.1-0.5-0.2-0.7-0.1c-0.5,0.1-0.8,0.7-0.7,1.2l0.4,3.1c-0.3-0.3-0.7-0.4-1.1-0.2l-0.1,0c-0.4,0.3-0.5,0.8-0.2,1.3
	c-0.2,0-0.4,0.1-0.6,0.3l0,0c-0.4,0.4-0.3,1,0.2,1.5l0.4,0.4c0,1.7,1.4,2.9,3.1,2.9c0,0,0,0,0.1,0c2.2,0,3.2-1.4,3.4-3.4
	c0.1-0.6-0.1-1.1-0.3-1.3c-0.1-0.1-0.3-0.2-0.4-0.2L238.6,15.5z M238.2,15.4L239,11c0.1-0.3-0.1-0.6-0.4-0.7
	c-0.3-0.1-0.6,0.1-0.7,0.4l-1,3.5c0,0.1-0.1,0.2-0.3,0.1c-0.1,0-0.1-0.1-0.1-0.2l-0.8-3.5c0-0.1-0.1-0.3-0.2-0.4
	c-0.1-0.1-0.3-0.1-0.4-0.1c-0.3,0.1-0.5,0.4-0.4,0.7l0,0l0.5,3.8l0.3,0.4c0.1-0.2,0.3-0.3,0.5-0.3c0.2,0,0.4,0,0.5,0
	c0,0,0.1,0,0.1,0c0,0,0,0,0,0L238.2,15.4z M235.2,15.8l-0.4-0.7c0,0,0,0,0-0.1l-0.2-0.3c-0.3-0.4-0.5-0.5-0.8-0.3l0,0
	c-0.2,0.2-0.3,0.6,0,0.9l0.9,1.3c0.2,0.2,0.5,0.3,0.7,0.1l0,0c0.1,0,0.1-0.1,0.2-0.2C235.2,16.4,235.2,16.1,235.2,15.8z M235.9,16.5
	c0,0-0.1-0.1-0.1-0.1c-0.2-0.2-0.2-0.4-0.1-0.6c0.1-0.2,0.2-0.3,0.4-0.3c0.1,0,0.3,0,0.4,0c0,0,0,0,0,0c0,0,0,0,0,0l2.4,0.6l0,0
	c0,0,0.1,0,0.1,0.1c0.2,0.2,0.2,0.5,0.2,1c-0.2,1.9-1,3-3.1,3c0,0,0,0,0,0c-1.2,0-2.3-0.9-2.5-2.1l0.3,0.3c0.4,0.4,0.9,0.3,1.3,0
	l0,0c0.3-0.3,0.3-0.7,0.1-1.1c0,0,0.1,0,0.1,0l0,0c0.1-0.1,0.2-0.2,0.3-0.3c0.1,0.1,0.3,0.1,0.5,0.2l0.6,0.1
	c-0.4,0.2-0.7,0.7-0.7,1.4c0,0.1,0.1,0.2,0.2,0.2c0.1,0,0.2-0.1,0.2-0.2c0-0.6,0.3-0.9,0.6-1.1c0.2-0.1,0.4-0.1,0.6-0.1l0,0
	c0.3,0,0.3-0.3,0.1-0.4l-1.6-0.4C236.1,16.6,236,16.6,235.9,16.5z M233,16c0.2-0.2,0.4-0.2,0.6-0.1l0.7,1c0.2,0.3,0.5,0.4,0.8,0.4
	c0.2,0.2,0.2,0.5,0,0.7l0,0c-0.2,0.2-0.5,0.2-0.7,0l-1.1-1.1C232.8,16.6,232.7,16.2,233,16L233,16z M231.4,24.4
	c0,0.6-0.5,1.1-1.1,1.1c-0.4,0-0.8-0.2-1.1-0.5l0.4-0.4c0.1,0.2,0.4,0.4,0.6,0.4c0.3,0,0.5-0.2,0.5-0.4c0-0.3-0.2-0.3-0.6-0.4
	c-0.6-0.2-0.9-0.5-0.9-0.9c0-0.5,0.4-1,1-1c0.4,0,0.8,0.2,0.9,0.6l-0.5,0.3c-0.1-0.2-0.2-0.3-0.4-0.3c-0.2,0-0.4,0.2-0.4,0.3
	c0,0.2,0.2,0.3,0.5,0.4C231,23.6,231.4,23.8,231.4,24.4z M231.7,24.3c0,0.7,0.5,1.2,1.2,1.2c0.7,0,1.2-0.5,1.2-1.2
	c0-0.7-0.5-1.2-1.2-1.2C232.2,23,231.7,23.6,231.7,24.3z M232.9,24.9c0.3,0,0.6-0.3,0.6-0.6c0-0.3-0.3-0.6-0.6-0.6
	c-0.3,0-0.6,0.3-0.6,0.6C232.3,24.6,232.6,24.9,232.9,24.9z M235.7,22.1v0.6c-0.4,0-0.6,0.2-0.6,0.6v0.2c0.1-0.2,0.3-0.2,0.6-0.2
	v0.6c-0.4,0-0.6,0.2-0.6,0.6v1h-0.6v-2.2C234.5,22.6,234.8,22.1,235.7,22.1L235.7,22.1z M237.1,25.5c-0.7,0-1.2-0.5-1.2-1.2
	c0-0.7,0.5-1.2,1.2-1.2c0.7,0,1.2,0.5,1.2,1.2C238.3,24.9,237.8,25.5,237.1,25.5z M237.7,24.3c0,0.3-0.3,0.6-0.6,0.6
	c-0.3,0-0.6-0.3-0.6-0.6c0-0.3,0.3-0.6,0.6-0.6C237.4,23.7,237.7,23.9,237.7,24.3z M239.3,23.4v-0.3h-0.6v2.3h0.6v-1.1
	c0-0.4,0.2-0.6,0.6-0.6v-0.7C239.6,23.1,239.4,23.2,239.3,23.4z M240.9,23.7v0.6c0,0.4,0.3,0.6,0.6,0.6v0.6h-0.1
	c-0.8,0-1.2-0.5-1.2-1.1v-1.9h0.6v0.4c0,0.3,0.3,0.5,0.6,0.6v0.6C241.3,23.9,241.1,23.8,240.9,23.7z M242.3,25.5
	c0.2,0,0.4-0.2,0.4-0.4c0-0.2-0.2-0.4-0.4-0.4s-0.4,0.2-0.4,0.4C241.9,25.3,242.1,25.5,242.3,25.5z"/>
<rect x="264.3" y="6.8" class="st0" width="31.7" height="22"/>
<path class="st1" d="M282.3,17.4h1c0.3,0,0.5,0,0.6-0.1c0.1-0.1,0.2-0.2,0.2-0.3c0-0.1,0-0.3,0-0.5c0-0.3,0-0.5-0.1-0.6
	c-0.1-0.2-0.2-0.3-0.4-0.3c0,0-0.2,0-0.3,0h-1.1V17.4z M280.7,20.4v-6.3h3.1c0.4,0,0.7,0,1,0.1c0.5,0.2,0.9,0.5,1,1
	c0.1,0.3,0.1,0.7,0.1,1.2c0,0.6,0,1.1-0.1,1.4c-0.2,0.6-0.6,0.9-1.2,0.9c-0.1,0-0.4,0-0.9,0l-0.3,0h-1v1.6H280.7z M272.3,16.2h1.5
	c0-0.1,0-0.2,0-0.3c0-0.8-0.3-1.4-1-1.5c-0.3-0.1-0.7-0.1-1.4-0.1c-0.4,0-0.8,0-1.1,0c-0.4,0-0.7,0.1-1,0.3
	c-0.2,0.1-0.3,0.3-0.4,0.5c-0.1,0.2-0.1,0.6-0.1,0.9c0,0.5,0.1,0.9,0.2,1.2c0.2,0.3,0.5,0.5,1,0.6c0.2,0,0.5,0.1,1,0.1
	c0.6,0,1,0.1,1,0.1c0.2,0.1,0.3,0.2,0.3,0.5c0,0.1,0,0.2,0,0.3c0,0.1-0.1,0.2-0.3,0.3c-0.1,0-0.3,0-0.6,0H271c-0.2,0-0.3,0-0.4-0.1
	c-0.2-0.1-0.2-0.3-0.2-0.5v-0.1h-1.5c0,0.5,0,0.9,0.1,1.1c0.1,0.4,0.4,0.7,0.8,0.8c0.3,0.1,0.9,0.2,1.8,0.2c0.5,0,0.9,0,1.2-0.1
	c0.6-0.1,1-0.4,1.2-0.8c0.1-0.2,0.1-0.6,0.1-1.1c0-0.2,0-0.4,0-0.6c0-0.3-0.1-0.5-0.3-0.7c-0.2-0.2-0.6-0.4-1.2-0.4
	c-0.2,0-0.6,0-1.3-0.1l-0.3,0c-0.1,0-0.2,0-0.3-0.1c-0.1-0.1-0.2-0.2-0.2-0.5c0-0.3,0.1-0.4,0.2-0.5c0.1-0.1,0.4-0.1,0.8-0.1
	c0.4,0,0.7,0.1,0.8,0.2C272.3,15.7,272.3,15.9,272.3,16.2z M268.9,21.7l0.2,0c0,0.1,0,0.1,0.1,0.2c0,0,0.1,0.1,0.2,0.1
	c0.1,0,0.1,0,0.2,0c0,0,0.1-0.1,0.1-0.1c0,0,0-0.1,0-0.1c0,0,0,0-0.1-0.1c0,0-0.1,0-0.2-0.1c-0.1,0-0.2-0.1-0.3-0.1
	c-0.1-0.1-0.1-0.1-0.1-0.2c0-0.1,0-0.1,0.1-0.2c0-0.1,0.1-0.1,0.1-0.1s0.1,0,0.2,0c0.1,0,0.3,0,0.3,0.1c0.1,0.1,0.1,0.2,0.1,0.3
	l-0.2,0c0-0.1,0-0.1-0.1-0.1c0,0-0.1,0-0.2,0c-0.1,0-0.1,0-0.2,0c0,0,0,0,0,0.1c0,0,0,0.1,0,0.1c0,0,0.1,0.1,0.2,0.1
	c0.1,0,0.2,0.1,0.3,0.1s0.1,0.1,0.1,0.1c0,0.1,0,0.1,0,0.2c0,0.1,0,0.1-0.1,0.2c0,0.1-0.1,0.1-0.2,0.1c-0.1,0-0.2,0-0.3,0
	c-0.1,0-0.3,0-0.3-0.1C268.9,21.9,268.9,21.8,268.9,21.7z M270.1,21.2h0.2v0.9h-0.2V21.2z M270.1,20.9h0.2v0.2h-0.2V20.9z
	 M271.1,22.1h0.2v-0.5c0-0.1,0-0.1,0-0.2c0,0,0-0.1,0-0.1c0,0-0.1-0.1-0.1-0.1c0,0-0.1,0-0.1,0c-0.1,0-0.2,0-0.3,0.1v-0.1h-0.2v0.9
	h0.2v-0.4c0-0.1,0-0.2,0-0.2c0,0,0-0.1,0.1-0.1c0,0,0.1,0,0.1,0c0,0,0.1,0,0.1,0c0,0,0,0,0,0.1c0,0,0,0.1,0,0.2V22.1z M271.8,21.6
	c0,0.1,0,0.2,0.1,0.2c0,0,0.1,0.1,0.1,0.1c0.1,0,0.1,0,0.1-0.1c0,0,0.1-0.1,0.1-0.2c0-0.1,0-0.2-0.1-0.2c0,0-0.1-0.1-0.1-0.1
	c-0.1,0-0.1,0-0.1,0.1C271.8,21.5,271.8,21.5,271.8,21.6z M271.6,22.1l0.3,0c0,0,0,0.1,0,0.1c0,0,0.1,0,0.1,0c0.1,0,0.1,0,0.1,0
	c0,0,0,0,0-0.1c0,0,0-0.1,0-0.1l0-0.1c-0.1,0.1-0.2,0.1-0.3,0.1c-0.1,0-0.2,0-0.3-0.1c-0.1-0.1-0.1-0.2-0.1-0.3c0-0.1,0-0.3,0.1-0.3
	c0.1-0.1,0.2-0.1,0.3-0.1c0.1,0,0.2,0,0.3,0.1v-0.1h0.2V22c0,0.1,0,0.2,0,0.2c0,0.1,0,0.1-0.1,0.1c0,0-0.1,0.1-0.1,0.1
	c-0.1,0-0.1,0-0.2,0c-0.1,0-0.2,0-0.3-0.1C271.6,22.3,271.6,22.2,271.6,22.1C271.6,22.2,271.6,22.1,271.6,22.1z M272.9,20.9h-0.2
	v1.2h0.2V20.9z M273.7,21.6c0-0.1,0-0.1-0.1-0.2c0,0-0.1-0.1-0.1-0.1c0,0-0.1,0-0.1,0.1c0,0,0,0.1,0,0.2H273.7z M273.7,21.8l0.2,0
	c0,0.1-0.1,0.1-0.1,0.2c-0.1,0-0.1,0.1-0.2,0.1c-0.1,0-0.3,0-0.3-0.1c-0.1-0.1-0.1-0.2-0.1-0.3c0-0.1,0-0.3,0.1-0.3
	c0.1-0.1,0.2-0.1,0.3-0.1c0.1,0,0.2,0,0.3,0.1c0.1,0.1,0.1,0.2,0.1,0.4h-0.6c0,0.1,0,0.1,0.1,0.2c0,0,0.1,0.1,0.1,0.1
	C273.6,21.9,273.6,21.9,273.7,21.8C273.7,21.9,273.7,21.9,273.7,21.8z M274.7,20.9v1.2h0.9v-0.2h-0.7v-0.3h0.6v-0.2h-0.6v-0.3h0.6
	v-0.2H274.7z M276.4,22.1V22c0,0-0.1,0.1-0.1,0.1c0,0-0.1,0-0.2,0s-0.1,0-0.2,0c0,0-0.1-0.1-0.1-0.1c0,0,0-0.1,0-0.2v-0.6h0.2v0.4
	c0,0.1,0,0.2,0,0.2c0,0,0,0,0,0.1c0,0,0,0,0.1,0c0,0,0.1,0,0.1,0c0,0,0.1,0,0.1-0.1c0,0,0-0.1,0-0.2v-0.4h0.2v0.9H276.4z
	 M276.9,22.1h0.2v-0.3c0-0.1,0-0.2,0-0.3c0,0,0-0.1,0.1-0.1c0,0,0,0,0.1,0c0,0,0.1,0,0.1,0l0.1-0.2c0,0-0.1,0-0.1,0c0,0-0.1,0-0.1,0
	s-0.1,0.1-0.1,0.1v-0.1h-0.2V22.1z M277.7,21.6c0,0.1,0,0.2,0.1,0.2c0,0,0.1,0.1,0.1,0.1s0.1,0,0.1-0.1c0,0,0.1-0.1,0.1-0.2
	c0-0.1,0-0.2-0.1-0.2c0,0-0.1-0.1-0.1-0.1s-0.1,0-0.1,0.1C277.8,21.5,277.7,21.6,277.7,21.6z M277.5,21.6c0-0.1,0-0.2,0.1-0.2
	c0-0.1,0.1-0.1,0.2-0.2c0.1,0,0.1-0.1,0.2-0.1c0.1,0,0.2,0,0.3,0.1c0.1,0.1,0.1,0.2,0.1,0.3c0,0.1,0,0.2-0.1,0.3
	c-0.1,0.1-0.2,0.1-0.3,0.1c-0.1,0-0.2,0-0.2-0.1c-0.1,0-0.1-0.1-0.2-0.2C277.5,21.8,277.5,21.7,277.5,21.6z M279.4,21.4v-0.3h0.1
	c0.1,0,0.1,0,0.2,0c0,0,0.1,0,0.1,0.1c0,0,0,0.1,0,0.1c0,0,0,0.1,0,0.1s0,0-0.1,0.1c0,0-0.1,0-0.2,0H279.4z M279.1,20.9v1.2h0.2
	v-0.5h0.2c0.1,0,0.2,0,0.2,0c0,0,0.1,0,0.1-0.1c0,0,0.1-0.1,0.1-0.1c0-0.1,0-0.1,0-0.2c0-0.1,0-0.2-0.1-0.2c0-0.1-0.1-0.1-0.2-0.1
	c0,0-0.1,0-0.3,0H279.1z M280.8,21.7c0,0-0.1,0-0.1,0c-0.1,0-0.1,0-0.1,0c0,0,0,0,0,0.1c0,0,0,0.1,0,0.1c0,0,0.1,0,0.1,0
	c0,0,0.1,0,0.1,0c0,0,0,0,0.1-0.1C280.8,21.8,280.8,21.8,280.8,21.7L280.8,21.7z M280.4,21.5l-0.2,0c0-0.1,0.1-0.1,0.1-0.2
	c0.1,0,0.1-0.1,0.3-0.1c0.1,0,0.2,0,0.2,0c0,0,0.1,0.1,0.1,0.1c0,0,0,0.1,0,0.2l0,0.3c0,0.1,0,0.1,0,0.2c0,0,0,0.1,0,0.1h-0.2
	c0,0,0,0,0-0.1c0,0,0,0,0,0c0,0-0.1,0.1-0.1,0.1s-0.1,0-0.1,0c-0.1,0-0.2,0-0.2-0.1c-0.1,0-0.1-0.1-0.1-0.2c0,0,0-0.1,0-0.1
	c0,0,0.1-0.1,0.1-0.1C280.4,21.6,280.5,21.6,280.4,21.5c0.2,0.1,0.3,0.1,0.3,0v0c0,0,0-0.1,0-0.1c0,0-0.1,0-0.1,0
	C280.6,21.4,280.5,21.4,280.4,21.5C280.5,21.4,280.5,21.4,280.4,21.5z M281.4,21.2h-0.2l0.3,0.9c0,0,0,0.1-0.1,0.1c0,0-0.1,0-0.1,0
	c0,0-0.1,0-0.1,0l0,0.2c0,0,0.1,0,0.1,0c0,0,0.1,0,0.1,0c0,0,0.1,0,0.1,0c0,0,0,0,0.1-0.1c0,0,0-0.1,0.1-0.1l0.4-1h-0.2l-0.2,0.6
	L281.4,21.2z M282.2,21.2h0.2v0.1c0.1-0.1,0.2-0.1,0.3-0.1c0.1,0,0.1,0,0.1,0c0,0,0.1,0.1,0.1,0.1c0,0,0.1-0.1,0.1-0.1
	c0,0,0.1,0,0.1,0c0.1,0,0.1,0,0.2,0c0,0,0.1,0.1,0.1,0.1c0,0,0,0.1,0,0.2v0.6h-0.2v-0.5c0-0.1,0-0.1,0-0.2c0,0-0.1,0-0.1,0
	c0,0-0.1,0-0.1,0c0,0,0,0-0.1,0.1c0,0,0,0.1,0,0.2v0.4h-0.2v-0.5c0-0.1,0-0.1,0-0.2c0,0,0,0,0-0.1c0,0,0,0-0.1,0c0,0-0.1,0-0.1,0
	c0,0,0,0-0.1,0.1c0,0,0,0.1,0,0.2v0.4h-0.2V21.2z M284.2,21.4c0,0,0,0.1,0.1,0.2h-0.3c0-0.1,0-0.1,0-0.2c0,0,0.1-0.1,0.1-0.1
	C284.1,21.4,284.2,21.4,284.2,21.4z M284.5,21.8l-0.2,0c0,0,0,0.1-0.1,0.1c0,0-0.1,0-0.1,0c-0.1,0-0.1,0-0.1-0.1
	c0,0-0.1-0.1-0.1-0.2h0.6c0-0.2,0-0.3-0.1-0.4c-0.1-0.1-0.2-0.1-0.3-0.1c-0.1,0-0.2,0-0.3,0.1c-0.1,0.1-0.1,0.2-0.1,0.3
	c0,0.1,0,0.2,0.1,0.3c0.1,0.1,0.2,0.1,0.3,0.1c0.1,0,0.2,0,0.2-0.1C284.4,22,284.4,21.9,284.5,21.8z M285.5,22.1h-0.2v-0.4
	c0-0.1,0-0.2,0-0.2c0,0,0,0,0-0.1c0,0,0,0-0.1,0c0,0-0.1,0-0.1,0c0,0-0.1,0.1-0.1,0.1c0,0,0,0.1,0,0.2v0.4h-0.2v-0.9h0.2v0.1
	c0.1-0.1,0.2-0.1,0.3-0.1c0,0,0.1,0,0.1,0c0,0,0.1,0,0.1,0.1c0,0,0,0.1,0,0.1c0,0,0,0.1,0,0.2V22.1z M286.1,21.4v-0.2H286v-0.3
	l-0.2,0.1v0.2h-0.1v0.2h0.1v0.4c0,0.1,0,0.1,0,0.2c0,0,0,0.1,0,0.1s0,0,0.1,0.1c0,0,0.1,0,0.1,0c0.1,0,0.1,0,0.2,0l0-0.2
	c0,0-0.1,0-0.1,0c0,0,0,0,0,0c0,0,0,0,0,0c0,0,0-0.1,0-0.1v-0.4H286.1z M286.3,21.8l0.2,0c0,0,0,0.1,0.1,0.1c0,0,0.1,0,0.1,0
	c0.1,0,0.1,0,0.1,0c0,0,0,0,0-0.1c0,0,0,0,0,0c0,0,0,0-0.1,0c-0.2,0-0.3-0.1-0.3-0.1c-0.1,0-0.1-0.1-0.1-0.2c0-0.1,0-0.1,0.1-0.2
	c0.1-0.1,0.2-0.1,0.3-0.1c0.1,0,0.2,0,0.3,0.1c0.1,0,0.1,0.1,0.1,0.2l-0.2,0c0,0,0-0.1-0.1-0.1s-0.1,0-0.1,0c-0.1,0-0.1,0-0.1,0
	c0,0,0,0,0,0c0,0,0,0,0,0c0,0,0.1,0,0.2,0.1s0.2,0.1,0.3,0.1c0,0,0.1,0.1,0.1,0.2c0,0.1,0,0.1-0.1,0.2c-0.1,0.1-0.2,0.1-0.3,0.1
	c-0.1,0-0.2,0-0.3-0.1C286.3,22,286.3,21.9,286.3,21.8z M288.3,21.2l0.2,0.4h-0.3L288.3,21.2z M288.6,22.1h0.3l-0.5-1.2h-0.3
	l-0.5,1.2h0.3l0.1-0.3h0.5L288.6,22.1z M289.3,22.1h-0.2v-0.9h0.2v0.1c0-0.1,0.1-0.1,0.1-0.1c0,0,0.1,0,0.1,0c0.1,0,0.1,0,0.1,0
	l-0.1,0.2c0,0-0.1,0-0.1,0c0,0-0.1,0-0.1,0c0,0,0,0-0.1,0.1c0,0,0,0.1,0,0.3V22.1z M290.2,21.4c0,0,0,0.1,0.1,0.2h-0.3
	c0-0.1,0-0.1,0-0.2c0,0,0.1-0.1,0.1-0.1C290.1,21.4,290.2,21.4,290.2,21.4z M290.5,21.8l-0.2,0c0,0,0,0.1-0.1,0.1c0,0-0.1,0-0.1,0
	c-0.1,0-0.1,0-0.1-0.1c0,0-0.1-0.1-0.1-0.2h0.6c0-0.2,0-0.3-0.1-0.4c-0.1-0.1-0.2-0.1-0.3-0.1c-0.1,0-0.2,0-0.3,0.1
	c-0.1,0.1-0.1,0.2-0.1,0.3c0,0.1,0,0.2,0.1,0.3c0.1,0.1,0.2,0.1,0.3,0.1c0.1,0,0.2,0,0.2-0.1C290.4,22,290.5,21.9,290.5,21.8z
	 M291.2,21.7c0,0-0.1,0-0.1,0c-0.1,0-0.1,0-0.1,0c0,0,0,0,0,0.1c0,0,0,0.1,0,0.1c0,0,0.1,0,0.1,0c0,0,0.1,0,0.1,0c0,0,0,0,0.1-0.1
	C291.2,21.8,291.2,21.8,291.2,21.7L291.2,21.7z M290.9,21.5l-0.2,0c0-0.1,0.1-0.1,0.1-0.2c0.1,0,0.1-0.1,0.3-0.1c0.1,0,0.2,0,0.2,0
	c0,0,0.1,0.1,0.1,0.1c0,0,0,0.1,0,0.2l0,0.3c0,0.1,0,0.1,0,0.2c0,0,0,0.1,0,0.1h-0.2c0,0,0,0,0-0.1l0,0l0,0l0,0c0,0-0.1,0.1-0.1,0.1
	s-0.1,0-0.1,0c-0.1,0-0.2,0-0.2-0.1c-0.1,0-0.1-0.1-0.1-0.2c0,0,0-0.1,0-0.1c0,0,0.1-0.1,0.1-0.1C290.8,21.6,290.9,21.6,290.9,21.5
	c0.2,0.1,0.3,0.1,0.3,0v0c0,0,0-0.1,0-0.1c0,0-0.1,0-0.1,0C291,21.4,291,21.4,290.9,21.5C290.9,21.4,290.9,21.4,290.9,21.5z
	 M288.4,15.4l0.8,2.7h-1.5L288.4,15.4z M287.2,19.4h2.2l0.3,1.1h1.7l-1.9-6.3h-2.5l-1.9,6.3h1.7L287.2,19.4z"/>
<path class="st8" d="M278.4,15.1c0.7,0,1.3,0.3,1.7,0.8l0.4-0.8c-0.6-0.5-1.3-0.9-2.2-0.9c-1.3,0-2.4,0.8-2.9,1.9h-0.7l-0.4,0.9h0.9
	c0,0.1,0,0.2,0,0.3c0,0.1,0,0.2,0,0.3h-0.5l-0.4,0.9h1.1c0.5,1.1,1.6,1.9,2.9,1.9c0.7,0,1.3-0.2,1.8-0.5v-1.1
	c-0.4,0.5-1,0.8-1.6,0.8c-0.8,0-1.4-0.4-1.8-1h2.3l0.4-0.9h-3c0-0.1,0-0.2,0-0.3c0-0.1,0-0.2,0-0.2h3.3l0.4-0.9h-3.4
	C276.9,15.5,277.6,15.1,278.4,15.1z"/>
</svg>
