<svg width="398" height="43" viewBox="0 0 398 43" fill="none" xmlns="http://www.w3.org/2000/svg">
<path d="M27.8889 11.0752V7.64659C27.8889 6.73728 27.5143 5.8652 26.8475 5.22222C26.1807 4.57924 25.2763 4.21802 24.3333 4.21802H6.55556C5.61256 4.21802 4.70819 4.57924 4.0414 5.22222C3.3746 5.8652 3 6.73728 3 7.64659V17.9323C3 18.8416 3.3746 19.7137 4.0414 20.3567C4.70819 20.9997 5.61256 21.3609 6.55556 21.3609H10.1111M13.6667 28.218H31.4444C32.3874 28.218 33.2918 27.8568 33.9586 27.2138C34.6254 26.5708 35 25.6988 35 24.7894V14.5037C35 13.5944 34.6254 12.7223 33.9586 12.0794C33.2918 11.4364 32.3874 11.0752 31.4444 11.0752H13.6667C12.7237 11.0752 11.8193 11.4364 11.1525 12.0794C10.4857 12.7223 10.1111 13.5944 10.1111 14.5037V24.7894C10.1111 25.6988 10.4857 26.5708 11.1525 27.2138C11.8193 27.8568 12.7237 28.218 13.6667 28.218ZM26.1111 19.6466C26.1111 20.5559 25.7365 21.428 25.0697 22.071C24.4029 22.7139 23.4985 23.0752 22.5556 23.0752C21.6126 23.0752 20.7082 22.7139 20.0414 22.071C19.3746 21.428 19 20.5559 19 19.6466C19 18.7373 19.3746 17.8652 20.0414 17.2222C20.7082 16.5792 21.6126 16.218 22.5556 16.218C23.4985 16.218 24.4029 16.5792 25.0697 17.2222C25.7365 17.8652 26.1111 18.7373 26.1111 19.6466Z" fill="white"/>
<path d="M27.8889 11.0752V7.64659C27.8889 6.73728 27.5143 5.8652 26.8475 5.22222C26.1807 4.57924 25.2763 4.21802 24.3333 4.21802H6.55556C5.61256 4.21802 4.70819 4.57924 4.0414 5.22222C3.3746 5.8652 3 6.73728 3 7.64659V17.9323C3 18.8416 3.3746 19.7137 4.0414 20.3567C4.70819 20.9997 5.61256 21.3609 6.55556 21.3609H10.1111M13.6667 28.218H31.4444C32.3874 28.218 33.2918 27.8568 33.9586 27.2138C34.6254 26.5708 35 25.6988 35 24.7894V14.5037C35 13.5944 34.6254 12.7223 33.9586 12.0794C33.2918 11.4364 32.3874 11.0752 31.4444 11.0752H13.6667C12.7237 11.0752 11.8193 11.4364 11.1525 12.0794C10.4857 12.7223 10.1111 13.5944 10.1111 14.5037V24.7894C10.1111 25.6988 10.4857 26.5708 11.1525 27.2138C11.8193 27.8568 12.7237 28.218 13.6667 28.218ZM26.1111 19.6466C26.1111 20.5559 25.7365 21.428 25.0697 22.071C24.4029 22.7139 23.4985 23.0752 22.5556 23.0752C21.6126 23.0752 20.7082 22.7139 20.0414 22.071C19.3746 21.428 19 20.5559 19 19.6466C19 18.7373 19.3746 17.8652 20.0414 17.2222C20.7082 16.5792 21.6126 16.218 22.5556 16.218C23.4985 16.218 24.4029 16.5792 25.0697 17.2222C25.7365 17.8652 26.1111 18.7373 26.1111 19.6466Z" stroke="#0F172A" stroke-linecap="round" stroke-linejoin="round"/>
<path d="M0.849547 37.218V32.003H3.04755C3.37421 32.003 3.65655 32.0614 3.89455 32.178C4.13255 32.29 4.31455 32.4534 4.44055 32.668C4.56655 32.878 4.62955 33.1277 4.62955 33.417C4.62955 33.669 4.56421 33.9 4.43355 34.11C4.30755 34.3154 4.10921 34.4787 3.83855 34.6V34.25C4.07655 34.3434 4.27021 34.4624 4.41955 34.607C4.56888 34.747 4.67621 34.9057 4.74155 35.083C4.81155 35.2604 4.84655 35.447 4.84655 35.643C4.84655 36.133 4.68555 36.518 4.36355 36.798C4.04621 37.078 3.60988 37.218 3.05455 37.218H0.849547ZM1.67555 36.483H3.11755C3.39288 36.483 3.61221 36.4084 3.77555 36.259C3.93888 36.105 4.02055 35.902 4.02055 35.65C4.02055 35.3934 3.93888 35.1904 3.77555 35.041C3.61221 34.887 3.39288 34.81 3.11755 34.81H1.67555V36.483ZM1.67555 34.082H3.06855C3.29255 34.082 3.47221 34.019 3.60755 33.893C3.74288 33.7624 3.81055 33.592 3.81055 33.382C3.81055 33.172 3.74288 33.0087 3.60755 32.892C3.47221 32.7754 3.29255 32.717 3.06855 32.717H1.67555V34.082ZM6.75323 37.302C6.49656 37.302 6.27023 37.2577 6.07423 37.169C5.88289 37.0757 5.73356 36.9497 5.62623 36.791C5.51889 36.6277 5.46523 36.4364 5.46523 36.217C5.46523 36.0117 5.50956 35.8274 5.59823 35.664C5.69156 35.5007 5.83389 35.363 6.02523 35.251C6.21656 35.139 6.45689 35.0597 6.74623 35.013L8.06223 34.796V35.419L6.90023 35.622C6.69023 35.6594 6.53623 35.727 6.43823 35.825C6.34023 35.9184 6.29123 36.0397 6.29123 36.189C6.29123 36.3337 6.34489 36.4527 6.45223 36.546C6.56423 36.6347 6.70656 36.679 6.87923 36.679C7.09389 36.679 7.28056 36.6324 7.43923 36.539C7.60256 36.4457 7.72856 36.322 7.81723 36.168C7.90589 36.0094 7.95023 35.8344 7.95023 35.643V34.67C7.95023 34.4834 7.88023 34.3317 7.74023 34.215C7.60489 34.0937 7.42289 34.033 7.19423 34.033C6.98423 34.033 6.79989 34.089 6.64123 34.201C6.48723 34.3084 6.37289 34.4484 6.29823 34.621L5.64023 34.292C5.71023 34.1054 5.82456 33.942 5.98323 33.802C6.14189 33.6574 6.32623 33.5454 6.53623 33.466C6.75089 33.3867 6.97723 33.347 7.21523 33.347C7.51389 33.347 7.77756 33.403 8.00623 33.515C8.23956 33.627 8.41923 33.7834 8.54523 33.984C8.67589 34.18 8.74123 34.4087 8.74123 34.67V37.218H7.98523V36.532L8.14623 36.553C8.05756 36.707 7.94323 36.84 7.80323 36.952C7.66789 37.064 7.51156 37.1504 7.33423 37.211C7.16156 37.2717 6.96789 37.302 6.75323 37.302ZM9.6661 37.218V33.431H10.4221V34.194L10.3521 34.082C10.4361 33.8347 10.5714 33.6574 10.7581 33.55C10.9448 33.438 11.1688 33.382 11.4301 33.382H11.6611V34.103H11.3321C11.0708 34.103 10.8584 34.1847 10.6951 34.348C10.5364 34.5067 10.4571 34.7354 10.4571 35.034V37.218H9.6661ZM11.8592 37.218V36.567L14.0852 33.872L14.2112 34.145H11.9642V33.431H14.9112V34.075L12.7132 36.777L12.5872 36.497H14.9182V37.218H11.8592ZM16.6312 37.302C16.3745 37.302 16.1482 37.2577 15.9522 37.169C15.7608 37.0757 15.6115 36.9497 15.5042 36.791C15.3968 36.6277 15.3432 36.4364 15.3432 36.217C15.3432 36.0117 15.3875 35.8274 15.4762 35.664C15.5695 35.5007 15.7118 35.363 15.9032 35.251C16.0945 35.139 16.3348 35.0597 16.6242 35.013L17.9402 34.796V35.419L16.7782 35.622C16.5682 35.6594 16.4142 35.727 16.3162 35.825C16.2182 35.9184 16.1692 36.0397 16.1692 36.189C16.1692 36.3337 16.2228 36.4527 16.3302 36.546C16.4422 36.6347 16.5845 36.679 16.7572 36.679C16.9718 36.679 17.1585 36.6324 17.3172 36.539C17.4805 36.4457 17.6065 36.322 17.6952 36.168C17.7838 36.0094 17.8282 35.8344 17.8282 35.643V34.67C17.8282 34.4834 17.7582 34.3317 17.6182 34.215C17.4828 34.0937 17.3008 34.033 17.0722 34.033C16.8622 34.033 16.6778 34.089 16.5192 34.201C16.3652 34.3084 16.2508 34.4484 16.1762 34.621L15.5182 34.292C15.5882 34.1054 15.7025 33.942 15.8612 33.802C16.0198 33.6574 16.2042 33.5454 16.4142 33.466C16.6288 33.3867 16.8552 33.347 17.0932 33.347C17.3918 33.347 17.6555 33.403 17.8842 33.515C18.1175 33.627 18.2972 33.7834 18.4232 33.984C18.5538 34.18 18.6192 34.4087 18.6192 34.67V37.218H17.8632V36.532L18.0242 36.553C17.9355 36.707 17.8212 36.84 17.6812 36.952C17.5458 37.064 17.3895 37.1504 17.2122 37.211C17.0395 37.2717 16.8458 37.302 16.6312 37.302ZM19.544 37.218V31.919H20.335V34.173L20.209 34.075C20.3024 33.837 20.4517 33.6574 20.657 33.536C20.8624 33.41 21.1004 33.347 21.371 33.347C21.651 33.347 21.8984 33.4077 22.113 33.529C22.3277 33.6504 22.4957 33.8184 22.617 34.033C22.7384 34.2477 22.799 34.4927 22.799 34.768V37.218H22.015V34.985C22.015 34.7937 21.9777 34.6327 21.903 34.502C21.833 34.3667 21.735 34.264 21.609 34.194C21.483 34.1194 21.3384 34.082 21.175 34.082C21.0164 34.082 20.8717 34.1194 20.741 34.194C20.615 34.264 20.5147 34.3667 20.44 34.502C20.37 34.6374 20.335 34.7984 20.335 34.985V37.218H19.544ZM23.6456 37.218V31.919H24.4366V37.218H23.6456ZM26.7124 37.302C26.4277 37.302 26.1781 37.239 25.9634 37.113C25.7487 36.9824 25.5807 36.8027 25.4594 36.574C25.3427 36.3407 25.2844 36.0724 25.2844 35.769V33.431H26.0754V35.699C26.0754 35.8717 26.1104 36.0234 26.1804 36.154C26.2504 36.2847 26.3484 36.3874 26.4744 36.462C26.6004 36.532 26.7451 36.567 26.9084 36.567C27.0764 36.567 27.2234 36.5297 27.3494 36.455C27.4754 36.3804 27.5734 36.2754 27.6434 36.14C27.7181 36.0047 27.7554 35.846 27.7554 35.664V33.431H28.5394V37.218H27.7904V36.476L27.8744 36.574C27.7857 36.8074 27.6387 36.987 27.4334 37.113C27.2281 37.239 26.9877 37.302 26.7124 37.302ZM29.463 37.218V33.431H30.219V34.173L30.128 34.075C30.2213 33.837 30.3706 33.6574 30.576 33.536C30.7813 33.41 31.0193 33.347 31.29 33.347C31.57 33.347 31.8173 33.4077 32.032 33.529C32.2466 33.6504 32.4146 33.8184 32.536 34.033C32.6573 34.2477 32.718 34.495 32.718 34.775V37.218H31.934V34.985C31.934 34.7937 31.899 34.6327 31.829 34.502C31.759 34.3667 31.6586 34.264 31.528 34.194C31.402 34.1194 31.2573 34.082 31.094 34.082C30.9306 34.082 30.7836 34.1194 30.653 34.194C30.527 34.264 30.429 34.3667 30.359 34.502C30.289 34.6374 30.254 34.7984 30.254 34.985V37.218H29.463ZM35.3915 38.758C35.1162 38.758 34.8619 38.7137 34.6285 38.625C34.3952 38.5364 34.1945 38.4127 34.0265 38.254C33.8585 38.1 33.7325 37.918 33.6485 37.708L34.3765 37.407C34.4419 37.5844 34.5609 37.7314 34.7335 37.848C34.9109 37.9647 35.1279 38.023 35.3845 38.023C35.5852 38.023 35.7649 37.9834 35.9235 37.904C36.0822 37.8294 36.2082 37.7174 36.3015 37.568C36.3949 37.4234 36.4415 37.2484 36.4415 37.043V36.189L36.5815 36.35C36.4509 36.5927 36.2689 36.777 36.0355 36.903C35.8069 37.029 35.5479 37.092 35.2585 37.092C34.9085 37.092 34.5935 37.0104 34.3135 36.847C34.0335 36.6837 33.8119 36.4597 33.6485 36.175C33.4899 35.8904 33.4105 35.5707 33.4105 35.216C33.4105 34.8567 33.4899 34.537 33.6485 34.257C33.8119 33.977 34.0312 33.7554 34.3065 33.592C34.5819 33.4287 34.8969 33.347 35.2515 33.347C35.5409 33.347 35.7975 33.41 36.0215 33.536C36.2502 33.6574 36.4369 33.8347 36.5815 34.068L36.4765 34.264V33.431H37.2255V37.043C37.2255 37.3697 37.1462 37.6614 36.9875 37.918C36.8335 38.1794 36.6189 38.3847 36.3435 38.534C36.0682 38.6834 35.7509 38.758 35.3915 38.758ZM35.3495 36.357C35.5595 36.357 35.7462 36.308 35.9095 36.21C36.0729 36.1074 36.2012 35.972 36.2945 35.804C36.3925 35.6314 36.4415 35.4377 36.4415 35.223C36.4415 35.0084 36.3925 34.8147 36.2945 34.642C36.1965 34.4694 36.0659 34.334 35.9025 34.236C35.7392 34.1334 35.5549 34.082 35.3495 34.082C35.1349 34.082 34.9435 34.1334 34.7755 34.236C34.6075 34.334 34.4745 34.4694 34.3765 34.642C34.2832 34.81 34.2365 35.0037 34.2365 35.223C34.2365 35.433 34.2832 35.6244 34.3765 35.797C34.4745 35.9697 34.6075 36.1074 34.7755 36.21C34.9435 36.308 35.1349 36.357 35.3495 36.357Z" fill="white"/>
<path d="M117.252 38.7887V36.5964C117.264 36.4121 117.238 36.227 117.174 36.0538C117.109 35.8805 117.009 35.7229 116.879 35.5915C116.749 35.4601 116.592 35.358 116.42 35.2918C116.247 35.2257 116.063 35.1972 115.878 35.2081C115.637 35.1923 115.396 35.2417 115.18 35.3509C114.964 35.4602 114.781 35.6253 114.651 35.8292C114.532 35.6314 114.362 35.4693 114.159 35.36C113.956 35.2507 113.727 35.1982 113.497 35.2081C113.296 35.198 113.096 35.2405 112.917 35.3315C112.737 35.4225 112.585 35.5588 112.474 35.7269V35.2958H111.714V38.7887H112.481V36.8522C112.465 36.7327 112.475 36.611 112.511 36.4959C112.547 36.3808 112.608 36.275 112.69 36.1863C112.771 36.0976 112.872 36.0281 112.983 35.9827C113.095 35.9374 113.216 35.9174 113.336 35.9242C113.84 35.9242 114.096 36.253 114.096 36.8449V38.7887H114.863V36.8522C114.848 36.7329 114.858 36.6117 114.895 36.4972C114.931 36.3826 114.993 36.2774 115.074 36.1889C115.155 36.1005 115.255 36.031 115.366 35.9852C115.478 35.9395 115.597 35.9187 115.718 35.9242C116.236 35.9242 116.485 36.253 116.485 36.8449V38.7887H117.252ZM128.604 35.2958H127.362V34.2362H126.595V35.2958H125.886V35.99H126.595V37.5829C126.595 38.394 126.909 38.8763 127.807 38.8763C128.143 38.8774 128.472 38.7836 128.757 38.6059L128.538 37.9556C128.334 38.0772 128.103 38.1451 127.866 38.1529C127.486 38.1529 127.362 37.919 127.362 37.5684V35.99H128.604V35.2958ZM135.083 35.2081C134.898 35.2026 134.715 35.2473 134.553 35.3373C134.391 35.4273 134.256 35.5594 134.163 35.7196V35.2958H133.41V38.7887H134.17V36.8303C134.17 36.253 134.418 35.9315 134.915 35.9315C135.078 35.9293 135.239 35.9591 135.39 36.0192L135.624 35.3031C135.45 35.241 135.267 35.2088 135.083 35.2081ZM125.287 35.5734C124.857 35.3177 124.363 35.1908 123.863 35.2081C122.979 35.2081 122.409 35.6319 122.409 36.3261C122.409 36.8961 122.833 37.2468 123.614 37.3564L123.972 37.4075C124.389 37.4659 124.586 37.5756 124.586 37.7729C124.586 38.0433 124.308 38.1968 123.79 38.1968C123.372 38.2088 122.963 38.0801 122.628 37.8313L122.27 38.4232C122.713 38.7324 123.243 38.8912 123.782 38.8763C124.79 38.8763 125.375 38.4013 125.375 37.7364C125.375 37.1226 124.915 36.801 124.155 36.6914L123.797 36.6403C123.468 36.5964 123.205 36.5307 123.205 36.2969C123.205 36.0411 123.454 35.8876 123.87 35.8876C124.252 35.8934 124.627 35.9965 124.958 36.1872L125.287 35.5734ZM145.639 35.2081C145.454 35.2026 145.27 35.2473 145.108 35.3373C144.946 35.4273 144.812 35.5594 144.719 35.7196V35.2958H143.966V38.7887H144.726V36.8303C144.726 36.253 144.974 35.9315 145.471 35.9315C145.633 35.9293 145.795 35.9591 145.946 36.0192L146.18 35.3031C146.006 35.241 145.823 35.2088 145.639 35.2081ZM135.85 37.0421C135.84 37.2882 135.882 37.5337 135.972 37.7627C136.062 37.9918 136.2 38.1994 136.375 38.3721C136.551 38.5449 136.76 38.679 136.991 38.7658C137.221 38.8527 137.467 38.8903 137.713 38.8763C138.169 38.8993 138.617 38.7507 138.969 38.4598L138.604 37.846C138.342 38.0462 138.021 38.1564 137.691 38.1602C137.406 38.1429 137.139 38.0176 136.944 37.8098C136.748 37.6021 136.639 37.3275 136.639 37.0422C136.639 36.7569 136.748 36.4823 136.944 36.2745C137.139 36.0668 137.406 35.9415 137.691 35.9242C138.021 35.9279 138.342 36.0381 138.604 36.2384L138.969 35.6246C138.617 35.3337 138.169 35.1852 137.713 35.2081C137.467 35.1941 137.221 35.2317 136.991 35.3186C136.76 35.4054 136.551 35.5395 136.375 35.7122C136.2 35.885 136.063 36.0925 135.972 36.3216C135.882 36.5506 135.84 36.7961 135.85 37.0421ZM142.965 37.0421V35.2958H142.206V35.7196C142.076 35.5524 141.908 35.4188 141.716 35.3298C141.524 35.2408 141.314 35.1991 141.103 35.2081C140.632 35.2312 140.188 35.4345 139.863 35.7759C139.538 36.1174 139.357 36.5708 139.357 37.0422C139.357 37.5137 139.538 37.9671 139.863 38.3085C140.188 38.65 140.632 38.8533 141.103 38.8763C141.314 38.8854 141.524 38.8436 141.716 38.7546C141.908 38.6656 142.076 38.5319 142.206 38.3648V38.7887H142.965V37.0421ZM140.138 37.0421C140.15 36.836 140.222 36.6379 140.345 36.4721C140.468 36.3063 140.637 36.1802 140.831 36.1093C141.024 36.0384 141.235 36.0257 141.436 36.0729C141.637 36.1202 141.819 36.2252 141.961 36.375C142.103 36.5249 142.198 36.713 142.235 36.9162C142.271 37.1194 142.247 37.3289 142.166 37.5187C142.085 37.7085 141.95 37.8703 141.778 37.9843C141.606 38.0983 141.404 38.1595 141.198 38.1602C141.053 38.1621 140.909 38.1341 140.776 38.0778C140.643 38.0216 140.523 37.9383 140.423 37.8332C140.324 37.7282 140.247 37.6037 140.198 37.4675C140.149 37.3314 140.129 37.1865 140.138 37.0421ZM130.97 35.2081C130.497 35.233 130.051 35.4406 129.727 35.7871C129.403 36.1337 129.225 36.5923 129.232 37.0668C129.239 37.5414 129.429 37.9949 129.762 38.3323C130.096 38.6696 130.547 38.8646 131.022 38.8763C131.543 38.8946 132.052 38.7203 132.453 38.3867L132.081 37.8241C131.792 38.0553 131.435 38.1839 131.065 38.1894C130.814 38.2105 130.565 38.1331 130.37 37.9735C130.175 37.814 130.05 37.5847 130.021 37.3344H132.614C132.621 37.2395 132.629 37.1445 132.629 37.0421C132.621 35.9534 131.949 35.2081 130.97 35.2081ZM130.956 35.8876C131.185 35.8832 131.407 35.9699 131.573 36.1288C131.739 36.2877 131.835 36.5058 131.84 36.7353H130.028C130.041 36.5008 130.146 36.2808 130.319 36.1224C130.493 35.964 130.721 35.8798 130.956 35.8876ZM150.015 37.0421V33.8928H149.255V35.7196C149.125 35.5524 148.957 35.4188 148.766 35.3298C148.574 35.2408 148.363 35.1991 148.152 35.2081C147.681 35.2312 147.237 35.4345 146.912 35.7759C146.587 36.1173 146.406 36.5707 146.406 37.0422C146.406 37.5137 146.587 37.9671 146.912 38.3085C147.237 38.65 147.681 38.8533 148.152 38.8763C148.363 38.8854 148.574 38.8436 148.766 38.7546C148.957 38.6656 149.125 38.5319 149.255 38.3648V38.7887H150.015V37.0421ZM151.281 38.2824C151.328 38.2821 151.375 38.2914 151.419 38.3097C151.46 38.3272 151.498 38.3524 151.531 38.3841C151.563 38.4158 151.589 38.4534 151.606 38.4948C151.625 38.5373 151.634 38.5831 151.634 38.6294C151.634 38.6757 151.625 38.7216 151.606 38.7641C151.589 38.8053 151.563 38.8427 151.531 38.8743C151.498 38.906 151.46 38.9314 151.419 38.9491C151.375 38.9677 151.328 38.9771 151.281 38.9768C151.212 38.9775 151.143 38.9577 151.085 38.9199C151.027 38.882 150.981 38.8279 150.953 38.7641C150.935 38.7215 150.926 38.6757 150.926 38.6294C150.926 38.5831 150.935 38.5373 150.953 38.4948C150.971 38.4534 150.997 38.4159 151.029 38.3841C151.061 38.3522 151.099 38.3269 151.141 38.3097C151.186 38.2914 151.233 38.2821 151.281 38.2824ZM151.281 38.9002C151.317 38.9005 151.353 38.8933 151.386 38.8789C151.418 38.8652 151.446 38.8455 151.471 38.8211C151.521 38.7701 151.55 38.7013 151.55 38.6296C151.55 38.5579 151.521 38.4891 151.471 38.4381C151.446 38.4137 151.418 38.3943 151.386 38.3807C151.353 38.3667 151.317 38.3596 151.281 38.3599C151.244 38.3596 151.208 38.3667 151.174 38.3807C151.142 38.394 151.113 38.4135 151.088 38.4381C151.038 38.4891 151.009 38.5579 151.009 38.6296C151.009 38.7013 151.038 38.7701 151.088 38.8211C151.113 38.8457 151.142 38.8654 151.174 38.8789C151.208 38.8932 151.244 38.9005 151.281 38.9002ZM151.302 38.4671C151.336 38.4648 151.37 38.4746 151.397 38.4948C151.408 38.5039 151.417 38.5154 151.423 38.5285C151.429 38.5415 151.431 38.5558 151.431 38.5701C151.431 38.5823 151.429 38.5945 151.424 38.6058C151.42 38.6172 151.413 38.6274 151.404 38.6359C151.383 38.6547 151.356 38.666 151.328 38.6679L151.433 38.7896H151.351L151.253 38.6687H151.222V38.7896H151.153V38.4671H151.302ZM151.222 38.5275V38.6135H151.301C151.316 38.6142 151.331 38.6105 151.344 38.6028C151.349 38.5992 151.354 38.5943 151.357 38.5886C151.359 38.5828 151.361 38.5764 151.36 38.5701C151.361 38.5638 151.359 38.5575 151.356 38.5519C151.354 38.5463 151.349 38.5415 151.344 38.5381C151.331 38.5304 151.316 38.5268 151.301 38.5275H151.222ZM147.188 37.0421C147.199 36.836 147.271 36.6379 147.394 36.4721C147.517 36.3064 147.686 36.1803 147.88 36.1094C148.074 36.0385 148.284 36.0258 148.485 36.0731C148.686 36.1203 148.869 36.2253 149.011 36.3751C149.153 36.525 149.248 36.7131 149.284 36.9163C149.32 37.1195 149.296 37.3289 149.215 37.5187C149.134 37.7085 148.999 37.8704 148.827 37.9844C148.655 38.0983 148.453 38.1595 148.247 38.1602C148.102 38.1621 147.959 38.1341 147.825 38.0778C147.692 38.0215 147.572 37.9383 147.472 37.8332C147.373 37.7282 147.296 37.6037 147.247 37.4675C147.198 37.3313 147.178 37.1865 147.188 37.0421ZM121.532 37.0421V35.2958H120.773V35.7196C120.643 35.5524 120.475 35.4188 120.283 35.3298C120.091 35.2408 119.881 35.1991 119.67 35.2081C119.199 35.2312 118.755 35.4345 118.43 35.7759C118.105 36.1174 117.924 36.5708 117.924 37.0422C117.924 37.5137 118.105 37.9671 118.43 38.3085C118.755 38.65 119.199 38.8533 119.67 38.8763C119.881 38.8854 120.091 38.8436 120.283 38.7546C120.475 38.6656 120.643 38.5319 120.773 38.3648V38.7887H121.532V37.0421ZM118.705 37.0421C118.717 36.836 118.789 36.6379 118.912 36.4721C119.035 36.3064 119.204 36.1803 119.398 36.1094C119.591 36.0385 119.802 36.0258 120.003 36.0731C120.204 36.1203 120.386 36.2253 120.528 36.3751C120.67 36.525 120.765 36.7131 120.802 36.9163C120.838 37.1195 120.814 37.3289 120.733 37.5187C120.652 37.7085 120.517 37.8704 120.345 37.9844C120.173 38.0984 119.971 38.1595 119.765 38.1602C119.62 38.1621 119.476 38.1341 119.343 38.0778C119.21 38.0215 119.09 37.9383 118.99 37.8332C118.891 37.7282 118.814 37.6037 118.765 37.4675C118.716 37.3313 118.696 37.1865 118.705 37.0421Z" fill="white"/>
<circle cx="122.232" cy="17.959" r="13.5" fill="white"/>
<path d="M151.286 17.6138C151.286 20.0821 150.592 22.5007 149.283 24.593C147.974 26.6853 146.103 28.367 143.884 29.4458C141.664 30.5246 139.186 30.957 136.733 30.6936C134.279 30.4301 131.949 29.4815 130.009 27.9562C131.575 26.725 132.84 25.1545 133.71 23.3629C134.58 21.5714 135.032 19.6056 135.032 17.6138C135.032 15.6221 134.58 13.6563 133.71 11.8647C132.84 10.0732 131.575 8.50264 130.009 7.27149C131.949 5.74613 134.279 4.79752 136.733 4.53411C139.186 4.2707 141.664 4.70311 143.884 5.78191C146.103 6.86071 147.974 8.54237 149.283 10.6347C150.592 12.727 151.286 15.1455 151.286 17.6138Z" fill="white" fill-opacity="0.7"/>
<path d="M150.032 25.7647V25.3413H150.203V25.255H149.768V25.3413H149.939V25.7647H150.032ZM150.876 25.7647V25.2542H150.743L150.59 25.6054L150.436 25.2542H150.303V25.7647H150.397V25.3796L150.541 25.7117H150.638L150.782 25.3788V25.7647H150.876Z" fill="white"/>
<path d="M253.064 12.0713L248.922 31.4143H243.912L248.054 12.0713H253.064ZM274.141 24.5613L276.778 17.2976L278.296 24.5613H274.141ZM279.733 31.4143H284.366L280.319 12.0713H276.045C275.082 12.0713 274.27 12.629 273.911 13.4891L266.394 31.4143H271.655L272.7 28.5256H279.126L279.733 31.4143ZM266.655 25.0995C266.677 19.9945 259.59 19.7118 259.637 17.4307C259.652 16.7377 260.314 15.9994 261.761 15.8106C262.479 15.7184 264.458 15.6435 266.702 16.6764L267.58 12.5729C266.375 12.1374 264.824 11.718 262.894 11.718C257.941 11.718 254.457 14.3458 254.429 18.1116C254.397 20.8964 256.918 22.4491 258.813 23.3767C260.767 24.3247 261.422 24.9324 261.412 25.7795C261.398 27.0773 259.854 27.652 258.416 27.6737C255.896 27.7129 254.435 26.9933 253.271 26.4512L252.361 30.6917C253.534 31.2277 255.694 31.6941 257.931 31.718C263.196 31.718 266.639 29.1212 266.655 25.0995ZM245.905 12.0713L237.788 31.4143H232.493L228.498 15.9772C228.256 15.0279 228.044 14.679 227.308 14.2779C226.103 13.6244 224.114 13.0132 222.366 12.6329L222.484 12.0713H231.009C232.095 12.0713 233.072 12.793 233.32 14.0425L235.431 25.2365L240.642 12.0713H245.905Z" fill="white"/>
<path d="M363.618 38.7887V36.5964C363.63 36.4121 363.604 36.227 363.54 36.0538C363.475 35.8805 363.375 35.7229 363.245 35.5915C363.115 35.4601 362.958 35.358 362.786 35.2918C362.613 35.2257 362.429 35.1972 362.244 35.2081C362.003 35.1923 361.762 35.2417 361.546 35.3509C361.33 35.4602 361.147 35.6253 361.017 35.8292C360.898 35.6314 360.728 35.4693 360.525 35.36C360.322 35.2507 360.093 35.1982 359.863 35.2081C359.662 35.198 359.462 35.2405 359.283 35.3315C359.103 35.4225 358.951 35.5588 358.84 35.7269V35.2958H358.08V38.7887H358.847V36.8522C358.831 36.7327 358.841 36.611 358.877 36.4959C358.913 36.3808 358.974 36.275 359.056 36.1863C359.137 36.0976 359.238 36.0281 359.349 35.9827C359.461 35.9374 359.582 35.9174 359.702 35.9242C360.206 35.9242 360.462 36.253 360.462 36.8449V38.7887H361.229V36.8522C361.213 36.7329 361.224 36.6117 361.261 36.4972C361.297 36.3826 361.359 36.2774 361.44 36.1889C361.521 36.1005 361.621 36.031 361.732 35.9852C361.844 35.9395 361.963 35.9187 362.084 35.9242C362.602 35.9242 362.851 36.253 362.851 36.8449V38.7887H363.618ZM374.97 35.2958H373.728V34.2362H372.961V35.2958H372.252V35.99H372.961V37.5829C372.961 38.394 373.275 38.8763 374.173 38.8763C374.509 38.8774 374.838 38.7836 375.123 38.6059L374.904 37.9556C374.7 38.0772 374.469 38.1451 374.232 38.1529C373.852 38.1529 373.728 37.919 373.728 37.5684V35.99H374.97V35.2958ZM381.449 35.2081C381.264 35.2026 381.081 35.2473 380.919 35.3373C380.757 35.4273 380.622 35.5594 380.529 35.7196V35.2958H379.776V38.7887H380.536V36.8303C380.536 36.253 380.784 35.9315 381.281 35.9315C381.444 35.9293 381.605 35.9591 381.756 36.0192L381.99 35.3031C381.816 35.241 381.633 35.2088 381.449 35.2081ZM371.653 35.5734C371.223 35.3177 370.729 35.1908 370.229 35.2081C369.345 35.2081 368.775 35.6319 368.775 36.3261C368.775 36.8961 369.199 37.2468 369.98 37.3564L370.338 37.4075C370.755 37.4659 370.952 37.5756 370.952 37.7729C370.952 38.0433 370.674 38.1968 370.156 38.1968C369.738 38.2088 369.329 38.0801 368.994 37.8313L368.636 38.4232C369.079 38.7324 369.609 38.8912 370.148 38.8763C371.156 38.8763 371.741 38.4013 371.741 37.7364C371.741 37.1226 371.281 36.801 370.521 36.6914L370.163 36.6403C369.834 36.5964 369.571 36.5307 369.571 36.2969C369.571 36.0411 369.819 35.8876 370.236 35.8876C370.618 35.8934 370.993 35.9965 371.324 36.1872L371.653 35.5734ZM392.005 35.2081C391.82 35.2026 391.636 35.2473 391.474 35.3373C391.312 35.4273 391.178 35.5594 391.085 35.7196V35.2958H390.332V38.7887H391.092V36.8303C391.092 36.253 391.34 35.9315 391.837 35.9315C391.999 35.9293 392.161 35.9591 392.312 36.0192L392.546 35.3031C392.372 35.241 392.189 35.2088 392.005 35.2081ZM382.216 37.0421C382.206 37.2882 382.248 37.5337 382.338 37.7627C382.428 37.9918 382.566 38.1994 382.741 38.3721C382.917 38.5449 383.126 38.679 383.357 38.7658C383.587 38.8527 383.833 38.8903 384.079 38.8763C384.535 38.8993 384.983 38.7507 385.335 38.4598L384.97 37.846C384.708 38.0462 384.387 38.1564 384.057 38.1602C383.772 38.1429 383.505 38.0176 383.31 37.8098C383.114 37.6021 383.005 37.3275 383.005 37.0422C383.005 36.7569 383.114 36.4823 383.31 36.2745C383.505 36.0668 383.772 35.9415 384.057 35.9242C384.387 35.9279 384.708 36.0381 384.97 36.2384L385.335 35.6246C384.983 35.3337 384.535 35.1852 384.079 35.2081C383.833 35.1941 383.587 35.2317 383.357 35.3186C383.126 35.4054 382.917 35.5395 382.741 35.7122C382.566 35.885 382.428 36.0925 382.338 36.3216C382.248 36.5506 382.206 36.7961 382.216 37.0421ZM389.331 37.0421V35.2958H388.572V35.7196C388.442 35.5524 388.274 35.4188 388.082 35.3298C387.89 35.2408 387.68 35.1991 387.468 35.2081C386.998 35.2312 386.554 35.4345 386.229 35.7759C385.904 36.1174 385.723 36.5708 385.723 37.0422C385.723 37.5137 385.904 37.9671 386.229 38.3085C386.554 38.65 386.998 38.8533 387.468 38.8763C387.68 38.8854 387.89 38.8436 388.082 38.7546C388.274 38.6656 388.442 38.5319 388.572 38.3648V38.7887H389.331V37.0421ZM386.504 37.0421C386.516 36.836 386.588 36.6379 386.711 36.4721C386.834 36.3063 387.003 36.1802 387.197 36.1093C387.39 36.0384 387.601 36.0257 387.802 36.0729C388.003 36.1202 388.185 36.2252 388.327 36.375C388.469 36.5249 388.564 36.713 388.601 36.9162C388.637 37.1194 388.613 37.3289 388.532 37.5187C388.451 37.7085 388.316 37.8703 388.144 37.9843C387.972 38.0983 387.77 38.1595 387.564 38.1602C387.419 38.1621 387.275 38.1341 387.142 38.0778C387.009 38.0216 386.889 37.9383 386.789 37.8332C386.69 37.7282 386.613 37.6037 386.564 37.4675C386.515 37.3314 386.494 37.1865 386.504 37.0421ZM377.336 35.2081C376.863 35.233 376.417 35.4406 376.093 35.7871C375.769 36.1337 375.591 36.5923 375.598 37.0668C375.605 37.5414 375.795 37.9949 376.128 38.3323C376.462 38.6696 376.913 38.8646 377.388 38.8763C377.909 38.8946 378.418 38.7203 378.819 38.3867L378.447 37.8241C378.158 38.0553 377.801 38.1839 377.431 38.1894C377.18 38.2105 376.931 38.1331 376.736 37.9735C376.541 37.814 376.416 37.5847 376.387 37.3344H378.98C378.987 37.2395 378.995 37.1445 378.995 37.0421C378.987 35.9534 378.315 35.2081 377.336 35.2081ZM377.322 35.8876C377.551 35.8832 377.773 35.9699 377.939 36.1288C378.105 36.2877 378.201 36.5058 378.206 36.7353H376.394C376.407 36.5008 376.512 36.2808 376.685 36.1224C376.859 35.964 377.087 35.8798 377.322 35.8876ZM396.381 37.0421V33.8928H395.621V35.7196C395.491 35.5524 395.323 35.4188 395.132 35.3298C394.94 35.2408 394.729 35.1991 394.518 35.2081C394.047 35.2312 393.603 35.4345 393.278 35.7759C392.953 36.1173 392.772 36.5707 392.772 37.0422C392.772 37.5137 392.953 37.9671 393.278 38.3085C393.603 38.65 394.047 38.8533 394.518 38.8763C394.729 38.8854 394.94 38.8436 395.132 38.7546C395.323 38.6656 395.491 38.5319 395.621 38.3648V38.7887H396.381V37.0421ZM397.647 38.2824C397.694 38.2821 397.741 38.2914 397.785 38.3097C397.826 38.3272 397.864 38.3524 397.897 38.3841C397.929 38.4158 397.955 38.4534 397.972 38.4948C397.991 38.5373 398 38.5831 398 38.6294C398 38.6757 397.991 38.7216 397.972 38.7641C397.954 38.8053 397.929 38.8427 397.897 38.8743C397.864 38.906 397.826 38.9314 397.785 38.9491C397.741 38.9677 397.694 38.9771 397.647 38.9768C397.578 38.9775 397.509 38.9577 397.451 38.9199C397.393 38.882 397.347 38.8279 397.319 38.7641C397.301 38.7215 397.292 38.6757 397.292 38.6294C397.292 38.5831 397.301 38.5373 397.319 38.4948C397.337 38.4534 397.363 38.4159 397.395 38.3841C397.427 38.3522 397.465 38.3269 397.507 38.3097C397.552 38.2914 397.599 38.2821 397.647 38.2824ZM397.647 38.9002C397.683 38.9005 397.719 38.8933 397.752 38.8789C397.783 38.8652 397.812 38.8455 397.837 38.8211C397.887 38.7701 397.916 38.7013 397.916 38.6296C397.916 38.5579 397.887 38.4891 397.837 38.4381C397.812 38.4137 397.784 38.3943 397.752 38.3807C397.719 38.3667 397.683 38.3596 397.647 38.3599C397.61 38.3596 397.574 38.3667 397.54 38.3807C397.508 38.394 397.479 38.4135 397.454 38.4381C397.404 38.4891 397.375 38.5579 397.375 38.6296C397.375 38.7013 397.404 38.7701 397.454 38.8211C397.479 38.8457 397.508 38.8654 397.54 38.8789C397.574 38.8932 397.61 38.9005 397.647 38.9002ZM397.667 38.4671C397.702 38.4648 397.736 38.4746 397.763 38.4948C397.774 38.5039 397.783 38.5154 397.789 38.5285C397.795 38.5415 397.797 38.5558 397.797 38.5701C397.797 38.5823 397.795 38.5945 397.79 38.6058C397.786 38.6172 397.779 38.6274 397.77 38.6359C397.749 38.6547 397.722 38.666 397.694 38.6679L397.799 38.7896H397.717L397.619 38.6687H397.588V38.7896H397.519V38.4671H397.667ZM397.588 38.5275V38.6135H397.667C397.682 38.6142 397.697 38.6105 397.71 38.6028C397.715 38.5992 397.72 38.5943 397.723 38.5886C397.725 38.5828 397.727 38.5764 397.726 38.5701C397.727 38.5638 397.725 38.5575 397.722 38.5519C397.72 38.5463 397.715 38.5415 397.71 38.5381C397.697 38.5304 397.682 38.5268 397.667 38.5275H397.588ZM393.554 37.0421C393.565 36.836 393.637 36.6379 393.76 36.4721C393.883 36.3064 394.052 36.1803 394.246 36.1094C394.44 36.0385 394.65 36.0258 394.851 36.0731C395.052 36.1203 395.235 36.2253 395.377 36.3751C395.519 36.525 395.614 36.7131 395.65 36.9163C395.686 37.1195 395.662 37.3289 395.581 37.5187C395.5 37.7085 395.365 37.8704 395.193 37.9844C395.021 38.0983 394.819 38.1595 394.613 38.1602C394.468 38.1621 394.325 38.1341 394.191 38.0778C394.058 38.0215 393.938 37.9383 393.838 37.8332C393.739 37.7282 393.662 37.6037 393.613 37.4675C393.564 37.3313 393.544 37.1865 393.554 37.0421ZM367.898 37.0421V35.2958H367.139V35.7196C367.009 35.5524 366.841 35.4188 366.649 35.3298C366.457 35.2408 366.247 35.1991 366.036 35.2081C365.565 35.2312 365.121 35.4345 364.796 35.7759C364.471 36.1174 364.29 36.5708 364.29 37.0422C364.29 37.5137 364.471 37.9671 364.796 38.3085C365.121 38.65 365.565 38.8533 366.036 38.8763C366.247 38.8854 366.457 38.8436 366.649 38.7546C366.841 38.6656 367.009 38.5319 367.139 38.3648V38.7887H367.898V37.0421ZM365.071 37.0421C365.083 36.836 365.155 36.6379 365.278 36.4721C365.401 36.3064 365.57 36.1803 365.764 36.1094C365.957 36.0385 366.168 36.0258 366.369 36.0731C366.57 36.1203 366.752 36.2253 366.894 36.3751C367.036 36.525 367.131 36.7131 367.168 36.9163C367.204 37.1195 367.18 37.3289 367.099 37.5187C367.018 37.7085 366.883 37.8704 366.711 37.9844C366.539 38.0984 366.337 38.1595 366.13 38.1602C365.986 38.1621 365.842 38.1341 365.709 38.0778C365.576 38.0215 365.456 37.9383 365.356 37.8332C365.257 37.7282 365.18 37.6037 365.131 37.4675C365.082 37.3313 365.062 37.1865 365.071 37.0421Z" fill="white"/>
<circle cx="368.598" cy="17.959" r="13.5" fill="white"/>
<path d="M397.652 17.6138C397.652 20.0821 396.958 22.5007 395.649 24.593C394.34 26.6853 392.469 28.367 390.249 29.4458C388.03 30.5246 385.552 30.957 383.099 30.6936C380.645 30.4301 378.315 29.4815 376.375 27.9562C377.94 26.725 379.206 25.1545 380.076 23.3629C380.946 21.5714 381.398 19.6056 381.398 17.6138C381.398 15.6221 380.946 13.6563 380.076 11.8647C379.206 10.0732 377.94 8.50264 376.375 7.27149C378.315 5.74613 380.645 4.79752 383.099 4.53411C385.552 4.2707 388.03 4.70311 390.249 5.78191C392.469 6.86071 394.34 8.54237 395.649 10.6347C396.958 12.727 397.652 15.1455 397.652 17.6138Z" fill="white" fill-opacity="0.7"/>
<path d="M396.398 25.7647V25.3413H396.569V25.255H396.134V25.3413H396.305V25.7647H396.398ZM397.242 25.7647V25.2542H397.109L396.956 25.6054L396.802 25.2542H396.669V25.7647H396.763V25.3796L396.907 25.7117H397.004L397.148 25.3788V25.7647H397.242Z" fill="white"/>
</svg>
