<svg width="23" height="27" viewBox="0 0 23 27" fill="none" xmlns="http://www.w3.org/2000/svg">
<path fill-rule="evenodd" clip-rule="evenodd" d="M7.08718 25.8965L7.54161 22.9983L6.5293 22.9746H1.69531L5.05476 1.58734C5.06523 1.52257 5.09906 1.46245 5.14847 1.41968C5.19813 1.37692 5.26141 1.35345 5.32762 1.35345H13.4785C16.1846 1.35345 18.052 1.91873 19.0268 3.03461C19.4839 3.55809 19.7751 4.10528 19.916 4.70721C20.0637 5.33896 20.0662 6.09363 19.9221 7.01425L19.9116 7.08121V7.67116L20.3687 7.93119C20.7535 8.13624 21.0595 8.37085 21.2941 8.63944C21.685 9.08716 21.9379 9.6561 22.0448 10.3304C22.1553 11.0239 22.1188 11.8495 21.9379 12.784C21.7293 13.8589 21.3922 14.7951 20.9368 15.561C20.5182 16.2668 19.9846 16.8524 19.351 17.306C18.7462 17.7371 18.0277 18.0643 17.2152 18.2738C16.4278 18.4795 15.5301 18.5834 14.5455 18.5834H13.9112C13.4578 18.5834 13.0172 18.7474 12.6713 19.0414C12.3245 19.3415 12.0952 19.7516 12.0249 20.2L11.9769 20.461L11.1739 25.5695L11.1377 25.757C11.1279 25.8163 11.1114 25.8459 11.087 25.866C11.0654 25.8843 11.0342 25.8965 11.0038 25.8965H7.08718Z" fill="#28356A"/>
<path fill-rule="evenodd" clip-rule="evenodd" d="M20.8028 7.14935C20.7787 7.30552 20.7507 7.4651 20.7195 7.62909C19.6446 13.1704 15.9671 15.0847 11.2704 15.0847H8.87892C8.30449 15.0847 7.82036 15.5033 7.73103 16.0722L6.15986 26.0788C6.10169 26.4524 6.38842 26.789 6.76375 26.789H11.0053C11.5074 26.789 11.9341 26.4226 12.0132 25.9253L12.0548 25.709L12.8535 20.6206L12.9048 20.3415C12.9829 19.8424 13.4106 19.4759 13.9127 19.4759H14.5471C18.6564 19.4759 21.8735 17.8008 22.8138 12.9531C23.2064 10.9281 23.0031 9.23717 21.9638 8.04797C21.6493 7.68945 21.2591 7.39179 20.8028 7.14935Z" fill="#298FC2"/>
<path fill-rule="evenodd" clip-rule="evenodd" d="M19.6779 6.69925C19.5136 6.6511 19.3442 6.6076 19.1704 6.56825C18.9957 6.52988 18.8168 6.49591 18.6325 6.4661C17.9877 6.3615 17.2811 6.31189 16.5244 6.31189H10.1358C9.9783 6.31189 9.82885 6.34757 9.69522 6.41209C9.40046 6.55432 9.18164 6.83439 9.12858 7.17727L7.76941 15.8203L7.73047 16.0723C7.8198 15.5034 8.30393 15.0847 8.87836 15.0847H11.2698C15.9665 15.0847 19.6441 13.1695 20.7189 7.62915C20.7511 7.46516 20.7781 7.30558 20.8022 7.14941C20.5303 7.00449 20.2358 6.88058 19.9186 6.77501C19.8403 6.74886 19.7595 6.72369 19.6779 6.69925Z" fill="#22284F"/>
<path fill-rule="evenodd" clip-rule="evenodd" d="M9.12769 7.17731C9.18075 6.83443 9.39957 6.55436 9.69433 6.4131C9.82893 6.34834 9.97741 6.31266 10.1349 6.31266H16.5235C17.2802 6.31266 17.9868 6.36251 18.6316 6.46711C18.8159 6.49668 18.9948 6.5309 19.1695 6.56927C19.3433 6.60837 19.5127 6.65211 19.677 6.70001C19.7586 6.72445 19.8394 6.74987 19.9185 6.77504C20.2356 6.88062 20.5304 7.0055 20.8023 7.14945C21.1221 5.10171 20.7996 3.70747 19.697 2.44495C18.4812 1.05487 16.2871 0.460022 13.4795 0.460022H5.32841C4.75495 0.460022 4.26571 0.878661 4.17711 1.44858L0.782126 23.0558C0.71519 23.4832 1.04354 23.8689 1.4729 23.8689H6.50502L9.12769 7.17731Z" fill="#28356A"/>
</svg>
