<svg width="24" height="24" viewBox="0 0 24 24" fill="none" xmlns="http://www.w3.org/2000/svg">
<path d="M8 20L12 11" stroke="white" stroke-width="1.5" stroke-linecap="round" stroke-linejoin="round"/>
<path d="M10.7 13.9977C11.137 15.2607 12.13 15.9977 13.25 15.9977C15.321 15.9977 17 14.4437 17 11.9977C17.0014 11.0827 16.7516 10.185 16.278 9.40224C15.8043 8.61948 15.125 7.98171 14.3139 7.55842C13.5028 7.13512 12.591 6.94254 11.678 7.00166C10.765 7.06077 9.88577 7.36931 9.13602 7.89366C8.23385 8.52413 7.56491 9.43466 7.23295 10.4841C6.901 11.5334 6.92457 12.663 7.30002 13.6977" stroke="white" stroke-width="1.5" stroke-linecap="round" stroke-linejoin="round"/>
<path d="M12 21C13.1819 21 14.3522 20.7672 15.4442 20.3149C16.5361 19.8626 17.5282 19.1997 18.364 18.364C19.1997 17.5282 19.8626 16.5361 20.3149 15.4442C20.7672 14.3522 21 13.1819 21 12C21 10.8181 20.7672 9.64778 20.3149 8.55585C19.8626 7.46392 19.1997 6.47177 18.364 5.63604C17.5282 4.80031 16.5361 4.13738 15.4442 3.68508C14.3522 3.23279 13.1819 3 12 3C9.61305 3 7.32387 3.94821 5.63604 5.63604C3.94821 7.32387 3 9.61305 3 12C3 14.3869 3.94821 16.6761 5.63604 18.364C7.32387 20.0518 9.61305 21 12 21V21Z" stroke="white" stroke-width="1.5" stroke-linecap="round" stroke-linejoin="round"/>
</svg>
