<svg width="24" height="24" viewBox="0 0 24 24" fill="none" xmlns="http://www.w3.org/2000/svg">
<path d="M5.63608 18.364C6.89475 19.6227 8.4984 20.4798 10.2442 20.8271C11.9901 21.1743 13.7996 20.9961 15.4442 20.3149C17.0887 19.6337 18.4943 18.4802 19.4832 17.0001C20.4722 15.5201 21 13.78 21 12C21 10.22 20.4722 8.47992 19.4832 6.99988C18.4943 5.51984 17.0887 4.36629 15.4442 3.6851C13.7996 3.00391 11.9901 2.82567 10.2442 3.17293C8.4984 3.52019 6.89475 4.37734 5.63608 5.636C4.80708 6.466 3.00008 8.5 3.00008 8.5" stroke="#141414" stroke-linecap="round" stroke-linejoin="round"/>
<path d="M3 4V8.5H7.5" stroke="#141414" stroke-linecap="round" stroke-linejoin="round"/>
</svg>
