<svg width="152" height="152" viewBox="0 0 152 152" fill="none" xmlns="http://www.w3.org/2000/svg">
<path d="M65.2558 122.254C63.818 123.692 61.868 124.5 59.8346 124.5C57.8013 124.5 55.8513 123.692 54.4135 122.254C52.9757 120.817 52.168 118.867 52.168 116.833C52.168 114.8 52.9757 112.85 54.4135 111.412C55.8513 109.974 57.8013 109.167 59.8346 109.167C61.868 109.167 63.818 109.974 65.2558 111.412C66.6936 112.85 67.5013 114.8 67.5013 116.833C67.5013 118.867 66.6936 120.817 65.2558 122.254Z" stroke="#141414"/>
<path d="M104.92 122.254C103.482 123.692 101.532 124.5 99.4987 124.5C97.4654 124.5 95.5153 123.692 94.0775 122.254C92.6398 120.817 91.832 118.867 91.832 116.833C91.832 114.8 92.6398 112.85 94.0775 111.412C95.5153 109.974 97.4654 109.167 99.4987 109.167C101.532 109.167 103.482 109.974 104.92 111.412C106.358 112.85 107.165 114.8 107.165 116.833C107.165 118.867 106.358 120.817 104.92 122.254Z" stroke="#141414"/>
<path d="M44.668 48L56.3346 99.3333H103.001L114.668 59.6667" stroke="#141414" stroke-linecap="round" stroke-linejoin="round"/>
<path d="M70.332 80.6666H107.665" stroke="#141414" stroke-linecap="round" stroke-linejoin="round"/>
<path d="M23.668 34L44.668 48" stroke="#141414" stroke-linecap="round" stroke-linejoin="round"/>
<path d="M114.665 59.6667H70.332" stroke="#141414" stroke-linecap="round" stroke-linejoin="round"/>
<rect x="88.5" y="16.5" width="47" height="47" rx="23.5" fill="#70E1C4"/>
<path d="M121.5 33.5L108.437 46.5L102.5 40.59" stroke="#141414" stroke-linecap="round" stroke-linejoin="round"/>
<rect x="88.5" y="16.5" width="47" height="47" rx="23.5" stroke="#141414"/>
</svg>
